<svg version="1.1" xmlns="http://www.w3.org/2000/svg" xmlns:xlink="http://www.w3.org/1999/xlink" x="0px" y="0px" width="1280px"
	 height="800px" viewBox="0 0 1280 800" enable-background="new 0 0 1280 800" xml:space="preserve">

<g id="Layer_1">
	<g>
		<path fill="none" d="M81.237,525.517c2.357,0,4.274-1.917,4.274-4.274s-1.917-4.274-4.274-4.274s-4.274,1.917-4.274,4.274
			S78.88,525.517,81.237,525.517z"/>
		<path fill="none" d="M24.023,685.695l-8.589,8.575C20.061,694.028,23.774,690.32,24.023,685.695z"/>
		<path fill="none" d="M14.957,676.11c-5.013,0-9.091,4.079-9.091,9.093c0,3.886,2.455,7.2,5.891,8.499l11.704-11.686
			C22.166,678.572,18.848,676.11,14.957,676.11z"/>
		<path fill="none" d="M20.511,473.242c0-2.357-1.917-4.274-4.274-4.274s-4.274,1.917-4.274,4.274s1.917,4.274,4.274,4.274
			S20.511,475.6,20.511,473.242z"/>
		<path fill="none" d="M153.217,796.395c5.013,0,9.091-4.078,9.091-9.092s-4.078-9.093-9.091-9.093s-9.092,4.079-9.092,9.093
			S148.204,796.395,153.217,796.395z"/>
		<path fill="none" d="M1267.126,292.793c0,5.013,4.078,9.092,9.091,9.092c5.014,0,9.092-4.079,9.092-9.092
			c0-5.014-4.078-9.093-9.092-9.093C1271.204,283.7,1267.126,287.779,1267.126,292.793z"/>
		<polygon fill="none" points="1230,153.792 1257.901,126.056 1240,107.908 1240,-67.08 1207,-99.388 1207,220.84 1219.086,232.905 
			1230,222.235 		"/>
		<path fill="none" d="M1264.999,137.516c0,5.014,4.078,9.093,9.091,9.093c5.014,0,9.092-4.079,9.092-9.093
			c0-5.013-4.078-9.092-9.092-9.092C1269.077,128.424,1264.999,132.502,1264.999,137.516z"/>
		<path fill="none" d="M142,238.516c0,5.014,4.078,9.093,9.09,9.093c5.013,0,9.092-4.079,9.092-9.093
			c0-5.013-4.079-9.092-9.092-9.092C146.078,229.424,142,233.502,142,238.516z"/>
		<path fill="none" d="M155.344,545.399c5.013,0,9.091-4.079,9.091-9.093s-4.078-9.092-9.091-9.092s-9.091,4.078-9.091,9.092
			S150.331,545.399,155.344,545.399z"/>
		<path fill="none" d="M84.511,263.242c0-0.72-0.196-1.388-0.511-1.984v3.968C84.315,264.63,84.511,263.962,84.511,263.242z"/>
		<path fill="none" d="M77.728,258.975c0.089-0.053,0.18-0.101,0.272-0.148v-74.959l-11,10.672v53.587L77.728,258.975z"/>
		<polygon fill="none" points="44,235.326 46,233.384 46,214.916 44,216.856 		"/>
		<polygon fill="none" points="64,167.092 49,152.359 49,203.646 64,189.091 		"/>
		<path fill="none" d="M16.167,414.195c-1.523-1.151-3.412-1.843-5.463-1.843c-5.013,0-9.091,4.079-9.091,9.093
			s4.078,9.092,9.091,9.092c5.012,0,9.09-4.078,9.09-9.092c0-2.115-0.732-4.06-1.948-5.606L16.167,414.195z"/>
		<path fill="none" d="M76.963,336.242c0,2.357,1.917,4.274,4.274,4.274s4.274-1.917,4.274-4.274s-1.917-4.274-4.274-4.274
			S76.963,333.885,76.963,336.242z"/>
		<path fill="none" d="M75.963,263.242c0,1.534,0.819,2.871,2.037,3.625v-7.251C76.783,260.371,75.963,261.708,75.963,263.242z"/>
		<polygon fill="none" points="1230,226.432 1221.209,235.024 1230,243.8 		"/>
		<path fill="none" d="M144.125,393.793c0,5.013,4.079,9.092,9.092,9.092s9.091-4.079,9.091-9.092c0-5.014-4.078-9.093-9.091-9.093
			S144.125,388.779,144.125,393.793z"/>
		<path fill="none" d="M16.989,345.999c-0.746-0.634-1.699-1.031-2.752-1.031c-2.357,0-4.274,1.917-4.274,4.274
			s1.917,4.274,4.274,4.274s4.274-1.917,4.274-4.274c0-1.078-0.414-2.052-1.075-2.805L16.989,345.999z"/>
		<path fill="none" d="M82.237,407.517c2.357,0,4.274-1.917,4.274-4.274c0-2.357-1.917-4.274-4.274-4.274s-4.274,1.917-4.274,4.274
			C77.963,405.6,79.88,407.517,82.237,407.517z"/>
		<path fill="none" d="M1203,576.216v-5.947c-0.777-0.8-1.859-1.301-3.06-1.301c-2.356,0-4.273,1.917-4.273,4.274
			s1.917,4.274,4.273,4.274C1201.141,577.517,1202.223,577.016,1203,576.216z"/>
		<polygon fill="none" points="1209,581.021 1215,587.2 1215,669.451 1231,684.826 1231,489.177 1229.201,487.387 1209,507.411 		
			"/>
		<path fill="none" d="M1278.344,444.399c5.014,0,9.092-4.079,9.092-9.093s-4.078-9.092-9.092-9.092
			c-5.013,0-9.091,4.078-9.091,9.092S1273.331,444.399,1278.344,444.399z"/>
		<path fill="none" d="M1276.217,677.21c-5.013,0-9.091,4.079-9.091,9.093s4.078,9.092,9.091,9.092c5.014,0,9.092-4.078,9.092-9.092
			S1281.23,677.21,1276.217,677.21z"/>
		<polygon fill="none" points="1209.859,826.691 1209,827.554 1209,924.282 1243,891.042 1243,723.72 1231,711.76 1231,688.987 
			1212,670.729 1212,588.417 1209,585.327 1209,825.835 		"/>
		<path fill="none" d="M1147.048,584.203c0-5.014-4.078-9.093-9.091-9.093s-9.091,4.079-9.091,9.093s4.078,9.092,9.091,9.092
			S1147.048,589.217,1147.048,584.203z"/>
		<path fill="none" d="M1203.214,455.242c0-2.357-1.917-4.274-4.273-4.274s-4.273,1.917-4.273,4.274s1.917,4.274,4.273,4.274
			S1203.214,457.6,1203.214,455.242z"/>
		<path fill="none" d="M1264.94,529.517c2.356,0,4.273-1.917,4.273-4.274s-1.917-4.274-4.273-4.274s-4.273,1.917-4.273,4.274
			S1262.584,529.517,1264.94,529.517z"/>
		<path fill="none" d="M1260.667,423.242c0,2.357,1.917,4.274,4.273,4.274s4.273-1.917,4.273-4.274s-1.917-4.274-4.273-4.274
			S1260.667,420.885,1260.667,423.242z"/>
		<path fill="none" d="M1198.94,332.968c-2.356,0-4.273,1.917-4.273,4.274s1.917,4.274,4.273,4.274s4.273-1.917,4.273-4.274
			S1201.297,332.968,1198.94,332.968z"/>
		<path fill="none" d="M1197.94,405.968c-2.356,0-4.273,1.917-4.273,4.274s1.917,4.274,4.273,4.274s4.273-1.917,4.273-4.274
			S1200.297,405.968,1197.94,405.968z"/>
		<path fill="none" d="M1139.168,313.196c-1.523-1.151-3.413-1.843-5.465-1.843c-5.013,0-9.091,4.079-9.091,9.093
			c0,5.013,4.078,9.092,9.091,9.092s9.091-4.079,9.091-9.092c0-2.116-0.732-4.06-1.948-5.606L1139.168,313.196z"/>
		<path fill="#33364F" d="M149.72,545.246c1.631,1.03,3.556,1.636,5.624,1.636c5.831,0,10.574-4.744,10.574-10.575
			s-4.743-10.574-10.574-10.574s-10.574,4.743-10.574,10.574c0,1.58,0.358,3.075,0.982,4.424L80,605.911v314.944L49,889.96V714.943
			l-24.69-24.67l-0.198,0.198c0.897-1.554,1.419-3.35,1.419-5.269c0-0.325-0.02-0.646-0.049-0.965l-1.458,1.457
			c-0.249,4.625-3.962,8.333-8.589,8.575l-1.459,1.457c0.324,0.03,0.65,0.05,0.982,0.05c1.922,0,3.72-0.523,5.274-1.423
			l-0.163,0.163L43,717.43V892.45l37,36.876v150.047l-103.445,103.572l4.245,4.24L86,1081.855v-48.182l40-39.106V819.517
			l22.268-22.59l-0.728-0.718c1.642,1.051,3.587,1.668,5.677,1.668c5.831,0,10.574-4.743,10.574-10.574s-4.743-10.575-10.574-10.575
			s-10.574,4.744-10.574,10.575c0,2.137,0.642,4.125,1.736,5.789l-0.384-0.378L120,817.056v174.986l-34,33.241v-96.729l0.859-0.862
			L86,926.835V608.411L149.72,545.246z M155.344,527.215c5.013,0,9.091,4.078,9.091,9.092s-4.078,9.093-9.091,9.093
			s-9.091-4.079-9.091-9.093S150.331,527.215,155.344,527.215z M153.217,778.21c5.013,0,9.091,4.079,9.091,9.093
			s-4.078,9.092-9.091,9.092s-9.092-4.078-9.092-9.092S148.204,778.21,153.217,778.21z"/>
		<path fill="#33364F" d="M80.237,268.214c-0.809,0-1.562-0.212-2.237-0.557v56.671l65.297,65.182l0.505-0.506
			c-0.735,1.44-1.159,3.064-1.159,4.789c0,5.831,4.744,10.574,10.574,10.574s10.574-4.744,10.574-10.574
			c0-5.831-4.743-10.575-10.574-10.575c-2.189,0-4.225,0.669-5.914,1.813L84,321.84v-55.386
			C83.087,267.521,81.749,268.214,80.237,268.214z M162.309,393.793c0,5.013-4.078,9.092-9.091,9.092s-9.092-4.079-9.092-9.092
			c0-5.014,4.079-9.093,9.092-9.093S162.309,388.779,162.309,393.793z"/>
		<path fill="#33364F" d="M78,175.508l-11,10.673v8.36l11-10.672v74.959c0.676-0.344,1.429-0.557,2.237-0.557
			c1.511,0,2.85,0.692,3.763,1.76V1.612l33,32.309v174.988l24.612,24.951c-0.694,1.407-1.095,2.984-1.095,4.656
			c0,5.831,4.743,10.575,10.573,10.575c5.831,0,10.574-4.744,10.574-10.575c0-5.831-4.744-10.574-10.574-10.574
			c-1.977,0-3.821,0.555-5.405,1.503L123,206.447V31.398L84-6.784v-144.83l-105.538-105.33l-4.238,4.247L78-149.125V175.508z
			 M160.182,238.516c0,5.014-4.079,9.093-9.092,9.093c-5.012,0-9.09-4.079-9.09-9.093c0-5.013,4.078-9.092,9.09-9.092
			C156.103,229.424,160.182,233.502,160.182,238.516z"/>
		<path fill="#33364F" d="M80.237,258.968c-0.823,0-1.584,0.245-2.237,0.649v7.251c0.653,0.404,1.415,0.649,2.237,0.649
			c1.637,0,3.045-0.936,3.763-2.291v-3.968C83.282,259.903,81.875,258.968,80.237,258.968z"/>
		<polygon fill="#33364F" points="49,203.646 49,212.005 64,197.451 64,189.091 		"/>
		<polygon fill="#33364F" points="44,216.856 46,214.916 46,206.556 38,214.318 38,241.15 44,235.326 		"/>
		<path fill="#33364F" d="M38,389.382l-22.281,22.756c-1.494-0.809-3.202-1.269-5.016-1.269c-5.831,0-10.574,4.744-10.574,10.575
			s4.743,10.574,10.574,10.574c5.83,0,10.573-4.743,10.573-10.574c0-1.839-0.474-3.568-1.302-5.076L44,391.831V239.507l-6,5.824
			V389.382z M10.704,430.537c-5.013,0-9.091-4.078-9.091-9.092s4.078-9.093,9.091-9.093c2.052,0,3.94,0.691,5.463,1.843l1.679,1.644
			c1.216,1.547,1.948,3.491,1.948,5.606C19.794,426.459,15.716,430.537,10.704,430.537z"/>
		<path fill="#33364F" d="M5.866,685.203c0-5.014,4.078-9.093,9.091-9.093c3.891,0,7.209,2.462,8.504,5.906l1.137-1.135
			c-1.656-3.681-5.35-6.254-9.641-6.254c-5.83,0-10.573,4.744-10.573,10.575c0,4.285,2.565,7.975,6.237,9.634l1.136-1.135
			C8.321,692.403,5.866,689.089,5.866,685.203z"/>
		<path fill="#33364F" d="M1204.214,573.242c0-1.156-0.466-2.203-1.214-2.974v5.947
			C1203.748,575.445,1204.214,574.398,1204.214,573.242z"/>
		<path fill="#33364F" d="M1272.721,444.246c1.631,1.03,3.556,1.636,5.623,1.636c5.831,0,10.574-4.744,10.574-10.575
			s-4.743-10.574-10.574-10.574c-5.83,0-10.573,4.743-10.573,10.574c0,1.58,0.358,3.075,0.982,4.423l-41.675,41.313l4.253,4.232
			L1272.721,444.246z M1278.344,426.215c5.014,0,9.092,4.078,9.092,9.092s-4.078,9.093-9.092,9.093
			c-5.013,0-9.091-4.079-9.091-9.093S1273.331,426.215,1278.344,426.215z"/>
		<path fill="#33364F" d="M1204.911,573.242c0,1.006-0.305,1.94-0.82,2.724l4.909,5.056v-73.61l20.201-20.024l-4.254-4.232
			L1203,504.911v64.442C1204.154,570.265,1204.911,571.66,1204.911,573.242z"/>
		<path fill="#33364F" d="M1243,891.042l-34,33.24v-96.729l0.859-0.862l-0.859-0.856V585.327l-6-6.179v240.707l-31-30.896V613.943
			l-24.69-24.67l-0.199,0.199c0.897-1.554,1.42-3.35,1.42-5.27c0-5.831-4.743-10.575-10.573-10.575s-10.573,4.744-10.573,10.575
			s4.743,10.574,10.573,10.574c1.923,0,3.723-0.524,5.277-1.425l-0.165,0.165L1166,616.43V791.45l37,36.877v150.046
			l-103.445,103.572l4.246,4.24l104.322-104.451l0.877-0.879v-48.181l40-39.107V729.699l-6-5.979V891.042z M1128.866,584.203
			c0-5.014,4.078-9.093,9.091-9.093s9.091,4.079,9.091,9.093s-4.078,9.092-9.091,9.092S1128.866,589.217,1128.866,584.203z"/>
		<path fill="#33364F" d="M1201,74.508l-40,38.81v175.064l-22.281,22.756c-1.493-0.809-3.201-1.269-5.016-1.269
			c-5.83,0-10.573,4.744-10.573,10.575c0,5.831,4.743,10.574,10.573,10.574s10.573-4.744,10.573-10.574
			c0-1.839-0.474-3.568-1.302-5.077L1167,290.831V115.857l34-32.989v140.46l13.795,13.771l4.291-4.194L1207,220.84V-99.388
			l33,32.309v174.988l17.901,18.148l4.255-4.23L1246,105.447V-69.602l-39-38.182v-144.83l-105.538-105.33l-4.238,4.247L1201-250.125
			V74.508z M1133.703,329.537c-5.013,0-9.091-4.079-9.091-9.092c0-5.014,4.078-9.093,9.091-9.093c2.052,0,3.941,0.692,5.465,1.843
			l1.678,1.643c1.216,1.546,1.948,3.491,1.948,5.606C1142.794,325.458,1138.716,329.537,1133.703,329.537z"/>
		<polygon fill="#33364F" points="1221.209,235.024 1216.919,239.219 1230,252.277 1230,243.8 		"/>
		<path fill="#33364F" d="M1266.297,288.51l0.506-0.507c-0.735,1.44-1.159,3.065-1.159,4.79c0,5.831,4.743,10.574,10.573,10.574
			c5.831,0,10.574-4.744,10.574-10.574c0-5.831-4.743-10.575-10.574-10.575c-2.189,0-4.225,0.669-5.914,1.813L1233,246.794v8.477
			L1266.297,288.51z M1285.309,292.793c0,5.013-4.078,9.092-9.092,9.092c-5.013,0-9.091-4.079-9.091-9.092
			c0-5.014,4.078-9.093,9.091-9.093C1281.23,283.7,1285.309,287.779,1285.309,292.793z"/>
		<path fill="#33364F" d="M1264.611,132.859c-0.694,1.407-1.095,2.984-1.095,4.656c0,5.831,4.743,10.575,10.573,10.575
			c5.831,0,10.574-4.744,10.574-10.575c0-5.831-4.743-10.574-10.574-10.574c-1.977,0-3.821,0.555-5.405,1.503l-4.421-4.482
			l-4.256,4.23L1264.611,132.859z M1283.182,137.516c0,5.014-4.078,9.093-9.092,9.093c-5.013,0-9.091-4.079-9.091-9.093
			c0-5.013,4.078-9.092,9.091-9.092C1279.104,128.424,1283.182,132.502,1283.182,137.516z"/>
		<path fill="#33364F" d="M1276.217,675.728c-5.83,0-10.573,4.744-10.573,10.575c0,2.138,0.643,4.126,1.737,5.791l-0.386-0.38
			L1243,716.056v3.428l6,5.98v-6.947l22.269-22.59l-0.728-0.717c1.643,1.05,3.586,1.667,5.676,1.667
			c5.831,0,10.574-4.743,10.574-10.574S1282.048,675.728,1276.217,675.728z M1276.217,695.395c-5.013,0-9.091-4.078-9.091-9.092
			s4.078-9.093,9.091-9.093c5.014,0,9.092,4.079,9.092,9.093S1281.23,695.395,1276.217,695.395z"/>
		<path fill="#00B7AE" d="M24.023,685.695l1.458-1.457L50,659.759v-22.688l19-18.345v-82.308l10.326-10.59
			c0.589,0.247,1.234,0.385,1.912,0.385c2.741,0,4.971-2.23,4.971-4.972s-2.23-4.972-4.971-4.972s-4.971,2.23-4.971,4.972
			c0,0.971,0.291,1.87,0.773,2.636L66,535.198v82.255L50,632.9V437.177l29.814-29.621c0.72,0.407,1.539,0.658,2.423,0.658
			c2.741,0,4.971-2.23,4.971-4.972s-2.23-4.972-4.971-4.972s-4.971,2.23-4.971,4.972c0,0.763,0.187,1.478,0.495,2.124L47,435.929
			v148.35l-15-14.815V487.19l-11.449-11.525c0.406-0.72,0.658-1.539,0.658-2.423c0-2.741-2.23-4.972-4.971-4.972
			s-4.971,2.23-4.971,4.972s2.23,4.972,4.971,4.972c0.763,0,1.478-0.187,2.124-0.495L29,488.427v82.29l18,17.778v70.02
			l-22.402,22.367l-1.137,1.135l-11.704,11.686l-1.136,1.135l-12.363,12.344l2.12,2.123l13.597-13.576l1.459-1.457L24.023,685.695z
			 M81.237,516.968c2.357,0,4.274,1.917,4.274,4.274s-1.917,4.274-4.274,4.274s-4.274-1.917-4.274-4.274
			S78.88,516.968,81.237,516.968z M82.237,398.968c2.357,0,4.274,1.917,4.274,4.274c0,2.357-1.917,4.274-4.274,4.274
			s-4.274-1.917-4.274-4.274C77.963,400.885,79.88,398.968,82.237,398.968z M11.963,473.242c0-2.357,1.917-4.274,4.274-4.274
			s4.274,1.917,4.274,4.274s-1.917,4.274-4.274,4.274S11.963,475.6,11.963,473.242z"/>
		<path fill="#00B7AE" d="M80.237,258.271c-0.809,0-1.562,0.212-2.237,0.557c-0.092,0.047-0.183,0.095-0.272,0.148L67,248.127
			v-53.587v-8.36v-20.347l-18-17.68v-68.36L-0.751,30.248l-2.117,2.126L46,81.039v68.309l-0.032,0.033L46,149.413v57.144v8.36
			v18.468l-2,1.941l-6,5.825l-11,10.678v82.303l-10.494,10.712c-0.684-0.354-1.447-0.574-2.269-0.574
			c-2.741,0-4.971,2.23-4.971,4.972s2.23,4.972,4.971,4.972s4.971-2.23,4.971-4.972c0-0.825-0.221-1.592-0.579-2.278L30,335.356
			v-82.259l8-7.766l6-5.824l2-1.941v66.056l30.668,30.668c-0.257,0.6-0.402,1.26-0.402,1.953c0,2.741,2.23,4.972,4.971,4.972
			s4.971-2.23,4.971-4.972s-2.23-4.972-4.971-4.972c-0.954,0-1.837,0.283-2.595,0.751L49,302.379v-90.374v-8.36v-51.286l15,14.733
			v21.999v8.36v51.91l11.714,11.844c-0.282,0.624-0.448,1.31-0.448,2.038c0,1.933,1.12,3.593,2.734,4.415
			c0.676,0.344,1.429,0.557,2.237,0.557c1.511,0,2.85-0.692,3.763-1.76c0.743-0.869,1.208-1.982,1.208-3.212
			s-0.466-2.343-1.208-3.212C83.087,258.963,81.749,258.271,80.237,258.271z M14.237,353.517c-2.357,0-4.274-1.917-4.274-4.274
			s1.917-4.274,4.274-4.274c1.053,0,2.006,0.397,2.752,1.031l0.447,0.438c0.661,0.752,1.075,1.727,1.075,2.805
			C18.511,351.599,16.594,353.517,14.237,353.517z M85.511,336.242c0,2.357-1.917,4.274-4.274,4.274s-4.274-1.917-4.274-4.274
			s1.917-4.274,4.274-4.274S85.511,333.885,85.511,336.242z M84.511,263.242c0,0.72-0.196,1.388-0.511,1.984
			c-0.718,1.355-2.125,2.291-3.763,2.291c-0.823,0-1.584-0.245-2.237-0.649c-1.217-0.754-2.037-2.091-2.037-3.625
			s0.819-2.871,2.037-3.625c0.653-0.404,1.415-0.649,2.237-0.649c1.637,0,3.045,0.936,3.763,2.291
			C84.315,261.854,84.511,262.522,84.511,263.242z"/>
		<path fill="#00B7AE" d="M1230,153.792v68.443l-10.914,10.669l-4.291,4.194l-2.795,2.732v82.298l-10.639,10.798
			c-0.719-0.406-1.537-0.657-2.421-0.657c-2.741,0-4.971,2.23-4.971,4.972s2.229,4.972,4.971,4.972s4.971-2.23,4.971-4.972
			c0-0.763-0.187-1.479-0.495-2.125L1215,323.359v-82.265l1.919-1.875l4.29-4.194l8.791-8.593V243.8v8.477v124.103l-29.551,29.595
			c-0.739-0.437-1.59-0.704-2.509-0.704c-2.741,0-4.971,2.23-4.971,4.972s2.229,4.972,4.971,4.972s4.971-2.23,4.971-4.972
			c0-0.729-0.166-1.415-0.448-2.039L1233,377.621v-66.132l16,15.607v82.263l11.5,11.694c-0.328,0.663-0.53,1.4-0.53,2.189
			c0,2.741,2.229,4.972,4.971,4.972s4.971-2.23,4.971-4.972s-2.229-4.972-4.971-4.972c-0.857,0-1.652,0.238-2.357,0.622L1252,408.13
			v-82.299l-19-18.532v-52.027v-8.477v-23.295l0.118-0.116l-0.118-0.121V155.04l27.008-26.848l4.256-4.23l17.692-17.587
			l-2.115-2.128l-17.685,17.58l-4.255,4.23L1230,153.792z M1198.94,341.517c-2.356,0-4.273-1.917-4.273-4.274
			s1.917-4.274,4.273-4.274s4.273,1.917,4.273,4.274S1201.297,341.517,1198.94,341.517z M1197.94,414.517
			c-2.356,0-4.273-1.917-4.273-4.274s1.917-4.274,4.273-4.274s4.273,1.917,4.273,4.274S1200.297,414.517,1197.94,414.517z
			 M1269.214,423.242c0,2.357-1.917,4.274-4.273,4.274s-4.273-1.917-4.273-4.274s1.917-4.274,4.273-4.274
			S1269.214,420.885,1269.214,423.242z"/>
		<path fill="#00B7AE" d="M1234,710.514v-69.935l18-17.864v-82.286l10.718-10.745l-0.041-0.041c0.683,0.354,1.444,0.571,2.264,0.571
			c2.741,0,4.971-2.23,4.971-4.972s-2.229-4.972-4.971-4.972s-4.971,2.23-4.971,4.972c0,0.849,0.233,1.637,0.61,2.337L1249,539.188
			v82.276l-15,14.888V487.93l-2.669-2.655l-4.253-4.232l-23.709-23.59c0.336-0.669,0.542-1.412,0.542-2.21
			c0-2.741-2.229-4.972-4.971-4.972s-4.971,2.23-4.971,4.972s2.229,4.972,4.971,4.972c0.85,0,1.638-0.234,2.337-0.611l23.67,23.552
			l4.254,4.232l1.799,1.79v195.649l-16-15.375V587.2l-6-6.179l-4.909-5.056c0.516-0.783,0.82-1.718,0.82-2.724
			c0-1.582-0.757-2.978-1.911-3.889c-0.847-0.668-1.9-1.083-3.06-1.083c-2.741,0-4.971,2.23-4.971,4.972s2.229,4.972,4.971,4.972
			c0.64,0,1.247-0.132,1.81-0.353l1.25,1.287l6,6.179l3,3.09v82.312l19,18.259v22.772l12,11.96l6,5.979l31.712,31.605l2.117-2.125
			L1249,725.464l-6-5.98L1234,710.514z M1264.94,520.968c2.356,0,4.273,1.917,4.273,4.274s-1.917,4.274-4.273,4.274
			s-4.273-1.917-4.273-4.274S1262.584,520.968,1264.94,520.968z M1194.667,455.242c0-2.357,1.917-4.274,4.273-4.274
			s4.273,1.917,4.273,4.274s-1.917,4.274-4.273,4.274S1194.667,457.6,1194.667,455.242z M1195.667,573.242
			c0-2.357,1.917-4.274,4.273-4.274c1.2,0,2.282,0.501,3.06,1.301c0.748,0.771,1.214,1.817,1.214,2.974s-0.466,2.203-1.214,2.974
			c-0.777,0.8-1.859,1.301-3.06,1.301C1197.584,577.517,1195.667,575.6,1195.667,573.242z"/>
	</g>
</g>
    
    <script src="vendor/walkwayjs/"></script>
    <script src="js/index.js"></script>
</svg>
