<svg version="1.1" id="Layer_1" xmlns="http://www.w3.org/2000/svg" xmlns:xlink="http://www.w3.org/1999/xlink" x="0px" y="0px"
	 width="1280px" height="800px" viewBox="0 0 1280 800" enable-background="new 0 0 1280 800" xml:space="preserve">
<rect fill="#262631" width="1281" height="800"/>
<g>
	<polyline fill="none" stroke="#33364F" stroke-width="6" stroke-miterlimit="5" points="-20.322,1185.065 84,1080.614 84,607.161 
		148.988,542.738 	"/>
	<polyline fill="none" stroke="#33364F" stroke-width="6" stroke-miterlimit="5" points="84.507,1031.916 124,993.305 124,818.286 
		147.132,794.82 	"/>
	<polyline fill="none" stroke="#33364F" stroke-width="6" stroke-miterlimit="5" points="85.741,929.816 47,891.205 47,716.187 
		23.189,692.396 	"/>
	<g>
		<polyline fill="none" stroke="#33364F" stroke-width="6" stroke-miterlimit="5" points="-22.657,-254.82 82,-150.369 82,323.084 
			146.417,387.387 		"/>
		<polyline fill="none" stroke="#33364F" stroke-width="6" stroke-miterlimit="5" points="81.794,176.977 42,215.587 42,390.606 
			18.054,415.063 		"/>
		<polyline fill="none" stroke="#33364F" stroke-width="6" stroke-miterlimit="5" points="81.562,-5.953 121,32.659 121,207.678 
			145.125,232.135 		"/>
		<circle fill="none" stroke="#33364F" stroke-width="1.4825" stroke-miterlimit="5" cx="11.703" cy="421.445" r="9.832"/>
		<circle fill="none" stroke="#33364F" stroke-width="1.4825" stroke-miterlimit="5" cx="154.217" cy="393.793" r="9.833"/>
		<circle fill="none" stroke="#33364F" stroke-width="1.4825" stroke-miterlimit="5" cx="152.091" cy="238.516" r="9.832"/>
	</g>
	<circle fill="none" stroke="#33364F" stroke-width="1.4825" stroke-miterlimit="5" cx="156.344" cy="536.307" r="9.833"/>
	<circle fill="none" stroke="#33364F" stroke-width="1.4825" stroke-miterlimit="5" cx="15.957" cy="685.203" r="9.832"/>
	<circle fill="none" stroke="#33364F" stroke-width="1.4825" stroke-miterlimit="5" cx="154.217" cy="787.303" r="9.833"/>
</g>
<g>
	<polyline fill="none" stroke="#33364F" stroke-width="6" stroke-miterlimit="5" points="1102.678,1084.065 1207,979.614 
		1207,506.161 1271.988,441.738 	"/>
	<polyline fill="none" stroke="#33364F" stroke-width="6" stroke-miterlimit="5" points="1207.507,930.916 1247,892.305 
		1247,717.286 1270.132,693.82 	"/>
	<polyline fill="none" stroke="#33364F" stroke-width="6" stroke-miterlimit="5" points="1208.741,828.816 1170,790.205 
		1170,615.187 1146.189,591.396 	"/>
	<g>
		<polyline fill="none" stroke="#33364F" stroke-width="6" stroke-miterlimit="5" points="1100.343,-355.82 1205,-251.369 
			1205,222.084 1269.416,286.387 		"/>
		<polyline fill="none" stroke="#33364F" stroke-width="6" stroke-miterlimit="5" points="1204.795,75.977 1165,114.587 
			1165,289.606 1141.054,314.063 		"/>
		<polyline fill="none" stroke="#33364F" stroke-width="6" stroke-miterlimit="5" points="1204.562,-106.953 1244,-68.341 
			1244,106.678 1268.125,131.135 		"/>
		<circle fill="none" stroke="#33364F" stroke-width="1.4825" stroke-miterlimit="5" cx="1134.703" cy="320.445" r="9.832"/>
		<circle fill="none" stroke="#33364F" stroke-width="1.4825" stroke-miterlimit="5" cx="1277.217" cy="292.793" r="9.833"/>
		<circle fill="none" stroke="#33364F" stroke-width="1.4825" stroke-miterlimit="5" cx="1275.09" cy="137.516" r="9.833"/>
	</g>
	<circle fill="none" stroke="#33364F" stroke-width="1.4825" stroke-miterlimit="5" cx="1279.344" cy="435.307" r="9.833"/>
	<circle fill="none" stroke="#33364F" stroke-width="1.4825" stroke-miterlimit="5" cx="1138.957" cy="584.203" r="9.832"/>
	<circle fill="none" stroke="#33364F" stroke-width="1.4825" stroke-miterlimit="5" cx="1277.217" cy="686.303" r="9.833"/>
</g>
<g>
	<polyline fill="none" stroke="#00B7AE" stroke-width="3" stroke-miterlimit="5" points="0.318,708.242 49.5,659.137 49.5,436.553 
		79.984,406.266 	"/>
	<polyline fill="none" stroke="#00B7AE" stroke-width="3" stroke-miterlimit="5" points="49.699,636.242 68.5,618.09 68.5,535.809 
		79.258,524.776 	"/>
	<polyline fill="none" stroke="#00B7AE" stroke-width="3" stroke-miterlimit="5" points="49.879,588.242 31.5,570.09 31.5,487.809 
		20.389,476.624 	"/>
	<g>
		<polyline fill="none" stroke="#00B7AE" stroke-width="3" stroke-miterlimit="5" points="-0.81,31.311 48.5,80.416 48.5,303 
			78.73,333.23 		"/>
		<polyline fill="none" stroke="#00B7AE" stroke-width="3" stroke-miterlimit="5" points="48.199,234.311 29.5,252.463 
			29.5,334.744 18.237,346.242 		"/>
		<polyline fill="none" stroke="#00B7AE" stroke-width="3" stroke-miterlimit="5" points="48.019,148.311 66.5,166.463 
			66.5,248.744 77.872,260.242 		"/>
		<circle fill="none" stroke="#00B7AE" stroke-width="0.697" stroke-miterlimit="5" cx="15.237" cy="349.242" r="4.623"/>
		<circle fill="none" stroke="#00B7AE" stroke-width="0.697" stroke-miterlimit="5" cx="82.237" cy="336.242" r="4.623"/>
		<circle fill="none" stroke="#00B7AE" stroke-width="0.697" stroke-miterlimit="5" cx="81.237" cy="263.242" r="4.623"/>
	</g>
	<circle fill="none" stroke="#00B7AE" stroke-width="0.697" stroke-miterlimit="5" cx="83.237" cy="403.242" r="4.623"/>
	<circle fill="none" stroke="#00B7AE" stroke-width="0.697" stroke-miterlimit="5" cx="17.237" cy="473.242" r="4.623"/>
	<circle fill="none" stroke="#00B7AE" stroke-width="0.697" stroke-miterlimit="5" cx="82.237" cy="521.242" r="4.623"/>
</g>
<g>
	<polyline fill="none" stroke="#00B7AE" stroke-width="3" stroke-miterlimit="5" points="1281.898,105.311 1232.5,154.416 
		1232.5,377 1202.314,407.23 	"/>
	<polyline fill="none" stroke="#00B7AE" stroke-width="3" stroke-miterlimit="5" points="1232.89,308.311 1251.5,326.463 
		1251.5,408.744 1262.807,420.242 	"/>
	<polyline fill="none" stroke="#00B7AE" stroke-width="3" stroke-miterlimit="5" points="1233.069,222.311 1214.5,240.463 
		1214.5,322.744 1203.172,334.242 	"/>
	<polyline fill="none" stroke="#00B7AE" stroke-width="3" stroke-miterlimit="5" points="1282.771,760.242 1233.5,711.137 
		1233.5,488.553 1203.061,458.266 	"/>
	<polyline fill="none" stroke="#00B7AE" stroke-width="3" stroke-miterlimit="5" points="1233.39,688.242 1214.5,670.09 
		1214.5,587.809 1203.787,576.776 	"/>
	<polyline fill="none" stroke="#00B7AE" stroke-width="3" stroke-miterlimit="5" points="1233.21,640.242 1251.5,622.09 
		1251.5,539.809 1262.656,528.624 	"/>
	<circle fill="none" stroke="#00B7AE" stroke-width="0.697" stroke-miterlimit="5" cx="1265.94" cy="423.242" r="4.622"/>
	<circle fill="none" stroke="#00B7AE" stroke-width="0.697" stroke-miterlimit="5" cx="1198.94" cy="410.242" r="4.622"/>
	<circle fill="none" stroke="#00B7AE" stroke-width="0.697" stroke-miterlimit="5" cx="1199.94" cy="337.242" r="4.622"/>
	<circle fill="none" stroke="#00B7AE" stroke-width="0.697" stroke-miterlimit="5" cx="1199.94" cy="455.242" r="4.622"/>
	<circle fill="none" stroke="#00B7AE" stroke-width="0.697" stroke-miterlimit="5" cx="1265.94" cy="525.242" r="4.622"/>
	<circle fill="none" stroke="#00B7AE" stroke-width="0.697" stroke-miterlimit="5" cx="1200.94" cy="573.242" r="4.622"/>
</g>
</svg>
