<?xml version="1.0" encoding="utf-8"?>
<!-- Generator: Adobe Illustrator 16.0.0, SVG Export Plug-In . SVG Version: 6.00 Build 0)  -->
<!DOCTYPE svg PUBLIC "-//W3C//DTD SVG 1.1//EN" "http://www.w3.org/Graphics/SVG/1.1/DTD/svg11.dtd">
<svg version="1.1" id="Layer_1" xmlns="http://www.w3.org/2000/svg" xmlns:xlink="http://www.w3.org/1999/xlink" x="0px" y="0px"
	 width="1280px" height="800px" viewBox="0 0 1280 800" enable-background="new 0 0 1280 800" xml:space="preserve">
<g id="cpe" enable-background="new    ">
	<path fill="#00C5C5" d="M479.085,459.659l-15.355-15.355v-92.13l15.355-15.354h92.13l-15.355,30.71h-61.42v61.42h76.775v30.71
		H479.085z"/>
	<path fill="#00C5C5" d="M584.891,459.659V336.82h92.13l15.354,15.354v46.065l-15.354,15.354h-61.42v46.065H584.891z
		 M661.666,382.884V367.53h-46.065v15.354H661.666z"/>
	<path fill="#00C5C5" d="M706.051,459.659V336.82h92.131v30.71h-61.42v15.354h61.42v30.71h-61.42v15.355h61.42l30.709,30.71H706.051
		z"/>
</g>
<g id="computer-engineering" enable-background="new    ">
	<path fill="#00C5C5" d="M486.089,493.102l-1.896-1.896v-11.372l1.896-1.895h11.372l-1.895,3.79h-7.582v7.581h9.477v3.791H486.089z"
		/>
	<path fill="#00C5C5" d="M504.031,493.102l-1.896-1.896v-11.372l1.896-1.895h9.477l1.895,1.895v11.372l-1.895,1.896H504.031z
		 M511.613,489.311v-7.581h-5.686v7.581H511.613z"/>
	<path fill="#00C5C5" d="M520.078,493.102v-13.268l1.896-1.895h4.738l0.947,1.895l0.948-1.895h4.738l1.896,1.895v13.268h-3.791
		V481.73h-1.896v11.372h-3.791V481.73h-1.896v11.372H520.078z"/>
	<path fill="#00C5C5" d="M539.916,493.102V477.94h11.372l1.895,1.895v5.687l-1.895,1.896h-7.582v5.686H539.916z M549.392,483.625
		v-1.896h-5.686v1.896H549.392z"/>
	<path fill="#00C5C5" d="M559.753,493.102l-1.896-1.896V477.94h3.791v11.371h5.686V477.94h3.791v11.371l-1.895,3.791H559.753z"/>
	<path fill="#00C5C5" d="M580.538,493.102V481.73H575.8v-3.79h13.267v3.79h-4.738v11.372H580.538z"/>
	<path fill="#00C5C5" d="M593.742,493.102V477.94h11.372v3.79h-7.582v1.896h7.582v3.791h-7.582v1.895h7.582v3.791H593.742z"/>
	<path fill="#00C5C5" d="M609.789,493.102V477.94h11.372l1.895,1.895v5.687l-1.895,1.896h-0.948l2.843,5.686h-3.791l-3.791-7.581
		v-1.896h3.791v-1.896h-5.686v11.372H609.789z"/>
	<path fill="#00C5C5" d="M646.976,493.102V477.94h11.372v3.79h-7.581v1.896h7.581v3.791h-7.581v1.895h7.581v3.791H646.976z"/>
	<path fill="#00C5C5" d="M663.023,493.102V477.94h4.738l4.738,9.477v-9.477h3.791v15.162h-4.738l-4.738-9.477v9.477H663.023z"/>
	<path fill="#00C5C5" d="M682.861,493.102l-1.896-1.896v-11.372l1.896-1.895h11.371l-1.895,3.79h-7.582v7.581h5.687v-3.79
		l-1.896-1.896h5.686v9.477H682.861z"/>
	<path fill="#00C5C5" d="M698.908,493.102V477.94h3.791v15.162H698.908z"/>
	<path fill="#00C5C5" d="M707.373,493.102V477.94h4.738l4.738,9.477v-9.477h3.791v15.162h-4.738l-4.738-9.477v9.477H707.373z"/>
	<path fill="#00C5C5" d="M725.316,493.102V477.94h11.371v3.79h-7.581v1.896h7.581v3.791h-7.581v1.895h7.581v3.791H725.316z"/>
	<path fill="#00C5C5" d="M741.363,493.102V477.94h11.371v3.79h-7.581v1.896h7.581v3.791h-7.581v1.895h7.581v3.791H741.363z"/>
	<path fill="#00C5C5" d="M757.41,493.102V477.94h11.371l1.896,1.895v5.687l-1.896,1.896h-0.947l2.843,5.686h-3.79l-3.791-7.581
		v-1.896h3.791v-1.896H761.2v11.372H757.41z"/>
	<path fill="#00C5C5" d="M775.351,493.102V477.94h3.791v15.162H775.351z"/>
	<path fill="#00C5C5" d="M783.818,493.102V477.94h4.738l4.738,9.477v-9.477h3.79v15.162h-4.738l-4.738-9.477v9.477H783.818z"/>
	<path fill="#00C5C5" d="M803.655,493.102l-1.896-1.896v-11.372l1.896-1.895h11.372l-1.896,3.79h-7.581v7.581h5.686v-3.79
		l-1.896-1.896h5.687v9.477H803.655z"/>
</g>
<path id="Layer_4" fill="#00C5C5" d="M604.758,85.642c0.94-0.095,1.875-0.21,2.817-0.297
	c173.713-16.168,328.193,112.003,344.364,285.717c16.168,173.714-112.004,328.195-285.718,344.363
	c-173.712,16.17-328.195-112.004-344.364-285.718l-37.384,3.479c4.428,47.569,18.045,92.857,40.473,134.608
	c21.657,40.316,50.572,75.64,85.946,104.984c35.371,29.351,75.424,51.25,119.045,65.096c45.172,14.339,92.196,19.36,139.766,14.935
	c47.566-4.429,92.855-18.046,134.604-40.473c40.315-21.657,75.642-50.573,104.987-85.946c29.349-35.372,51.25-75.424,65.095-119.046
	c14.337-45.171,19.36-92.195,14.935-139.764c-4.429-47.567-18.045-92.855-40.472-134.607
	c-21.657-40.314-50.576-75.64-85.946-104.987C827.534,98.64,787.48,76.736,743.86,62.893
	c-45.175-14.336-92.197-19.362-139.765-14.935c-0.942,0.088-1.878,0.203-2.818,0.297L604.758,85.642z">
<animateTransform  type="rotate" fill="remove" dur="5s" to="360 640 400" from="0 640 400" restart="always" calcMode="linear" additive="replace" accumulate="none" attributeType="XML" attributeName="transform" repeatCount="indefinite">
		</animateTransform>
</path>
<path id="Layer_3" fill="#008989" d="M355.445,391.265c0.021-0.667,0.04-1.333,0.067-2c6.131-155.158,137.35-276.4,292.509-270.268
	c155.156,6.132,276.398,137.35,270.267,292.508c-6.132,155.157-137.35,276.399-292.508,270.268l-0.479,12.109
	c39.619,1.563,78.361-4.678,115.154-18.554c35.534-13.399,67.759-33.322,95.775-59.209s50.419-56.438,66.583-90.805
	c16.736-35.583,26.016-73.714,27.582-113.331c1.564-39.62-4.678-78.364-18.554-115.155c-13.401-35.534-33.322-67.758-59.208-95.775
	c-25.888-28.016-56.438-50.418-90.806-66.583c-35.583-16.736-73.713-26.016-113.332-27.582
	c-39.618-1.565-78.362,4.676-115.154,18.552c-35.534,13.401-67.758,33.323-95.775,59.209
	c-28.018,25.889-50.418,56.438-66.583,90.806c-16.736,35.581-26.017,73.713-27.581,113.331c-0.026,0.668-0.033,1.333-0.055,2.001
	L355.445,391.265z">
<animateTransform  type="rotate" fill="remove" dur="10s" to="0 640 400" from="360 640 400" restart="always" calcMode="linear" additive="replace" accumulate="none" attributeType="XML" attributeName="transform" repeatCount="indefinite">
		</animateTransform>
</path>
<path id="Layer_2" fill="#00C5C5" d="M697.488,146.523c0.65,0.156,1.301,0.295,1.951,0.455
	c139.729,34.484,225.352,176.217,190.865,315.945C855.82,602.652,714.089,688.273,574.36,653.789
	c-139.729-34.484-225.35-176.218-190.866-315.944l-7.059-1.742c-17.171,69.573-6.222,141.667,30.834,203.003
	c37.053,61.337,95.776,104.572,165.349,121.741c69.571,17.172,141.667,6.221,203.003-30.834
	c61.338-37.054,104.572-95.775,121.742-165.35c17.171-69.571,6.221-141.667-30.833-203.002
	c-37.055-61.335-95.775-104.571-165.349-121.742c-0.65-0.161-1.301-0.3-1.951-0.456L697.488,146.523z">
<animateTransform  type="rotate" fill="remove" dur="15s" to="360 640 400" from="0 640 400" restart="always" calcMode="linear" additive="replace" accumulate="none" attributeType="XML" attributeName="transform" repeatCount="indefinite">
		</animateTransform>
</path>
<path id="Layer_1_1_" fill="#00C5C5" d="M591.633,619.295c-0.654-0.136-1.31-0.258-1.963-0.397
	c-120.488-26.044-197.325-145.255-171.282-265.743C444.429,232.667,563.641,155.83,684.13,181.872
	c120.486,26.042,197.325,145.255,171.282,265.742l25.932,5.604c7.131-32.994,7.586-66.405,1.352-99.306
	c-6.021-31.771-17.994-61.721-35.589-89.017c-17.592-27.298-39.924-50.569-66.373-69.174c-27.388-19.266-58.005-32.65-90.999-39.782
	c-32.993-7.131-66.403-7.586-99.305-1.352c-31.771,6.021-61.721,17.994-89.018,35.588c-27.295,17.593-50.569,39.924-69.174,66.373
	c-19.266,27.388-32.65,58.005-39.782,90.999s-7.586,66.404-1.352,99.306c6.021,31.77,17.995,61.721,35.588,89.017
	c17.593,27.295,39.925,50.57,66.373,69.175c27.39,19.266,58.005,32.649,91,39.78c0.653,0.143,1.308,0.264,1.961,0.399
	L591.633,619.295z">
<animateTransform  type="rotate" fill="remove" dur="7s" to="0 640 400" from="360 640 400" restart="always" calcMode="linear" additive="replace" accumulate="none" attributeType="XML" attributeName="transform" repeatCount="indefinite">
		</animateTransform>
</path>
</svg>
