<?xml version="1.0" encoding="utf-8"?>
<!-- Generator: Adobe Illustrator 16.0.0, SVG Export Plug-In . SVG Version: 6.00 Build 0)  -->
<!DOCTYPE svg PUBLIC "-//W3C//DTD SVG 1.1//EN" "http://www.w3.org/Graphics/SVG/1.1/DTD/svg11.dtd">
<svg version="1.1" id="Layer_1" xmlns="http://www.w3.org/2000/svg" xmlns:xlink="http://www.w3.org/1999/xlink" x="0px" y="0px"
	 width="116.313px" height="19.053px" viewBox="0 0 116.313 19.053" enable-background="new 0 0 116.313 19.053"
	 xml:space="preserve">
<g>
	<g id="Curriculum">
		<g>
			<polygon fill="#2D2E3F" points="5.818,18.521 0.623,9.521 5.818,0.521 110.546,0.521 115.742,9.521 110.546,18.521 			"/>
			<path fill="#00B7AE" d="M110.835,19.021H5.529l-5.483-9.5l5.483-9.5h105.306l5.484,9.5L110.835,19.021z M6.106,18.021h104.151
				l4.908-8.5l-4.908-8.5H6.106L1.2,9.521L6.106,18.021z"/>
		</g>
		<g enable-background="new    ">
			<path fill="#00B7AE" d="M30.861,14.877c-0.402,0-0.756-0.055-1.061-0.164s-0.554-0.258-0.747-0.445s-0.352-0.421-0.475-0.7
				s-0.208-0.573-0.255-0.882s-0.07-0.654-0.07-1.037V8.215c0-0.41,0.024-0.775,0.073-1.096S28.46,6.5,28.581,6.222
				s0.279-0.506,0.475-0.686s0.444-0.32,0.747-0.422s0.655-0.152,1.058-0.152c0.875,0,1.502,0.236,1.881,0.709
				S33.31,6.84,33.31,7.758v0.773h-1.283V7.845c0-0.148-0.001-0.265-0.003-0.349s-0.006-0.188-0.012-0.313S31.995,6.961,31.98,6.89
				s-0.036-0.152-0.062-0.246s-0.058-0.167-0.097-0.22s-0.088-0.109-0.146-0.17S31.55,6.149,31.476,6.12s-0.162-0.054-0.264-0.073
				s-0.215-0.029-0.34-0.029c-0.188,0-0.352,0.021-0.492,0.062s-0.256,0.105-0.346,0.193s-0.163,0.185-0.22,0.29
				s-0.099,0.241-0.126,0.407s-0.046,0.326-0.056,0.48s-0.015,0.345-0.015,0.571v3.844c0,0.73,0.092,1.238,0.275,1.523
				s0.51,0.428,0.979,0.428c0.18,0,0.335-0.02,0.466-0.059s0.238-0.104,0.322-0.193s0.151-0.184,0.202-0.281
				s0.088-0.229,0.111-0.396s0.038-0.319,0.044-0.46s0.009-0.324,0.009-0.551v-0.715h1.283v0.721c0,0.371-0.023,0.703-0.07,0.996
				s-0.127,0.567-0.24,0.823s-0.262,0.468-0.445,0.636s-0.418,0.3-0.703,0.396S31.236,14.877,30.861,14.877z"/>
			<path fill="#00B7AE" d="M38.191,14.716c-0.305,0.107-0.664,0.161-1.078,0.161s-0.774-0.054-1.081-0.161s-0.556-0.254-0.747-0.439
				s-0.345-0.424-0.46-0.715s-0.194-0.6-0.237-0.926s-0.064-0.706-0.064-1.14V5.056h1.289v6.504c0,0.277,0.008,0.518,0.023,0.721
				s0.051,0.407,0.105,0.612s0.128,0.37,0.22,0.495s0.218,0.228,0.378,0.308s0.352,0.12,0.574,0.12s0.413-0.04,0.571-0.12
				s0.283-0.184,0.375-0.311s0.165-0.292,0.22-0.495s0.09-0.406,0.105-0.609s0.023-0.443,0.023-0.721V5.056h1.289v6.439
				c0,0.434-0.021,0.813-0.064,1.14s-0.122,0.635-0.237,0.926s-0.269,0.529-0.46,0.715S38.495,14.608,38.191,14.716z"/>
			<path fill="#00B7AE" d="M41.132,14.771V5.056h1.951c0.984,0,1.706,0.201,2.165,0.604s0.688,1.059,0.688,1.969
				c0,1.25-0.4,2.006-1.201,2.268l1.389,4.875h-1.313l-1.277-4.559h-1.049v4.559H41.132z M42.486,9.24h0.51
				c0.59,0,1.011-0.116,1.263-0.349s0.378-0.653,0.378-1.263c0-0.59-0.108-1.004-0.325-1.242s-0.626-0.357-1.228-0.357h-0.598V9.24z
				"/>
			<path fill="#00B7AE" d="M47.361,14.771V5.056h1.951c0.984,0,1.706,0.201,2.165,0.604s0.688,1.059,0.688,1.969
				c0,1.25-0.4,2.006-1.201,2.268l1.389,4.875H51.04l-1.277-4.559h-1.049v4.559H47.361z M48.714,9.24h0.51
				c0.59,0,1.011-0.116,1.263-0.349s0.378-0.653,0.378-1.263c0-0.59-0.108-1.004-0.325-1.242s-0.626-0.357-1.228-0.357h-0.598V9.24z
				"/>
			<path fill="#00B7AE" d="M53.654,14.771V5.056h1.33v9.715H53.654z"/>
			<path fill="#00B7AE" d="M58.986,14.877c-0.402,0-0.756-0.055-1.061-0.164s-0.554-0.258-0.747-0.445s-0.352-0.421-0.475-0.7
				s-0.208-0.573-0.255-0.882s-0.07-0.654-0.07-1.037V8.215c0-0.41,0.024-0.775,0.073-1.096s0.134-0.619,0.255-0.896
				s0.279-0.506,0.475-0.686s0.444-0.32,0.747-0.422s0.655-0.152,1.058-0.152c0.875,0,1.502,0.236,1.881,0.709
				s0.568,1.168,0.568,2.086v0.773h-1.283V7.845c0-0.148-0.001-0.265-0.003-0.349s-0.006-0.188-0.012-0.313S60.12,6.961,60.105,6.89
				s-0.036-0.152-0.062-0.246s-0.058-0.167-0.097-0.22s-0.088-0.109-0.146-0.17s-0.125-0.105-0.199-0.135s-0.162-0.054-0.264-0.073
				s-0.215-0.029-0.34-0.029c-0.188,0-0.352,0.021-0.492,0.062s-0.256,0.105-0.346,0.193s-0.163,0.185-0.22,0.29
				s-0.099,0.241-0.126,0.407s-0.046,0.326-0.056,0.48s-0.015,0.345-0.015,0.571v3.844c0,0.73,0.092,1.238,0.275,1.523
				s0.51,0.428,0.979,0.428c0.18,0,0.335-0.02,0.466-0.059s0.238-0.104,0.322-0.193s0.151-0.184,0.202-0.281
				s0.088-0.229,0.111-0.396s0.038-0.319,0.044-0.46s0.009-0.324,0.009-0.551v-0.715h1.283v0.721c0,0.371-0.023,0.703-0.07,0.996
				s-0.127,0.567-0.24,0.823s-0.262,0.468-0.445,0.636s-0.418,0.3-0.703,0.396S59.361,14.877,58.986,14.877z"/>
			<path fill="#00B7AE" d="M66.316,14.716c-0.305,0.107-0.664,0.161-1.078,0.161s-0.774-0.054-1.081-0.161s-0.556-0.254-0.747-0.439
				s-0.345-0.424-0.46-0.715s-0.194-0.6-0.237-0.926s-0.064-0.706-0.064-1.14V5.056h1.289v6.504c0,0.277,0.008,0.518,0.023,0.721
				s0.051,0.407,0.105,0.612s0.128,0.37,0.22,0.495s0.218,0.228,0.378,0.308s0.352,0.12,0.574,0.12s0.413-0.04,0.571-0.12
				s0.283-0.184,0.375-0.311s0.165-0.292,0.22-0.495s0.09-0.406,0.105-0.609s0.023-0.443,0.023-0.721V5.056h1.289v6.439
				c0,0.434-0.021,0.813-0.064,1.14s-0.122,0.635-0.237,0.926s-0.269,0.529-0.46,0.715S66.62,14.608,66.316,14.716z"/>
			<path fill="#00B7AE" d="M69.257,14.771V5.056h1.354v8.742h2.479v0.973H69.257z"/>
			<path fill="#00B7AE" d="M77.601,14.716c-0.305,0.107-0.664,0.161-1.078,0.161s-0.774-0.054-1.081-0.161s-0.556-0.254-0.747-0.439
				s-0.345-0.424-0.46-0.715s-0.194-0.6-0.237-0.926s-0.064-0.706-0.064-1.14V5.056h1.289v6.504c0,0.277,0.008,0.518,0.023,0.721
				s0.051,0.407,0.105,0.612s0.128,0.37,0.22,0.495s0.218,0.228,0.378,0.308s0.352,0.12,0.574,0.12s0.413-0.04,0.571-0.12
				s0.283-0.184,0.375-0.311s0.165-0.292,0.22-0.495s0.09-0.406,0.105-0.609s0.023-0.443,0.023-0.721V5.056h1.289v6.439
				c0,0.434-0.021,0.813-0.064,1.14s-0.122,0.635-0.237,0.926s-0.269,0.529-0.46,0.715S77.906,14.608,77.601,14.716z"/>
			<path fill="#00B7AE" d="M80.513,14.771l0.182-9.715h1.324l1.717,7.881l1.729-7.881h1.324l0.182,9.715h-1.096l-0.105-7.061
				l-1.646,7.061h-0.762l-1.635-7.061l-0.105,7.061H80.513z"/>
		</g>
	</g>
</g>
</svg>
