<?xml version="1.0" encoding="utf-8"?>
<!-- Generator: Adobe Illustrator 16.0.0, SVG Export Plug-In . SVG Version: 6.00 Build 0)  -->
<!DOCTYPE svg PUBLIC "-//W3C//DTD SVG 1.1//EN" "http://www.w3.org/Graphics/SVG/1.1/DTD/svg11.dtd">
<svg version="1.1" id="Layer_1" xmlns="http://www.w3.org/2000/svg" xmlns:xlink="http://www.w3.org/1999/xlink" x="0px" y="0px"
	 width="116.313px" height="19.053px" viewBox="0 0 116.313 19.053" enable-background="new 0 0 116.313 19.053"
	 xml:space="preserve">
<g id="Login">
	<g>
		<polygon fill="#00B7AE" points="5.818,18.521 0.623,9.521 5.818,0.521 110.546,0.521 115.742,9.521 110.546,18.521 		"/>
		<path fill="#005A56" d="M110.835,19.021H5.529l-5.482-9.5l5.482-9.5h105.307l5.483,9.5L110.835,19.021z M6.106,18.021h104.151
			l4.908-8.5l-4.908-8.5H6.106L1.2,9.521L6.106,18.021z"/>
	</g>
	<g enable-background="new    ">
		<path fill="#005A56" d="M44.969,13.771V4.056h1.354v8.742h2.479v0.973H44.969z"/>
		<path fill="#005A56" d="M52.123,13.877c-0.484,0-0.899-0.072-1.245-0.217c-0.346-0.146-0.62-0.357-0.823-0.64
			s-0.352-0.608-0.445-0.983c-0.093-0.375-0.141-0.813-0.141-1.313v-3.68c0-1.013,0.206-1.778,0.618-2.3
			c0.412-0.522,1.091-0.782,2.036-0.782c0.94,0,1.619,0.263,2.032,0.788c0.414,0.524,0.621,1.29,0.621,2.294v3.686
			c0,1.013-0.208,1.789-0.624,2.332S53.061,13.877,52.123,13.877z M51.464,12.693c0.174,0.082,0.394,0.123,0.659,0.123
			c0.265,0,0.484-0.041,0.659-0.123c0.174-0.082,0.306-0.207,0.396-0.375s0.151-0.353,0.185-0.554
			c0.034-0.201,0.051-0.45,0.051-0.747V6.763c0-0.293-0.018-0.537-0.051-0.732c-0.032-0.194-0.095-0.375-0.185-0.538
			c-0.09-0.164-0.222-0.284-0.396-0.36c-0.175-0.076-0.395-0.114-0.659-0.114c-0.266,0-0.485,0.038-0.659,0.114
			s-0.306,0.196-0.396,0.36c-0.09,0.163-0.15,0.344-0.185,0.538c-0.034,0.195-0.05,0.439-0.05,0.732v4.254
			c0,0.297,0.017,0.546,0.05,0.747s0.095,0.386,0.185,0.554C51.158,12.486,51.29,12.611,51.464,12.693z"/>
		<path fill="#005A56" d="M58.434,13.888c-0.883,0-1.52-0.278-1.91-0.835c-0.39-0.557-0.586-1.38-0.586-2.47V7.332
			c0-0.445,0.024-0.836,0.073-1.172c0.049-0.337,0.133-0.646,0.252-0.933s0.276-0.518,0.472-0.697
			c0.196-0.179,0.443-0.318,0.744-0.419c0.301-0.1,0.654-0.148,1.062-0.148c0.897,0,1.545,0.229,1.938,0.686
			c0.395,0.457,0.592,1.177,0.592,2.156v0.357H59.8V6.857c0-0.272-0.008-0.499-0.023-0.677c-0.015-0.178-0.048-0.347-0.097-0.507
			s-0.119-0.284-0.211-0.372s-0.212-0.157-0.36-0.208c-0.147-0.051-0.332-0.076-0.551-0.076c-0.168,0-0.315,0.02-0.445,0.056
			c-0.129,0.037-0.237,0.087-0.327,0.146c-0.091,0.06-0.165,0.145-0.227,0.252c-0.061,0.107-0.107,0.213-0.144,0.316
			c-0.036,0.103-0.063,0.235-0.082,0.397c-0.02,0.162-0.031,0.311-0.035,0.442s-0.006,0.299-0.006,0.498v3.598
			c0,0.746,0.09,1.281,0.27,1.605c0.181,0.323,0.523,0.485,1.031,0.485s0.854-0.176,1.043-0.526
			c0.188-0.352,0.281-0.916,0.281-1.693v-0.68h-1.23V8.955h2.461v4.815h-0.86l-0.129-1.119
			C59.864,13.476,59.289,13.888,58.434,13.888z"/>
		<path fill="#005A56" d="M62.606,13.771V4.056h1.33v9.715H62.606z"/>
		<path fill="#005A56" d="M65.512,13.771V4.056h0.92l2.76,6.451V4.056h1.131v9.715h-0.866l-2.802-6.639v6.639H65.512z"/>
	</g>
</g>
</svg>
