<?xml version="1.0" encoding="utf-8"?>
<!-- Generator: Adobe Illustrator 16.0.0, SVG Export Plug-In . SVG Version: 6.00 Build 0)  -->
<!DOCTYPE svg PUBLIC "-//W3C//DTD SVG 1.1//EN" "http://www.w3.org/Graphics/SVG/1.1/DTD/svg11.dtd">
<svg version="1.1" id="Layer_1" xmlns="http://www.w3.org/2000/svg" xmlns:xlink="http://www.w3.org/1999/xlink" x="0px" y="0px"
	 width="116.313px" height="19.053px" viewBox="0 0 116.313 19.053" enable-background="new 0 0 116.313 19.053"
	 xml:space="preserve">
<g>
	<g id="SignUp">
		<g>
			<polygon fill="#005A56" points="5.818,18.521 0.623,9.521 5.818,0.521 110.546,0.521 115.742,9.521 110.546,18.521 			"/>
			<path fill="#00B7AE" d="M110.835,19.021H5.529l-5.483-9.5l5.483-9.5h105.306l5.484,9.5L110.835,19.021z M6.106,18.021h104.151
				l4.908-8.5l-4.908-8.5H6.106L1.2,9.521L6.106,18.021z"/>
		</g>
		<g enable-background="new    ">
			<path fill="#00B7AE" d="M42.52,13.877c-0.816,0-1.438-0.252-1.866-0.756s-0.667-1.193-0.718-2.068l1.207-0.328
				c0.086,1.391,0.545,2.086,1.377,2.086c0.348,0,0.612-0.097,0.794-0.29s0.272-0.478,0.272-0.853c0-0.207-0.024-0.396-0.073-0.568
				s-0.129-0.336-0.24-0.492s-0.217-0.286-0.316-0.39s-0.241-0.241-0.425-0.413l-1.629-1.447c-0.328-0.297-0.567-0.61-0.718-0.94
				s-0.226-0.733-0.226-1.21c0-0.703,0.204-1.251,0.612-1.644s0.966-0.593,1.673-0.601c0.777-0.012,1.359,0.188,1.746,0.601
				s0.619,1.05,0.697,1.913l-1.143,0.316c-0.016-0.211-0.037-0.398-0.064-0.563s-0.072-0.329-0.135-0.495s-0.139-0.301-0.229-0.404
				s-0.209-0.186-0.357-0.246S42.44,5,42.244,5.011c-0.715,0.051-1.072,0.406-1.072,1.066c0,0.285,0.049,0.523,0.146,0.715
				s0.262,0.393,0.492,0.604l1.641,1.447c0.426,0.383,0.765,0.793,1.017,1.23s0.378,0.934,0.378,1.488
				c0,0.711-0.215,1.274-0.645,1.69S43.211,13.877,42.52,13.877z"/>
			<path fill="#00B7AE" d="M45.977,13.771V4.056h1.33v9.715H45.977z"/>
			<path fill="#00B7AE" d="M51.198,13.888c-0.883,0-1.52-0.278-1.91-0.835s-0.586-1.38-0.586-2.47V7.332
				c0-0.445,0.024-0.836,0.073-1.172s0.133-0.646,0.252-0.932s0.276-0.518,0.472-0.697s0.443-0.319,0.744-0.419
				s0.654-0.149,1.061-0.149c0.898,0,1.545,0.229,1.939,0.686s0.592,1.176,0.592,2.156v0.357h-1.271V6.857
				c0-0.273-0.008-0.499-0.023-0.677s-0.048-0.347-0.097-0.507s-0.119-0.284-0.211-0.372s-0.212-0.157-0.36-0.208
				s-0.332-0.076-0.551-0.076c-0.168,0-0.316,0.019-0.445,0.056s-0.238,0.086-0.328,0.146s-0.165,0.145-0.226,0.252
				s-0.108,0.213-0.144,0.316s-0.063,0.236-0.082,0.398s-0.031,0.31-0.035,0.442s-0.006,0.299-0.006,0.498v3.598
				c0,0.746,0.09,1.281,0.27,1.605s0.523,0.486,1.031,0.486s0.855-0.176,1.043-0.527s0.281-0.916,0.281-1.693v-0.68h-1.23V8.955
				h2.461v4.816h-0.861l-0.129-1.119C52.627,13.476,52.053,13.888,51.198,13.888z"/>
			<path fill="#00B7AE" d="M55.305,13.771V4.056h0.92l2.76,6.451V4.056h1.131v9.715h-0.867l-2.801-6.639v6.639H55.305z"/>
			<path fill="#00B7AE" d="M67.961,13.716c-0.305,0.107-0.664,0.161-1.078,0.161s-0.774-0.054-1.081-0.161s-0.556-0.254-0.747-0.439
				s-0.345-0.424-0.46-0.715s-0.194-0.6-0.237-0.926s-0.064-0.706-0.064-1.14V4.056h1.289v6.504c0,0.277,0.008,0.518,0.023,0.721
				s0.051,0.407,0.105,0.612s0.128,0.37,0.22,0.495s0.218,0.228,0.378,0.308s0.352,0.12,0.574,0.12s0.413-0.04,0.571-0.12
				s0.283-0.184,0.375-0.311s0.165-0.292,0.22-0.495s0.09-0.406,0.105-0.609s0.023-0.443,0.023-0.721V4.056h1.289v6.439
				c0,0.434-0.021,0.813-0.064,1.14s-0.122,0.635-0.237,0.926s-0.269,0.529-0.46,0.715S68.266,13.608,67.961,13.716z"/>
			<path fill="#00B7AE" d="M70.903,13.771V4.056h2.408c0.844,0,1.455,0.228,1.834,0.683s0.568,1.122,0.568,2.001
				c0,0.789-0.204,1.404-0.612,1.846s-1.003,0.662-1.784,0.662h-1.061v4.523H70.903z M72.256,8.275h0.615
				c0.594,0,1.002-0.105,1.225-0.316s0.334-0.615,0.334-1.213c0-0.246-0.006-0.448-0.018-0.606s-0.038-0.308-0.079-0.448
				s-0.095-0.249-0.161-0.325s-0.159-0.142-0.278-0.196s-0.258-0.092-0.416-0.111s-0.354-0.029-0.589-0.029h-0.633V8.275z"/>
		</g>
	</g>
</g>
</svg>
