<?xml version="1.0" encoding="utf-8"?>
<!-- Generator: Adobe Illustrator 16.0.0, SVG Export Plug-In . SVG Version: 6.00 Build 0)  -->
<!DOCTYPE svg PUBLIC "-//W3C//DTD SVG 1.1//EN" "http://www.w3.org/Graphics/SVG/1.1/DTD/svg11.dtd">
<svg version="1.1" id="Layer_1" xmlns="http://www.w3.org/2000/svg" xmlns:xlink="http://www.w3.org/1999/xlink" x="0px" y="0px"
	 width="116.313px" height="19.053px" viewBox="0 0 116.313 19.053" enable-background="new 0 0 116.313 19.053"
	 xml:space="preserve">
<g>
	<g id="Login">
		<g>
			<polygon fill="#005A56" points="5.818,18.521 0.623,9.521 5.818,0.521 110.546,0.521 115.742,9.521 110.546,18.521 			"/>
			<path fill="#00B7AE" d="M110.835,19.021H5.529l-5.483-9.5l5.483-9.5h105.306l5.484,9.5L110.835,19.021z M6.106,18.021h104.151
				l4.908-8.5l-4.908-8.5H6.106L1.2,9.521L6.106,18.021z"/>
		</g>
		<g enable-background="new    ">
			<path fill="#00B7AE" d="M44.969,13.771V4.056h1.354v8.742h2.479v0.973H44.969z"/>
			<path fill="#00B7AE" d="M52.123,13.877c-0.484,0-0.899-0.072-1.245-0.217s-0.62-0.357-0.823-0.639s-0.352-0.609-0.445-0.984
				s-0.141-0.813-0.141-1.313v-3.68c0-1.012,0.206-1.778,0.618-2.3s1.091-0.782,2.036-0.782c0.941,0,1.619,0.263,2.033,0.788
				s0.621,1.29,0.621,2.294v3.686c0,1.012-0.208,1.789-0.624,2.332S53.061,13.877,52.123,13.877z M51.464,12.693
				c0.174,0.082,0.394,0.123,0.659,0.123s0.485-0.041,0.659-0.123s0.306-0.207,0.396-0.375s0.151-0.353,0.185-0.554
				s0.05-0.45,0.05-0.747V6.763c0-0.293-0.017-0.537-0.05-0.732s-0.095-0.375-0.185-0.539s-0.222-0.284-0.396-0.36
				s-0.394-0.114-0.659-0.114s-0.485,0.038-0.659,0.114s-0.306,0.196-0.396,0.36s-0.151,0.344-0.185,0.539s-0.05,0.439-0.05,0.732
				v4.254c0,0.297,0.017,0.546,0.05,0.747s0.095,0.386,0.185,0.554S51.29,12.611,51.464,12.693z"/>
			<path fill="#00B7AE" d="M58.434,13.888c-0.883,0-1.52-0.278-1.91-0.835s-0.586-1.38-0.586-2.47V7.332
				c0-0.445,0.024-0.836,0.073-1.172s0.133-0.646,0.252-0.932s0.276-0.518,0.472-0.697s0.443-0.319,0.744-0.419
				s0.654-0.149,1.061-0.149c0.898,0,1.545,0.229,1.939,0.686s0.592,1.176,0.592,2.156v0.357h-1.271V6.857
				c0-0.273-0.008-0.499-0.023-0.677s-0.048-0.347-0.097-0.507s-0.119-0.284-0.211-0.372s-0.212-0.157-0.36-0.208
				s-0.332-0.076-0.551-0.076c-0.168,0-0.316,0.019-0.445,0.056s-0.238,0.086-0.328,0.146s-0.165,0.145-0.226,0.252
				s-0.108,0.213-0.144,0.316s-0.063,0.236-0.082,0.398s-0.031,0.31-0.035,0.442s-0.006,0.299-0.006,0.498v3.598
				c0,0.746,0.09,1.281,0.27,1.605s0.523,0.486,1.031,0.486s0.855-0.176,1.043-0.527s0.281-0.916,0.281-1.693v-0.68h-1.23V8.955
				h2.461v4.816h-0.861l-0.129-1.119C59.864,13.476,59.289,13.888,58.434,13.888z"/>
			<path fill="#00B7AE" d="M62.606,13.771V4.056h1.33v9.715H62.606z"/>
			<path fill="#00B7AE" d="M65.512,13.771V4.056h0.92l2.76,6.451V4.056h1.131v9.715h-0.867l-2.801-6.639v6.639H65.512z"/>
		</g>
	</g>
</g>
</svg>
