<?xml version="1.0" encoding="utf-8"?>
<!-- Generator: Adobe Illustrator 16.0.0, SVG Export Plug-In . SVG Version: 6.00 Build 0)  -->
<!DOCTYPE svg PUBLIC "-//W3C//DTD SVG 1.1//EN" "http://www.w3.org/Graphics/SVG/1.1/DTD/svg11.dtd">
<svg version="1.1" id="Layer_1" xmlns="http://www.w3.org/2000/svg" xmlns:xlink="http://www.w3.org/1999/xlink" x="0px" y="0px"
	 width="116.313px" height="19.053px" viewBox="0 0 116.313 19.053" enable-background="new 0 0 116.313 19.053"
	 xml:space="preserve">
<g>
	<g id="Job">
		<g>
			<polygon fill="#2D2E3F" points="5.818,18.521 0.623,9.521 5.818,0.521 110.546,0.521 115.742,9.521 110.546,18.521 			"/>
			<path fill="#00B7AE" d="M110.835,19.021H5.529l-5.483-9.5l5.483-9.5h105.306l5.484,9.5L110.835,19.021z M6.106,18.021h104.151
				l4.908-8.5l-4.908-8.5H6.106L1.2,9.521L6.106,18.021z"/>
		</g>
		<g enable-background="new    ">
			<path fill="#00B7AE" d="M13.384,15v-0.973c0.309,0,0.549-0.019,0.721-0.056s0.313-0.112,0.422-0.226s0.182-0.26,0.217-0.439
				s0.053-0.43,0.053-0.75v-7.5h1.354v7.523c0,0.434-0.032,0.795-0.097,1.084s-0.176,0.537-0.334,0.744s-0.375,0.357-0.65,0.451
				S14.447,15,14.029,15H13.384z"/>
			<path fill="#00B7AE" d="M20.152,14.877c-0.484,0-0.899-0.072-1.245-0.217s-0.62-0.357-0.823-0.639s-0.352-0.609-0.445-0.984
				s-0.141-0.813-0.141-1.313v-3.68c0-1.012,0.206-1.778,0.618-2.3s1.091-0.782,2.036-0.782c0.941,0,1.619,0.263,2.033,0.788
				s0.621,1.29,0.621,2.294v3.686c0,1.012-0.208,1.789-0.624,2.332S21.089,14.877,20.152,14.877z M19.492,13.693
				c0.174,0.082,0.394,0.123,0.659,0.123s0.485-0.041,0.659-0.123s0.306-0.207,0.396-0.375s0.151-0.353,0.185-0.554
				s0.05-0.45,0.05-0.747V7.763c0-0.293-0.017-0.537-0.05-0.732s-0.095-0.375-0.185-0.539s-0.222-0.284-0.396-0.36
				s-0.394-0.114-0.659-0.114s-0.485,0.038-0.659,0.114s-0.306,0.196-0.396,0.36s-0.151,0.344-0.185,0.539s-0.05,0.439-0.05,0.732
				v4.254c0,0.297,0.017,0.546,0.05,0.747s0.095,0.386,0.185,0.554S19.319,13.611,19.492,13.693z"/>
			<path fill="#00B7AE" d="M24.148,14.771V5.056h2.221c0.883,0,1.537,0.197,1.963,0.592s0.639,1.008,0.639,1.84
				c0,1.238-0.465,1.922-1.395,2.051c0.574,0.141,0.993,0.411,1.257,0.812s0.396,0.948,0.396,1.644c0,0.875-0.205,1.557-0.615,2.045
				s-1.037,0.732-1.881,0.732H24.148z M25.501,9.111h0.797c0.559,0,0.946-0.124,1.163-0.372s0.325-0.665,0.325-1.251
				c0-0.191-0.014-0.358-0.041-0.501s-0.063-0.265-0.105-0.366s-0.108-0.187-0.196-0.255s-0.177-0.123-0.267-0.164
				s-0.212-0.072-0.366-0.094s-0.303-0.035-0.445-0.041s-0.325-0.009-0.548-0.009h-0.316V9.111z M25.501,13.799h0.914
				c0.586,0,0.986-0.138,1.201-0.413s0.322-0.739,0.322-1.392c0-0.621-0.128-1.085-0.384-1.392s-0.673-0.46-1.251-0.46h-0.803
				V13.799z"/>
			<path fill="#00B7AE" d="M35.65,14.877c-0.484,0-0.899-0.072-1.245-0.217s-0.62-0.357-0.823-0.639s-0.352-0.609-0.445-0.984
				s-0.141-0.813-0.141-1.313v-3.68c0-1.012,0.206-1.778,0.618-2.3s1.091-0.782,2.036-0.782c0.941,0,1.619,0.263,2.033,0.788
				s0.621,1.29,0.621,2.294v3.686c0,1.012-0.208,1.789-0.624,2.332S36.587,14.877,35.65,14.877z M34.99,13.693
				c0.174,0.082,0.394,0.123,0.659,0.123s0.485-0.041,0.659-0.123s0.306-0.207,0.396-0.375s0.151-0.353,0.185-0.554
				s0.05-0.45,0.05-0.747V7.763c0-0.293-0.017-0.537-0.05-0.732s-0.095-0.375-0.185-0.539s-0.222-0.284-0.396-0.36
				s-0.394-0.114-0.659-0.114s-0.485,0.038-0.659,0.114s-0.306,0.196-0.396,0.36s-0.151,0.344-0.185,0.539s-0.05,0.439-0.05,0.732
				v4.254c0,0.297,0.017,0.546,0.05,0.747s0.095,0.386,0.185,0.554S34.817,13.611,34.99,13.693z"/>
			<path fill="#00B7AE" d="M39.646,14.771V5.056h2.408c0.844,0,1.455,0.228,1.834,0.683s0.568,1.122,0.568,2.001
				c0,0.789-0.204,1.404-0.612,1.846s-1.003,0.662-1.784,0.662h-1.061v4.523H39.646z M40.999,9.275h0.615
				c0.594,0,1.002-0.105,1.225-0.316s0.334-0.615,0.334-1.213c0-0.246-0.006-0.448-0.018-0.606s-0.038-0.308-0.079-0.448
				s-0.095-0.249-0.161-0.325s-0.159-0.142-0.278-0.196s-0.258-0.092-0.416-0.111s-0.354-0.029-0.589-0.029h-0.633V9.275z"/>
			<path fill="#00B7AE" d="M45.406,14.771V5.056h2.408c0.844,0,1.455,0.228,1.834,0.683s0.568,1.122,0.568,2.001
				c0,0.789-0.204,1.404-0.612,1.846s-1.003,0.662-1.784,0.662h-1.061v4.523H45.406z M46.759,9.275h0.615
				c0.594,0,1.002-0.105,1.225-0.316s0.334-0.615,0.334-1.213c0-0.246-0.006-0.448-0.018-0.606s-0.038-0.308-0.079-0.448
				s-0.095-0.249-0.161-0.325s-0.159-0.142-0.278-0.196s-0.258-0.092-0.416-0.111s-0.354-0.029-0.589-0.029h-0.633V9.275z"/>
			<path fill="#00B7AE" d="M53.638,14.877c-0.484,0-0.899-0.072-1.245-0.217s-0.62-0.357-0.823-0.639s-0.352-0.609-0.445-0.984
				s-0.141-0.813-0.141-1.313v-3.68c0-1.012,0.206-1.778,0.618-2.3s1.091-0.782,2.036-0.782c0.941,0,1.619,0.263,2.033,0.788
				s0.621,1.29,0.621,2.294v3.686c0,1.012-0.208,1.789-0.624,2.332S54.575,14.877,53.638,14.877z M52.979,13.693
				c0.174,0.082,0.394,0.123,0.659,0.123s0.485-0.041,0.659-0.123s0.306-0.207,0.396-0.375s0.151-0.353,0.185-0.554
				s0.05-0.45,0.05-0.747V7.763c0-0.293-0.017-0.537-0.05-0.732s-0.095-0.375-0.185-0.539s-0.222-0.284-0.396-0.36
				s-0.394-0.114-0.659-0.114s-0.485,0.038-0.659,0.114s-0.306,0.196-0.396,0.36s-0.151,0.344-0.185,0.539s-0.05,0.439-0.05,0.732
				v4.254c0,0.297,0.017,0.546,0.05,0.747s0.095,0.386,0.185,0.554S52.805,13.611,52.979,13.693z"/>
			<path fill="#00B7AE" d="M57.634,14.771V5.056h1.951c0.984,0,1.706,0.201,2.165,0.604s0.688,1.059,0.688,1.969
				c0,1.25-0.4,2.006-1.201,2.268l1.389,4.875h-1.313l-1.277-4.559h-1.049v4.559H57.634z M58.988,9.24h0.51
				c0.59,0,1.011-0.116,1.263-0.349s0.378-0.653,0.378-1.263c0-0.59-0.108-1.004-0.325-1.242s-0.626-0.357-1.228-0.357h-0.598V9.24z
				"/>
			<path fill="#00B7AE" d="M64.859,14.771V6.058h-1.775V5.056h4.84v1.002h-1.711v8.713H64.859z"/>
			<path fill="#00B7AE" d="M72.247,14.716c-0.305,0.107-0.664,0.161-1.078,0.161s-0.774-0.054-1.081-0.161s-0.556-0.254-0.747-0.439
				s-0.345-0.424-0.46-0.715s-0.194-0.6-0.237-0.926s-0.064-0.706-0.064-1.14V5.056h1.289v6.504c0,0.277,0.008,0.518,0.023,0.721
				s0.051,0.407,0.105,0.612s0.128,0.37,0.22,0.495s0.218,0.228,0.378,0.308s0.352,0.12,0.574,0.12s0.413-0.04,0.571-0.12
				s0.283-0.184,0.375-0.311s0.165-0.292,0.22-0.495s0.09-0.406,0.105-0.609s0.023-0.443,0.023-0.721V5.056h1.289v6.439
				c0,0.434-0.021,0.813-0.064,1.14s-0.122,0.635-0.237,0.926s-0.269,0.529-0.46,0.715S72.552,14.608,72.247,14.716z"/>
			<path fill="#00B7AE" d="M75.189,14.771V5.056h0.92l2.76,6.451V5.056h1.131v9.715h-0.867l-2.801-6.639v6.639H75.189z"/>
			<path fill="#00B7AE" d="M81.587,14.771V5.056h1.33v9.715H81.587z"/>
			<path fill="#00B7AE" d="M85.49,14.771V6.058h-1.775V5.056h4.84v1.002h-1.711v8.713H85.49z"/>
			<path fill="#00B7AE" d="M89.363,14.771V5.056h1.33v9.715H89.363z"/>
			<path fill="#00B7AE" d="M92.269,14.771V5.056h3.762v1.002h-2.408v3.211h1.957v0.967h-1.957v3.563h2.438v0.973H92.269z"/>
			<path fill="#00B7AE" d="M99.441,14.877c-0.816,0-1.438-0.252-1.866-0.756s-0.667-1.193-0.718-2.068l1.207-0.328
				c0.086,1.391,0.545,2.086,1.377,2.086c0.348,0,0.612-0.097,0.794-0.29s0.272-0.478,0.272-0.853c0-0.207-0.024-0.396-0.073-0.568
				s-0.129-0.336-0.24-0.492s-0.217-0.286-0.316-0.39s-0.241-0.241-0.425-0.413l-1.629-1.447c-0.328-0.297-0.567-0.61-0.718-0.94
				s-0.226-0.733-0.226-1.21c0-0.703,0.204-1.251,0.612-1.644s0.966-0.593,1.673-0.601c0.777-0.012,1.359,0.188,1.746,0.601
				s0.619,1.05,0.697,1.913l-1.143,0.316c-0.016-0.211-0.037-0.398-0.064-0.563s-0.072-0.329-0.135-0.495s-0.139-0.301-0.229-0.404
				s-0.209-0.186-0.357-0.246S99.361,6,99.165,6.011c-0.715,0.051-1.072,0.406-1.072,1.066c0,0.285,0.049,0.523,0.146,0.715
				s0.262,0.393,0.492,0.604l1.641,1.447c0.426,0.383,0.765,0.793,1.017,1.23s0.378,0.934,0.378,1.488
				c0,0.711-0.215,1.274-0.645,1.69S100.132,14.877,99.441,14.877z"/>
		</g>
	</g>
</g>
</svg>
