<?xml version="1.0" encoding="utf-8"?>
<!-- Generator: Adobe Illustrator 16.0.0, SVG Export Plug-In . SVG Version: 6.00 Build 0)  -->
<!DOCTYPE svg PUBLIC "-//W3C//DTD SVG 1.1//EN" "http://www.w3.org/Graphics/SVG/1.1/DTD/svg11.dtd">
<svg version="1.1" id="Layer_1" xmlns="http://www.w3.org/2000/svg" xmlns:xlink="http://www.w3.org/1999/xlink" x="0px" y="0px"
	 width="116.313px" height="19.052px" viewBox="0 0 116.313 19.052" enable-background="new 0 0 116.313 19.052"
	 xml:space="preserve">
<g id="Home_1_">
	<g>
		<polygon fill="#2D2E3F" points="5.819,19.021 0.623,10.021 5.819,1.021 110.546,1.021 115.742,10.021 110.546,19.021 		"/>
		<path fill="#00B7AE" d="M110.835,19.021H5.53l-5.485-9.5l5.485-9.5h105.305l5.484,9.5L110.835,19.021z M6.107,18.021h104.149
			l4.908-8.5l-4.908-8.5H6.107L1.2,9.521L6.107,18.021z"/>
	</g>
	<g>
		<path fill="#00B7AE" d="M38.325,14.771V5.056h2.408c0.844,0,1.455,0.228,1.834,0.683s0.568,1.122,0.568,2.001
			c0,0.789-0.204,1.404-0.612,1.846s-1.003,0.662-1.784,0.662h-1.061v4.523H38.325z M39.679,9.275h0.615
			c0.594,0,1.002-0.105,1.225-0.316s0.334-0.615,0.334-1.213c0-0.246-0.006-0.448-0.018-0.606s-0.038-0.308-0.079-0.448
			s-0.095-0.249-0.161-0.325s-0.159-0.142-0.278-0.196S41.059,6.078,40.9,6.058s-0.354-0.029-0.589-0.029h-0.633V9.275z"/>
		<path fill="#00B7AE" d="M44.085,14.771V5.056h1.951c0.984,0,1.706,0.201,2.165,0.604s0.688,1.059,0.688,1.969
			c0,1.25-0.4,2.006-1.201,2.268l1.389,4.875h-1.313l-1.277-4.559h-1.049v4.559H44.085z M45.438,9.24h0.51
			c0.59,0,1.011-0.116,1.263-0.349s0.378-0.653,0.378-1.263c0-0.59-0.108-1.004-0.325-1.242s-0.626-0.357-1.228-0.357h-0.598V9.24z"
			/>
		<path fill="#00B7AE" d="M50.313,14.771V5.056h3.762v1.002h-2.408v3.211h1.957v0.967h-1.957v3.563h2.438v0.973H50.313z"/>
		<path fill="#00B7AE" d="M55.2,14.771V5.056h1.354v8.742h2.479v0.973H55.2z"/>
		<path fill="#00B7AE" d="M62.354,14.876c-0.484,0-0.899-0.072-1.245-0.217s-0.62-0.357-0.823-0.639s-0.352-0.609-0.445-0.984
			S59.7,12.224,59.7,11.724v-3.68c0-1.012,0.206-1.778,0.618-2.3s1.091-0.782,2.036-0.782c0.941,0,1.619,0.263,2.033,0.788
			s0.621,1.29,0.621,2.294v3.686c0,1.012-0.208,1.789-0.624,2.332S63.292,14.876,62.354,14.876z M61.695,13.693
			c0.174,0.082,0.394,0.123,0.659,0.123s0.485-0.041,0.659-0.123s0.306-0.207,0.396-0.375s0.151-0.353,0.185-0.554
			s0.05-0.45,0.05-0.747V7.763c0-0.293-0.017-0.537-0.05-0.732s-0.095-0.375-0.185-0.539s-0.222-0.284-0.396-0.36
			s-0.394-0.114-0.659-0.114s-0.485,0.038-0.659,0.114S61.39,6.328,61.3,6.492s-0.151,0.344-0.185,0.539s-0.05,0.439-0.05,0.732
			v4.254c0,0.297,0.017,0.546,0.05,0.747s0.095,0.386,0.185,0.554S61.521,13.611,61.695,13.693z"/>
		<path fill="#00B7AE" d="M65.812,14.771l2.074-9.715h1.307l2.074,9.715h-1.289l-0.445-2.449h-1.975l-0.463,2.449H65.812z
			 M67.733,11.355h1.623l-0.814-4.389L67.733,11.355z"/>
		<path fill="#00B7AE" d="M72.251,14.771V5.056h2.109c1.051,0,1.792,0.238,2.224,0.715s0.647,1.227,0.647,2.25v3.574
			c0,1.066-0.214,1.862-0.642,2.388s-1.138,0.788-2.13,0.788H72.251z M73.604,13.798h0.762c0.207,0,0.39-0.021,0.548-0.062
			s0.29-0.09,0.396-0.146s0.194-0.147,0.267-0.272s0.127-0.24,0.164-0.346s0.065-0.262,0.085-0.469s0.031-0.384,0.035-0.53
			s0.006-0.358,0.006-0.636V8.179c0-0.234-0.004-0.432-0.012-0.592s-0.023-0.32-0.047-0.48s-0.059-0.291-0.105-0.393
			s-0.107-0.198-0.182-0.29s-0.166-0.162-0.275-0.211s-0.238-0.087-0.387-0.114s-0.322-0.041-0.521-0.041h-0.732V13.798z"/>
	</g>
</g>
</svg>
