<?xml version="1.0" encoding="utf-8"?>
<!-- Generator: Adobe Illustrator 16.0.0, SVG Export Plug-In . SVG Version: 6.00 Build 0)  -->
<!DOCTYPE svg PUBLIC "-//W3C//DTD SVG 1.1//EN" "http://www.w3.org/Graphics/SVG/1.1/DTD/svg11.dtd">
<svg version="1.1" id="Layer_1" xmlns="http://www.w3.org/2000/svg" xmlns:xlink="http://www.w3.org/1999/xlink" x="0px" y="0px"
	 width="116.313px" height="19.053px" viewBox="0 0 116.313 19.053" enable-background="new 0 0 116.313 19.053"
	 xml:space="preserve">
<g>
	<g id="About">
		<g>
			<polygon fill="#2D2E3F" points="5.818,18.521 0.623,9.521 5.818,0.521 110.546,0.521 115.742,9.521 110.546,18.521 			"/>
			<path fill="#00B7AE" d="M110.835,19.021H5.529l-5.483-9.5l5.483-9.5h105.306l5.484,9.5L110.835,19.021z M6.106,18.021h104.151
				l4.908-8.5l-4.908-8.5H6.106L1.2,9.521L6.106,18.021z"/>
		</g>
		<g enable-background="new    ">
			<path fill="#00B7AE" d="M42.919,14.771l2.074-9.715H46.3l2.074,9.715h-1.289l-0.445-2.449h-1.975l-0.463,2.449H42.919z
				 M44.841,11.355h1.623L45.65,6.967L44.841,11.355z"/>
			<path fill="#00B7AE" d="M49.359,14.771V5.056h2.221c0.883,0,1.537,0.197,1.963,0.592s0.639,1.008,0.639,1.84
				c0,1.238-0.465,1.922-1.395,2.051c0.574,0.141,0.993,0.411,1.257,0.812s0.396,0.948,0.396,1.644c0,0.875-0.205,1.557-0.615,2.045
				s-1.037,0.732-1.881,0.732H49.359z M50.712,9.111h0.797c0.559,0,0.946-0.124,1.163-0.372s0.325-0.665,0.325-1.251
				c0-0.191-0.014-0.358-0.041-0.501s-0.063-0.265-0.105-0.366s-0.108-0.187-0.196-0.255s-0.177-0.123-0.267-0.164
				s-0.212-0.072-0.366-0.094s-0.303-0.035-0.445-0.041s-0.325-0.009-0.548-0.009h-0.316V9.111z M50.712,13.799h0.914
				c0.586,0,0.986-0.138,1.201-0.413s0.322-0.739,0.322-1.392c0-0.621-0.128-1.085-0.384-1.392s-0.673-0.46-1.251-0.46h-0.803
				V13.799z"/>
			<path fill="#00B7AE" d="M58.118,14.877c-0.484,0-0.899-0.072-1.245-0.217s-0.62-0.357-0.823-0.639s-0.352-0.609-0.445-0.984
				s-0.141-0.813-0.141-1.313v-3.68c0-1.012,0.206-1.778,0.618-2.3s1.091-0.782,2.036-0.782c0.941,0,1.619,0.263,2.033,0.788
				s0.621,1.29,0.621,2.294v3.686c0,1.012-0.208,1.789-0.624,2.332S59.056,14.877,58.118,14.877z M57.459,13.693
				c0.174,0.082,0.394,0.123,0.659,0.123s0.485-0.041,0.659-0.123s0.306-0.207,0.396-0.375s0.151-0.353,0.185-0.554
				s0.05-0.45,0.05-0.747V7.763c0-0.293-0.017-0.537-0.05-0.732s-0.095-0.375-0.185-0.539s-0.222-0.284-0.396-0.36
				s-0.394-0.114-0.659-0.114s-0.485,0.038-0.659,0.114s-0.306,0.196-0.396,0.36s-0.151,0.344-0.185,0.539s-0.05,0.439-0.05,0.732
				v4.254c0,0.297,0.017,0.546,0.05,0.747s0.095,0.386,0.185,0.554S57.285,13.611,57.459,13.693z"/>
			<path fill="#00B7AE" d="M65.695,14.716c-0.305,0.107-0.664,0.161-1.078,0.161s-0.774-0.054-1.081-0.161s-0.556-0.254-0.747-0.439
				s-0.345-0.424-0.46-0.715s-0.194-0.6-0.237-0.926s-0.064-0.706-0.064-1.14V5.056h1.289v6.504c0,0.277,0.008,0.518,0.023,0.721
				s0.051,0.407,0.105,0.612s0.128,0.37,0.22,0.495s0.218,0.228,0.378,0.308s0.352,0.12,0.574,0.12s0.413-0.04,0.571-0.12
				s0.283-0.184,0.375-0.311s0.165-0.292,0.22-0.495s0.09-0.406,0.105-0.609s0.023-0.443,0.023-0.721V5.056H67.2v6.439
				c0,0.434-0.021,0.813-0.064,1.14s-0.122,0.635-0.237,0.926s-0.269,0.529-0.46,0.715S65.999,14.608,65.695,14.716z"/>
			<path fill="#00B7AE" d="M69.632,14.771V6.058h-1.775V5.056h4.84v1.002h-1.711v8.713H69.632z"/>
		</g>
	</g>
</g>
</svg>
