<?xml version="1.0" encoding="utf-8"?>
<!-- Generator: Adobe Illustrator 16.0.0, SVG Export Plug-In . SVG Version: 6.00 Build 0)  -->
<!DOCTYPE svg PUBLIC "-//W3C//DTD SVG 1.1//EN" "http://www.w3.org/Graphics/SVG/1.1/DTD/svg11.dtd">
<svg version="1.1" id="Layer_1" xmlns="http://www.w3.org/2000/svg" xmlns:xlink="http://www.w3.org/1999/xlink" x="0px" y="0px"
	 width="116.313px" height="19.053px" viewBox="0 0 116.313 19.053" enable-background="new 0 0 116.313 19.053"
	 xml:space="preserve">
<g>
	<g id="Contact">
		<g>
			<polygon fill="#2D2E3F" points="5.818,18.521 0.623,9.521 5.818,0.521 110.546,0.521 115.742,9.521 110.546,18.521 			"/>
			<path fill="#00B7AE" d="M110.835,19.021H5.529l-5.483-9.5l5.483-9.5h105.306l5.484,9.5L110.835,19.021z M6.106,18.021h104.151
				l4.908-8.5l-4.908-8.5H6.106L1.2,9.521L6.106,18.021z"/>
		</g>
		<g enable-background="new    ">
			<path fill="#00B7AE" d="M33.073,14.877c-0.402,0-0.756-0.055-1.061-0.164s-0.554-0.258-0.747-0.445s-0.352-0.421-0.475-0.7
				s-0.208-0.573-0.255-0.882s-0.07-0.654-0.07-1.037V8.215c0-0.41,0.024-0.775,0.073-1.096s0.134-0.619,0.255-0.896
				s0.279-0.506,0.475-0.686s0.444-0.32,0.747-0.422s0.655-0.152,1.058-0.152c0.875,0,1.502,0.236,1.881,0.709
				s0.568,1.168,0.568,2.086v0.773h-1.283V7.845c0-0.148-0.001-0.265-0.003-0.349s-0.006-0.188-0.012-0.313
				s-0.017-0.223-0.032-0.293s-0.036-0.152-0.062-0.246s-0.058-0.167-0.097-0.22s-0.088-0.109-0.146-0.17s-0.125-0.105-0.199-0.135
				s-0.162-0.054-0.264-0.073s-0.215-0.029-0.34-0.029c-0.188,0-0.352,0.021-0.492,0.062s-0.256,0.105-0.346,0.193
				s-0.163,0.185-0.22,0.29s-0.099,0.241-0.126,0.407s-0.046,0.326-0.056,0.48S31.83,7.795,31.83,8.021v3.844
				c0,0.73,0.092,1.238,0.275,1.523s0.51,0.428,0.979,0.428c0.18,0,0.335-0.02,0.466-0.059s0.238-0.104,0.322-0.193
				s0.151-0.184,0.202-0.281s0.088-0.229,0.111-0.396s0.038-0.319,0.044-0.46s0.009-0.324,0.009-0.551v-0.715h1.283v0.721
				c0,0.371-0.023,0.703-0.07,0.996s-0.127,0.567-0.24,0.823s-0.262,0.468-0.445,0.636s-0.418,0.3-0.703,0.396
				S33.448,14.877,33.073,14.877z"/>
			<path fill="#00B7AE" d="M39.295,14.877c-0.484,0-0.899-0.072-1.245-0.217s-0.62-0.357-0.823-0.639s-0.352-0.609-0.445-0.984
				s-0.141-0.813-0.141-1.313v-3.68c0-1.012,0.206-1.778,0.618-2.3s1.091-0.782,2.036-0.782c0.941,0,1.619,0.263,2.033,0.788
				s0.621,1.29,0.621,2.294v3.686c0,1.012-0.208,1.789-0.624,2.332S40.233,14.877,39.295,14.877z M38.636,13.693
				c0.174,0.082,0.394,0.123,0.659,0.123s0.485-0.041,0.659-0.123s0.306-0.207,0.396-0.375s0.151-0.353,0.185-0.554
				s0.05-0.45,0.05-0.747V7.763c0-0.293-0.017-0.537-0.05-0.732S40.44,6.656,40.35,6.492s-0.222-0.284-0.396-0.36
				s-0.394-0.114-0.659-0.114s-0.485,0.038-0.659,0.114s-0.306,0.196-0.396,0.36s-0.151,0.344-0.185,0.539s-0.05,0.439-0.05,0.732
				v4.254c0,0.297,0.017,0.546,0.05,0.747s0.095,0.386,0.185,0.554S38.462,13.611,38.636,13.693z"/>
			<path fill="#00B7AE" d="M43.291,14.771V5.056h0.92l2.76,6.451V5.056h1.131v9.715h-0.867l-2.801-6.639v6.639H43.291z"/>
			<path fill="#00B7AE" d="M50.621,14.771V6.058h-1.775V5.056h4.84v1.002h-1.711v8.713H50.621z"/>
			<path fill="#00B7AE" d="M53.856,14.771l2.074-9.715h1.307l2.074,9.715h-1.289l-0.445-2.449h-1.975l-0.463,2.449H53.856z
				 M55.778,11.355h1.623l-0.814-4.389L55.778,11.355z"/>
			<path fill="#00B7AE" d="M62.721,14.877c-0.402,0-0.756-0.055-1.061-0.164s-0.554-0.258-0.747-0.445s-0.352-0.421-0.475-0.7
				s-0.208-0.573-0.255-0.882s-0.07-0.654-0.07-1.037V8.215c0-0.41,0.024-0.775,0.073-1.096s0.134-0.619,0.255-0.896
				s0.279-0.506,0.475-0.686s0.444-0.32,0.747-0.422s0.655-0.152,1.058-0.152c0.875,0,1.502,0.236,1.881,0.709
				S65.17,6.84,65.17,7.758v0.773h-1.283V7.845c0-0.148-0.001-0.265-0.003-0.349s-0.006-0.188-0.012-0.313S63.856,6.961,63.84,6.89
				s-0.036-0.152-0.062-0.246s-0.058-0.167-0.097-0.22s-0.088-0.109-0.146-0.17S63.41,6.149,63.336,6.12s-0.162-0.054-0.264-0.073
				s-0.215-0.029-0.34-0.029c-0.188,0-0.352,0.021-0.492,0.062s-0.256,0.105-0.346,0.193s-0.163,0.185-0.22,0.29
				s-0.099,0.241-0.126,0.407s-0.046,0.326-0.056,0.48s-0.015,0.345-0.015,0.571v3.844c0,0.73,0.092,1.238,0.275,1.523
				s0.51,0.428,0.979,0.428c0.18,0,0.335-0.02,0.466-0.059s0.238-0.104,0.322-0.193s0.151-0.184,0.202-0.281
				s0.088-0.229,0.111-0.396s0.038-0.319,0.044-0.46s0.009-0.324,0.009-0.551v-0.715h1.283v0.721c0,0.371-0.023,0.703-0.07,0.996
				s-0.127,0.567-0.24,0.823s-0.262,0.468-0.445,0.636s-0.418,0.3-0.703,0.396S63.096,14.877,62.721,14.877z"/>
			<path fill="#00B7AE" d="M67.467,14.771V6.058h-1.775V5.056h4.84v1.002h-1.711v8.713H67.467z"/>
			<path fill="#00B7AE" d="M77.598,14.716c-0.305,0.107-0.664,0.161-1.078,0.161s-0.774-0.054-1.081-0.161s-0.556-0.254-0.747-0.439
				s-0.345-0.424-0.46-0.715s-0.194-0.6-0.237-0.926s-0.064-0.706-0.064-1.14V5.056h1.289v6.504c0,0.277,0.008,0.518,0.023,0.721
				s0.051,0.407,0.105,0.612s0.128,0.37,0.22,0.495s0.218,0.228,0.378,0.308s0.352,0.12,0.574,0.12s0.413-0.04,0.571-0.12
				s0.283-0.184,0.375-0.311s0.165-0.292,0.22-0.495s0.09-0.406,0.105-0.609s0.023-0.443,0.023-0.721V5.056h1.289v6.439
				c0,0.434-0.021,0.813-0.064,1.14s-0.122,0.635-0.237,0.926s-0.269,0.529-0.46,0.715S77.903,14.608,77.598,14.716z"/>
			<path fill="#00B7AE" d="M82.824,14.877c-0.816,0-1.438-0.252-1.866-0.756s-0.667-1.193-0.718-2.068l1.207-0.328
				c0.086,1.391,0.545,2.086,1.377,2.086c0.348,0,0.612-0.097,0.794-0.29s0.272-0.478,0.272-0.853c0-0.207-0.024-0.396-0.073-0.568
				s-0.129-0.336-0.24-0.492s-0.217-0.286-0.316-0.39s-0.241-0.241-0.425-0.413l-1.629-1.447c-0.328-0.297-0.567-0.61-0.718-0.94
				s-0.226-0.733-0.226-1.21c0-0.703,0.204-1.251,0.612-1.644s0.966-0.593,1.673-0.601c0.777-0.012,1.359,0.188,1.746,0.601
				s0.619,1.05,0.697,1.913L83.85,7.793c-0.016-0.211-0.037-0.398-0.064-0.563s-0.072-0.329-0.135-0.495s-0.139-0.301-0.229-0.404
				s-0.209-0.186-0.357-0.246S82.744,6,82.549,6.011c-0.715,0.051-1.072,0.406-1.072,1.066c0,0.285,0.049,0.523,0.146,0.715
				s0.262,0.393,0.492,0.604l1.641,1.447c0.426,0.383,0.765,0.793,1.017,1.23s0.378,0.934,0.378,1.488
				c0,0.711-0.215,1.274-0.645,1.69S83.516,14.877,82.824,14.877z"/>
		</g>
	</g>
</g>
</svg>
