<?xml version="1.0" encoding="utf-8"?>
<!-- Generator: Adobe Illustrator 16.0.0, SVG Export Plug-In . SVG Version: 6.00 Build 0)  -->
<!DOCTYPE svg PUBLIC "-//W3C//DTD SVG 1.1//EN" "http://www.w3.org/Graphics/SVG/1.1/DTD/svg11.dtd">
<svg version="1.1" id="Layer_1" xmlns="http://www.w3.org/2000/svg" xmlns:xlink="http://www.w3.org/1999/xlink" x="0px" y="0px"
	 width="116.313px" height="19.053px" viewBox="0 0 116.313 19.053" enable-background="new 0 0 116.313 19.053"
	 xml:space="preserve">
<g id="Job">
	<g>
		<polygon fill="#00B7AE" points="5.818,18.521 0.623,9.521 5.818,0.521 110.546,0.521 115.742,9.521 110.546,18.521 		"/>
		<path fill="#2D2E3F" d="M110.835,19.021H5.529l-5.482-9.5l5.482-9.5h105.307l5.483,9.5L110.835,19.021z M6.106,18.021h104.151
			l4.908-8.5l-4.908-8.5H6.106L1.2,9.521L6.106,18.021z"/>
	</g>
	<g enable-background="new    ">
		<path fill="#2D2E3F" d="M13.384,15v-0.974c0.309,0,0.549-0.019,0.721-0.056s0.313-0.112,0.422-0.226
			c0.109-0.114,0.183-0.261,0.218-0.439c0.034-0.179,0.053-0.43,0.053-0.75v-7.5h1.354v7.523c0,0.434-0.031,0.795-0.097,1.084
			s-0.176,0.537-0.334,0.743c-0.158,0.207-0.375,0.357-0.65,0.451C14.795,14.952,14.447,15,14.029,15H13.384z"/>
		<path fill="#2D2E3F" d="M20.152,14.877c-0.483,0-0.898-0.072-1.244-0.217c-0.347-0.146-0.62-0.357-0.823-0.64
			s-0.353-0.608-0.445-0.983s-0.141-0.813-0.141-1.313v-3.68c0-1.013,0.206-1.778,0.618-2.3c0.411-0.522,1.091-0.782,2.035-0.782
			c0.941,0,1.619,0.263,2.033,0.788c0.414,0.524,0.621,1.29,0.621,2.294v3.686c0,1.013-0.208,1.789-0.624,2.332
			S21.089,14.877,20.152,14.877z M19.492,13.693c0.174,0.082,0.394,0.123,0.658,0.123c0.266,0,0.485-0.041,0.659-0.123
			s0.307-0.207,0.396-0.375s0.15-0.353,0.185-0.554s0.05-0.45,0.05-0.747V7.763c0-0.293-0.017-0.537-0.05-0.732
			c-0.033-0.194-0.095-0.375-0.185-0.538c-0.09-0.164-0.223-0.284-0.396-0.36s-0.394-0.114-0.659-0.114
			c-0.265,0-0.484,0.038-0.658,0.114c-0.175,0.076-0.307,0.196-0.396,0.36c-0.09,0.163-0.151,0.344-0.185,0.538
			c-0.034,0.195-0.051,0.439-0.051,0.732v4.254c0,0.297,0.018,0.546,0.051,0.747c0.032,0.201,0.095,0.386,0.185,0.554
			S19.319,13.611,19.492,13.693z"/>
		<path fill="#2D2E3F" d="M24.148,14.771V5.056h2.222c0.883,0,1.536,0.197,1.963,0.592c0.426,0.396,0.639,1.008,0.639,1.84
			c0,1.238-0.465,1.923-1.395,2.052c0.573,0.141,0.992,0.411,1.257,0.812c0.264,0.401,0.396,0.948,0.396,1.645
			c0,0.875-0.205,1.557-0.615,2.045c-0.409,0.487-1.036,0.731-1.881,0.731L24.148,14.771L24.148,14.771z M25.501,9.111h0.797
			c0.559,0,0.946-0.124,1.163-0.372c0.217-0.247,0.325-0.665,0.325-1.251c0-0.19-0.015-0.357-0.041-0.501
			c-0.027-0.143-0.063-0.265-0.105-0.365c-0.042-0.102-0.107-0.188-0.196-0.255c-0.088-0.068-0.177-0.123-0.267-0.164
			s-0.212-0.072-0.366-0.095c-0.153-0.021-0.303-0.035-0.444-0.041c-0.143-0.006-0.325-0.009-0.549-0.009h-0.315L25.501,9.111
			L25.501,9.111z M25.501,13.799h0.914c0.586,0,0.985-0.138,1.201-0.413c0.215-0.275,0.321-0.739,0.321-1.392
			c0-0.621-0.128-1.085-0.384-1.393c-0.256-0.307-0.673-0.46-1.251-0.46H25.5L25.501,13.799L25.501,13.799z"/>
		<path fill="#2D2E3F" d="M35.65,14.877c-0.483,0-0.898-0.072-1.245-0.217c-0.346-0.146-0.619-0.357-0.822-0.64
			s-0.353-0.608-0.445-0.983s-0.141-0.813-0.141-1.313v-3.68c0-1.013,0.206-1.778,0.617-2.3c0.412-0.522,1.092-0.782,2.036-0.782
			c0.941,0,1.619,0.263,2.033,0.788c0.414,0.524,0.621,1.29,0.621,2.294v3.686c0,1.013-0.208,1.789-0.624,2.332
			S36.587,14.877,35.65,14.877z M34.99,13.693c0.174,0.082,0.394,0.123,0.658,0.123c0.266,0,0.485-0.041,0.659-0.123
			s0.306-0.207,0.396-0.375c0.09-0.168,0.15-0.353,0.185-0.554s0.05-0.45,0.05-0.747V7.763c0-0.293-0.017-0.537-0.05-0.732
			c-0.033-0.194-0.095-0.375-0.185-0.538c-0.091-0.164-0.223-0.284-0.396-0.36s-0.394-0.114-0.659-0.114
			c-0.265,0-0.484,0.038-0.658,0.114c-0.175,0.076-0.307,0.196-0.396,0.36c-0.09,0.163-0.151,0.344-0.185,0.538
			c-0.034,0.195-0.051,0.439-0.051,0.732v4.254c0,0.297,0.018,0.546,0.051,0.747c0.032,0.201,0.095,0.386,0.185,0.554
			S34.817,13.611,34.99,13.693z"/>
		<path fill="#2D2E3F" d="M39.646,14.771V5.056h2.408c0.844,0,1.455,0.229,1.834,0.683c0.379,0.455,0.568,1.122,0.568,2.001
			c0,0.789-0.204,1.404-0.612,1.847c-0.408,0.441-1.003,0.662-1.784,0.662h-1.061v4.522H39.646z M40.999,9.275h0.614
			c0.595,0,1.003-0.104,1.226-0.315s0.334-0.615,0.334-1.213c0-0.246-0.006-0.448-0.019-0.606c-0.012-0.158-0.037-0.308-0.078-0.448
			c-0.041-0.14-0.096-0.249-0.161-0.324c-0.066-0.076-0.159-0.143-0.278-0.196s-0.258-0.092-0.416-0.111
			c-0.158-0.019-0.354-0.029-0.589-0.029h-0.633V9.275z"/>
		<path fill="#2D2E3F" d="M45.406,14.771V5.056h2.408c0.845,0,1.455,0.229,1.834,0.683c0.379,0.455,0.568,1.122,0.568,2.001
			c0,0.789-0.204,1.404-0.612,1.847c-0.408,0.441-1.003,0.662-1.784,0.662h-1.061v4.522H45.406z M46.759,9.275h0.615
			c0.594,0,1.002-0.104,1.225-0.315s0.334-0.615,0.334-1.213c0-0.246-0.006-0.448-0.018-0.606c-0.013-0.158-0.038-0.308-0.079-0.448
			c-0.041-0.14-0.095-0.249-0.161-0.324c-0.066-0.076-0.159-0.143-0.278-0.196s-0.258-0.092-0.416-0.111
			c-0.158-0.019-0.354-0.029-0.589-0.029h-0.633V9.275z"/>
		<path fill="#2D2E3F" d="M53.638,14.877c-0.484,0-0.899-0.072-1.245-0.217c-0.346-0.146-0.62-0.357-0.823-0.64
			c-0.202-0.282-0.352-0.608-0.444-0.983s-0.142-0.813-0.142-1.313v-3.68c0-1.013,0.206-1.778,0.618-2.3
			c0.412-0.522,1.091-0.782,2.036-0.782c0.941,0,1.619,0.263,2.033,0.788c0.414,0.524,0.621,1.29,0.621,2.294v3.686
			c0,1.013-0.208,1.789-0.624,2.332S54.575,14.877,53.638,14.877z M52.979,13.693c0.174,0.082,0.395,0.123,0.659,0.123
			s0.485-0.041,0.659-0.123s0.306-0.207,0.396-0.375c0.091-0.168,0.151-0.353,0.186-0.554s0.05-0.45,0.05-0.747V7.763
			c0-0.293-0.017-0.537-0.05-0.732c-0.033-0.194-0.095-0.375-0.186-0.538c-0.09-0.164-0.222-0.284-0.396-0.36
			s-0.395-0.114-0.659-0.114s-0.485,0.038-0.659,0.114s-0.306,0.196-0.396,0.36c-0.09,0.163-0.151,0.344-0.186,0.538
			c-0.034,0.195-0.05,0.439-0.05,0.732v4.254c0,0.297,0.017,0.546,0.05,0.747s0.096,0.386,0.186,0.554S52.805,13.611,52.979,13.693z
			"/>
		<path fill="#2D2E3F" d="M57.634,14.771V5.056h1.951c0.983,0,1.706,0.201,2.165,0.604c0.459,0.402,0.688,1.059,0.688,1.969
			c0,1.25-0.399,2.006-1.201,2.268l1.39,4.875h-1.313l-1.276-4.559h-1.05v4.559L57.634,14.771L57.634,14.771z M58.988,9.24h0.511
			c0.59,0,1.011-0.115,1.263-0.349c0.252-0.232,0.378-0.653,0.378-1.263c0-0.59-0.108-1.004-0.325-1.242s-0.626-0.357-1.228-0.357
			h-0.599V9.24z"/>
		<path fill="#2D2E3F" d="M64.859,14.771V6.058h-1.774V5.056h4.84v1.002h-1.711v8.713H64.859z"/>
		<path fill="#2D2E3F" d="M72.247,14.716c-0.306,0.106-0.664,0.161-1.078,0.161s-0.774-0.055-1.081-0.161
			c-0.308-0.107-0.557-0.254-0.747-0.439c-0.191-0.185-0.345-0.424-0.46-0.715s-0.194-0.6-0.237-0.926s-0.063-0.706-0.063-1.14
			v-6.44h1.289v6.504c0,0.277,0.008,0.519,0.022,0.721c0.015,0.203,0.051,0.407,0.105,0.612c0.054,0.205,0.128,0.37,0.22,0.495
			s0.218,0.229,0.378,0.308c0.16,0.08,0.352,0.12,0.574,0.12c0.222,0,0.413-0.04,0.57-0.12c0.158-0.079,0.283-0.184,0.375-0.311
			c0.093-0.127,0.165-0.292,0.221-0.495c0.055-0.203,0.09-0.406,0.104-0.609c0.016-0.202,0.023-0.442,0.023-0.721V5.056h1.289v6.439
			c0,0.434-0.021,0.813-0.064,1.14s-0.122,0.635-0.236,0.926c-0.115,0.291-0.27,0.529-0.46,0.715
			C72.8,14.462,72.552,14.608,72.247,14.716z"/>
		<path fill="#2D2E3F" d="M75.189,14.771V5.056h0.92l2.761,6.451V5.056H80v9.715h-0.867l-2.801-6.639v6.639H75.189z"/>
		<path fill="#2D2E3F" d="M81.587,14.771V5.056h1.33v9.715H81.587z"/>
		<path fill="#2D2E3F" d="M85.49,14.771V6.058h-1.774V5.056h4.84v1.002h-1.711v8.713H85.49z"/>
		<path fill="#2D2E3F" d="M89.363,14.771V5.056h1.33v9.715H89.363z"/>
		<path fill="#2D2E3F" d="M92.269,14.771V5.056h3.762v1.002h-2.407v3.211h1.957v0.967h-1.957v3.563h2.438v0.973L92.269,14.771
			L92.269,14.771z"/>
		<path fill="#2D2E3F" d="M99.441,14.877c-0.815,0-1.438-0.252-1.865-0.756c-0.429-0.504-0.667-1.193-0.719-2.068l1.207-0.328
			c0.086,1.392,0.545,2.086,1.377,2.086c0.349,0,0.612-0.097,0.794-0.29c0.183-0.192,0.272-0.478,0.272-0.853
			c0-0.207-0.024-0.396-0.073-0.568s-0.129-0.336-0.24-0.492c-0.11-0.155-0.217-0.286-0.315-0.39
			c-0.1-0.104-0.241-0.241-0.425-0.413l-1.629-1.447c-0.328-0.297-0.567-0.609-0.719-0.939c-0.15-0.33-0.226-0.733-0.226-1.21
			c0-0.703,0.204-1.251,0.612-1.645c0.407-0.393,0.966-0.593,1.673-0.601c0.776-0.012,1.358,0.188,1.746,0.601
			c0.387,0.413,0.618,1.05,0.696,1.913l-1.143,0.316c-0.016-0.211-0.037-0.398-0.064-0.563c-0.026-0.165-0.071-0.329-0.135-0.495
			c-0.063-0.166-0.139-0.301-0.229-0.403c-0.091-0.104-0.209-0.187-0.357-0.246C99.531,6.025,99.361,6,99.165,6.011
			c-0.715,0.051-1.072,0.406-1.072,1.066c0,0.284,0.049,0.522,0.146,0.715c0.098,0.191,0.263,0.393,0.492,0.604l1.642,1.447
			c0.426,0.383,0.765,0.793,1.017,1.229c0.252,0.438,0.378,0.935,0.378,1.488c0,0.711-0.215,1.274-0.645,1.69
			C100.692,14.667,100.132,14.877,99.441,14.877z"/>
	</g>
</g>
</svg>
