<?xml version="1.0" encoding="utf-8"?>
<!-- Generator: Adobe Illustrator 16.0.0, SVG Export Plug-In . SVG Version: 6.00 Build 0)  -->
<!DOCTYPE svg PUBLIC "-//W3C//DTD SVG 1.1//EN" "http://www.w3.org/Graphics/SVG/1.1/DTD/svg11.dtd">
<svg version="1.1" id="Layer_1" xmlns="http://www.w3.org/2000/svg" xmlns:xlink="http://www.w3.org/1999/xlink" x="0px" y="0px"
	 width="116.313px" height="19.053px" viewBox="0 0 116.313 19.053" enable-background="new 0 0 116.313 19.053"
	 xml:space="preserve">
<g>
	<g id="Home">
		<g>
			<polygon fill="#2D2E3F" points="5.819,18.521 0.623,9.521 5.819,0.521 110.546,0.521 115.742,9.521 110.546,18.521 			"/>
			<path fill="#00B7AE" d="M110.835,19.021H5.53l-5.484-9.5l5.484-9.5h105.305l5.484,9.5L110.835,19.021z M6.107,18.021h104.15
				l4.908-8.5l-4.908-8.5H6.107L1.2,9.521L6.107,18.021z"/>
		</g>
		<g enable-background="new    ">
			<path fill="#00B7AE" d="M45.447,14.771V5.056H46.8v4.195h2.496V5.056h1.354v9.715h-1.354v-4.553H46.8v4.553H45.447z"/>
			<path fill="#00B7AE" d="M54.646,14.877c-0.484,0-0.899-0.072-1.245-0.217s-0.62-0.357-0.823-0.639s-0.352-0.609-0.445-0.984
				s-0.141-0.813-0.141-1.313v-3.68c0-1.012,0.206-1.778,0.618-2.3s1.091-0.782,2.036-0.782c0.941,0,1.619,0.263,2.033,0.788
				S57.3,7.041,57.3,8.045v3.686c0,1.012-0.208,1.789-0.624,2.332S55.583,14.877,54.646,14.877z M53.987,13.693
				c0.174,0.082,0.394,0.123,0.659,0.123s0.485-0.041,0.659-0.123s0.306-0.207,0.396-0.375s0.151-0.353,0.185-0.554
				s0.05-0.45,0.05-0.747V7.763c0-0.293-0.017-0.537-0.05-0.732S55.79,6.656,55.7,6.492s-0.222-0.284-0.396-0.36
				s-0.394-0.114-0.659-0.114s-0.485,0.038-0.659,0.114s-0.306,0.196-0.396,0.36s-0.151,0.344-0.185,0.539s-0.05,0.439-0.05,0.732
				v4.254c0,0.297,0.017,0.546,0.05,0.747s0.095,0.386,0.185,0.554S53.813,13.611,53.987,13.693z"/>
			<path fill="#00B7AE" d="M58.613,14.771l0.182-9.715h1.324l1.717,7.881l1.729-7.881h1.324l0.182,9.715h-1.096l-0.105-7.061
				l-1.646,7.061H61.46l-1.635-7.061l-0.105,7.061H58.613z"/>
			<path fill="#00B7AE" d="M66.564,14.771V5.056h3.762v1.002h-2.408v3.211h1.957v0.967h-1.957v3.563h2.438v0.973H66.564z"/>
		</g>
	</g>
</g>
</svg>
