<?xml version="1.0" encoding="utf-8"?>
<!-- Generator: Adobe Illustrator 16.0.0, SVG Export Plug-In . SVG Version: 6.00 Build 0)  -->
<!DOCTYPE svg PUBLIC "-//W3C//DTD SVG 1.1//EN" "http://www.w3.org/Graphics/SVG/1.1/DTD/svg11.dtd">
<svg version="1.1" id="Layer_1" xmlns="http://www.w3.org/2000/svg" xmlns:xlink="http://www.w3.org/1999/xlink" x="0px" y="0px"
	 width="116.313px" height="19.052px" viewBox="0 0 116.313 19.052" enable-background="new 0 0 116.313 19.052"
	 xml:space="preserve">
<g id="SignUp_10_">
	<g>
		<polygon fill="#005A56" points="5.818,19.021 0.623,10.021 5.818,1.021 110.546,1.021 115.742,10.021 110.546,19.021 		"/>
		<path fill="#00B7AE" d="M110.835,19.021H5.53l-5.484-9.5l5.484-9.5h105.305l5.484,9.5L110.835,19.021z M6.107,18.021h104.15
			l4.908-8.5l-4.908-8.5H6.107L1.2,9.521L6.107,18.021z"/>
	</g>
	<g>
		<path fill="#00B7AE" d="M33.931,13.876c-0.816,0-1.438-0.252-1.866-0.756s-0.667-1.193-0.718-2.068l1.207-0.328
			c0.086,1.391,0.545,2.086,1.377,2.086c0.348,0,0.612-0.097,0.794-0.29s0.272-0.478,0.272-0.853c0-0.207-0.024-0.396-0.073-0.568
			s-0.129-0.336-0.24-0.492s-0.217-0.286-0.316-0.39s-0.241-0.241-0.425-0.413l-1.629-1.447c-0.328-0.297-0.567-0.61-0.718-0.94
			s-0.226-0.733-0.226-1.21c0-0.703,0.204-1.251,0.612-1.644s0.966-0.593,1.673-0.601c0.777-0.012,1.359,0.188,1.746,0.601
			s0.619,1.05,0.697,1.913l-1.143,0.316c-0.016-0.211-0.037-0.398-0.064-0.563s-0.072-0.329-0.135-0.495s-0.139-0.301-0.229-0.404
			s-0.209-0.186-0.357-0.246S33.851,5,33.655,5.011c-0.715,0.051-1.072,0.406-1.072,1.066c0,0.285,0.049,0.523,0.146,0.715
			s0.262,0.393,0.492,0.604l1.641,1.447c0.426,0.383,0.765,0.793,1.017,1.23s0.378,0.934,0.378,1.488
			c0,0.711-0.215,1.274-0.645,1.69S34.622,13.876,33.931,13.876z"/>
		<path fill="#00B7AE" d="M39.134,13.871c-0.406,0-0.744-0.058-1.014-0.173s-0.479-0.295-0.63-0.539s-0.256-0.529-0.316-0.855
			s-0.091-0.728-0.091-1.204V9.511c0-0.48,0.032-0.886,0.097-1.216s0.173-0.615,0.325-0.855s0.362-0.417,0.63-0.53
			s0.599-0.17,0.993-0.17c0.246,0,0.465,0.023,0.656,0.07s0.356,0.111,0.495,0.193s0.257,0.192,0.354,0.331s0.177,0.285,0.237,0.439
			s0.108,0.342,0.144,0.563s0.059,0.44,0.07,0.659s0.018,0.475,0.018,0.768l-0.006,0.563h-2.73v0.926c0,0.016,0,0.041,0,0.076
			c0,0.195,0.001,0.34,0.003,0.434s0.01,0.216,0.023,0.366s0.036,0.263,0.067,0.337s0.074,0.152,0.129,0.234s0.126,0.14,0.214,0.173
			s0.194,0.05,0.319,0.05c0.277,0,0.466-0.095,0.565-0.284s0.149-0.476,0.149-0.858v-0.422h1.254v0.27
			C41.091,13.123,40.438,13.871,39.134,13.871z M38.366,9.628h1.471V9.001c0-0.184-0.005-0.338-0.015-0.463
			s-0.029-0.246-0.059-0.363s-0.069-0.209-0.12-0.275s-0.12-0.119-0.208-0.158s-0.194-0.059-0.319-0.059
			c-0.305,0-0.506,0.109-0.604,0.328s-0.146,0.633-0.146,1.242V9.628z"/>
		<path fill="#00B7AE" d="M44.155,13.871c-0.336,0-0.624-0.044-0.864-0.132s-0.435-0.207-0.583-0.357s-0.266-0.346-0.352-0.586
			s-0.145-0.491-0.176-0.753s-0.047-0.572-0.047-0.932V9.505c0-0.465,0.027-0.855,0.082-1.172s0.154-0.601,0.299-0.853
			s0.352-0.438,0.621-0.56s0.609-0.182,1.02-0.182c0.371,0,0.682,0.045,0.932,0.135s0.444,0.23,0.583,0.422s0.236,0.416,0.293,0.674
			s0.085,0.574,0.085,0.949v0.416h-1.16V8.914c0-0.457-0.051-0.776-0.152-0.958s-0.289-0.272-0.563-0.272
			c-0.313,0-0.517,0.108-0.612,0.325s-0.144,0.628-0.144,1.233v2.186c0,0.586,0.054,0.981,0.161,1.187s0.308,0.308,0.601,0.308
			c0.125,0,0.231-0.021,0.319-0.062s0.157-0.094,0.208-0.158s0.09-0.151,0.117-0.261s0.045-0.218,0.053-0.325
			s0.012-0.241,0.012-0.401v-0.563h1.16v0.48c0,0.371-0.029,0.688-0.088,0.949s-0.158,0.493-0.299,0.694s-0.335,0.351-0.583,0.448
			S44.522,13.871,44.155,13.871z"/>
		<path fill="#00B7AE" d="M49.083,13.871c-0.379,0-0.7-0.059-0.964-0.176s-0.472-0.291-0.624-0.521s-0.263-0.497-0.331-0.8
			s-0.103-0.657-0.103-1.063V9.3c0-0.406,0.034-0.761,0.103-1.063s0.179-0.569,0.331-0.8s0.36-0.404,0.624-0.521
			s0.585-0.176,0.964-0.176c0.73,0,1.25,0.219,1.559,0.656s0.463,1.072,0.463,1.904v2.01c0,0.832-0.154,1.467-0.463,1.904
			S49.813,13.871,49.083,13.871z M49.083,12.921c0.117,0,0.22-0.018,0.308-0.053s0.157-0.094,0.208-0.176s0.092-0.161,0.123-0.237
			s0.054-0.186,0.067-0.328s0.021-0.258,0.023-0.346s0.003-0.218,0.003-0.39V9.218c0-0.148-0.001-0.26-0.003-0.334
			s-0.007-0.176-0.015-0.305s-0.021-0.228-0.038-0.296s-0.044-0.147-0.079-0.237s-0.079-0.156-0.132-0.199s-0.118-0.081-0.196-0.114
			s-0.168-0.05-0.27-0.05s-0.192,0.017-0.272,0.05s-0.146,0.071-0.196,0.114s-0.095,0.109-0.132,0.199S48.418,8.215,48.4,8.284
			s-0.03,0.167-0.038,0.296s-0.013,0.23-0.015,0.305s-0.003,0.186-0.003,0.334v2.174c0,0.148,0.001,0.26,0.003,0.334
			s0.007,0.176,0.015,0.305s0.021,0.228,0.038,0.296s0.045,0.146,0.082,0.234s0.081,0.154,0.132,0.199s0.116,0.083,0.196,0.114
			S48.981,12.921,49.083,12.921z"/>
		<path fill="#00B7AE" d="M52.276,13.771V6.833h1.283v0.686C54.106,7,54.671,6.74,55.253,6.74c0.195,0,0.364,0.041,0.507,0.123
			s0.251,0.194,0.325,0.337s0.127,0.292,0.158,0.448s0.047,0.326,0.047,0.51v5.613h-1.283V8.533c0-0.266-0.039-0.463-0.117-0.592
			s-0.223-0.193-0.434-0.193c-0.258,0-0.557,0.143-0.896,0.428v5.596H52.276z"/>
		<path fill="#00B7AE" d="M59.161,13.871c-0.602,0.004-1.042-0.213-1.321-0.65s-0.419-1.162-0.419-2.174V9.699
			c0-0.344,0.013-0.65,0.038-0.92s0.076-0.536,0.152-0.8s0.175-0.482,0.296-0.656s0.284-0.314,0.489-0.422s0.444-0.161,0.718-0.161
			c0.418,0,0.803,0.18,1.154,0.539V4.056h1.283v9.715h-1.283v-0.445C59.933,13.689,59.563,13.871,59.161,13.871z M59.483,12.857
			c0.25,0,0.512-0.086,0.785-0.258V8.052c-0.281-0.203-0.551-0.305-0.809-0.305c-0.504,0-0.756,0.482-0.756,1.447v1.963
			c0,0.219,0.005,0.404,0.015,0.557s0.03,0.306,0.062,0.46s0.074,0.277,0.129,0.369s0.131,0.167,0.229,0.226
			S59.351,12.857,59.483,12.857z"/>
		<path fill="#00B7AE" d="M67.188,13.771v-3.428l-2.098-6.287h1.26l1.482,4.682l1.465-4.682h1.277l-2.092,6.287v3.428H67.188z"/>
		<path fill="#00B7AE" d="M73.048,13.871c-0.406,0-0.744-0.058-1.014-0.173s-0.479-0.295-0.63-0.539s-0.256-0.529-0.316-0.855
			s-0.091-0.728-0.091-1.204V9.511c0-0.48,0.032-0.886,0.097-1.216s0.173-0.615,0.325-0.855s0.362-0.417,0.63-0.53
			s0.599-0.17,0.993-0.17c0.246,0,0.465,0.023,0.656,0.07s0.356,0.111,0.495,0.193s0.257,0.192,0.354,0.331s0.177,0.285,0.237,0.439
			s0.108,0.342,0.144,0.563s0.059,0.44,0.07,0.659s0.018,0.475,0.018,0.768l-0.006,0.563h-2.73v0.926c0,0.016,0,0.041,0,0.076
			c0,0.195,0.001,0.34,0.003,0.434s0.01,0.216,0.023,0.366s0.036,0.263,0.067,0.337s0.074,0.152,0.129,0.234s0.126,0.14,0.214,0.173
			s0.194,0.05,0.319,0.05c0.277,0,0.466-0.095,0.565-0.284s0.149-0.476,0.149-0.858v-0.422h1.254v0.27
			C75.005,13.123,74.353,13.871,73.048,13.871z M72.28,9.628h1.471V9.001c0-0.184-0.005-0.338-0.015-0.463s-0.029-0.246-0.059-0.363
			s-0.069-0.209-0.12-0.275s-0.12-0.119-0.208-0.158s-0.194-0.059-0.319-0.059c-0.305,0-0.506,0.109-0.604,0.328
			S72.28,8.644,72.28,9.253V9.628z"/>
		<path fill="#00B7AE" d="M77.419,13.871c-0.395,0-0.726-0.163-0.993-0.489s-0.401-0.7-0.401-1.122c0-0.328,0.054-0.626,0.161-0.894
			s0.222-0.483,0.343-0.647s0.331-0.335,0.63-0.513s0.53-0.304,0.694-0.378s0.451-0.195,0.861-0.363
			c0.023-0.012,0.041-0.02,0.053-0.023V8.943c0-0.449-0.046-0.769-0.138-0.958s-0.278-0.284-0.56-0.284
			c-0.484,0-0.727,0.328-0.727,0.984v0.346l-1.271-0.047c0-0.07,0.004-0.156,0.012-0.258c0.039-0.691,0.232-1.195,0.58-1.512
			s0.846-0.475,1.494-0.475c0.668,0,1.15,0.183,1.447,0.548s0.445,0.915,0.445,1.649v3.17c0,0.523,0.039,1.078,0.117,1.664h-1.172
			c-0.082-0.387-0.139-0.729-0.17-1.025c-0.098,0.313-0.265,0.578-0.501,0.797S77.786,13.871,77.419,13.871z M77.929,12.757
			c0.164,0,0.325-0.064,0.483-0.193s0.276-0.256,0.354-0.381V10.22c-0.449,0.254-0.746,0.441-0.891,0.563
			c-0.375,0.305-0.563,0.666-0.563,1.084c0,0.281,0.053,0.5,0.158,0.656S77.729,12.757,77.929,12.757z"/>
		<path fill="#00B7AE" d="M81.315,13.771V6.833h1.283v0.99c0.238-0.398,0.483-0.678,0.735-0.838s0.519-0.24,0.8-0.24
			c0.078,0,0.148,0.004,0.211,0.012v1.418c-0.238-0.09-0.473-0.135-0.703-0.135c-0.215,0-0.403,0.048-0.565,0.144
			s-0.321,0.269-0.478,0.519v5.068H81.315z"/>
	</g>
</g>
</svg>
