<?xml version="1.0" encoding="utf-8"?>
<!-- Generator: Adobe Illustrator 16.0.0, SVG Export Plug-In . SVG Version: 6.00 Build 0)  -->
<!DOCTYPE svg PUBLIC "-//W3C//DTD SVG 1.1//EN" "http://www.w3.org/Graphics/SVG/1.1/DTD/svg11.dtd">
<svg version="1.1" id="Layer_1" xmlns="http://www.w3.org/2000/svg" xmlns:xlink="http://www.w3.org/1999/xlink" x="0px" y="0px"
	 width="116.313px" height="19.053px" viewBox="0 0 116.313 19.053" enable-background="new 0 0 116.313 19.053"
	 xml:space="preserve">
<g>
	<g id="SignUp">
		<g>
			<polygon fill="#00B7AE" points="5.818,18.521 0.623,9.521 5.818,0.521 110.546,0.521 115.742,9.521 110.546,18.521 			"/>
			<path fill="#005A56" d="M110.835,19.021H5.529l-5.482-9.5l5.482-9.5h105.307l5.483,9.5L110.835,19.021z M6.106,18.021h104.151
				l4.908-8.5l-4.908-8.5H6.106L1.2,9.521L6.106,18.021z"/>
		</g>
		<g enable-background="new    ">
			<path fill="#005A56" d="M42.52,13.877c-0.815,0-1.438-0.252-1.866-0.756c-0.428-0.504-0.667-1.193-0.718-2.068l1.207-0.328
				c0.086,1.392,0.545,2.086,1.377,2.086c0.349,0,0.612-0.097,0.794-0.29c0.183-0.192,0.272-0.478,0.272-0.853
				c0-0.207-0.024-0.396-0.073-0.568s-0.129-0.336-0.24-0.492c-0.11-0.155-0.217-0.286-0.315-0.39
				c-0.1-0.104-0.241-0.241-0.426-0.413l-1.629-1.447c-0.327-0.297-0.566-0.609-0.718-0.939c-0.15-0.33-0.226-0.733-0.226-1.21
				c0-0.703,0.204-1.251,0.611-1.645c0.408-0.393,0.967-0.593,1.674-0.601c0.776-0.012,1.358,0.188,1.745,0.601
				c0.388,0.413,0.619,1.05,0.697,1.913l-1.143,0.316c-0.017-0.211-0.037-0.398-0.064-0.563c-0.026-0.165-0.071-0.329-0.135-0.495
				s-0.139-0.301-0.229-0.403c-0.091-0.104-0.21-0.187-0.357-0.246C42.611,5.025,42.44,5,42.244,5.011
				c-0.716,0.051-1.072,0.406-1.072,1.066c0,0.284,0.049,0.522,0.146,0.715c0.098,0.191,0.263,0.393,0.492,0.604l1.642,1.447
				c0.426,0.383,0.765,0.793,1.017,1.229c0.252,0.438,0.378,0.935,0.378,1.488c0,0.711-0.215,1.274-0.645,1.69
				C43.771,13.667,43.211,13.877,42.52,13.877z"/>
			<path fill="#005A56" d="M45.977,13.771V4.056h1.33v9.715H45.977z"/>
			<path fill="#005A56" d="M51.198,13.888c-0.883,0-1.52-0.278-1.909-0.835c-0.391-0.557-0.586-1.38-0.586-2.47V7.332
				c0-0.445,0.023-0.836,0.072-1.172c0.05-0.337,0.134-0.646,0.252-0.933c0.119-0.286,0.276-0.518,0.473-0.697
				c0.195-0.179,0.442-0.318,0.744-0.419c0.301-0.1,0.653-0.148,1.061-0.148c0.898,0,1.545,0.229,1.939,0.686
				c0.394,0.457,0.592,1.177,0.592,2.156v0.357h-1.271V6.857c0-0.272-0.008-0.499-0.022-0.677c-0.016-0.178-0.048-0.347-0.098-0.507
				c-0.049-0.16-0.118-0.284-0.211-0.372c-0.092-0.088-0.212-0.157-0.359-0.208c-0.148-0.051-0.332-0.076-0.552-0.076
				c-0.168,0-0.315,0.02-0.444,0.056c-0.129,0.037-0.238,0.087-0.328,0.146s-0.165,0.145-0.227,0.252
				c-0.061,0.107-0.107,0.213-0.144,0.316c-0.036,0.103-0.063,0.235-0.082,0.397c-0.019,0.162-0.031,0.311-0.035,0.442
				s-0.006,0.299-0.006,0.498v3.598c0,0.746,0.09,1.281,0.271,1.605c0.18,0.323,0.522,0.485,1.03,0.485s0.855-0.176,1.043-0.526
				c0.188-0.352,0.281-0.916,0.281-1.693v-0.68h-1.229V8.955h2.461v4.815h-0.861l-0.129-1.119
				C52.627,13.476,52.053,13.888,51.198,13.888z"/>
			<path fill="#005A56" d="M55.305,13.771V4.056h0.92l2.76,6.451V4.056h1.132v9.715h-0.867l-2.802-6.639v6.639H55.305z"/>
			<path fill="#005A56" d="M67.961,13.716c-0.306,0.106-0.664,0.161-1.078,0.161s-0.774-0.055-1.081-0.161
				c-0.307-0.107-0.556-0.254-0.747-0.439c-0.191-0.185-0.345-0.424-0.46-0.715s-0.194-0.6-0.237-0.926s-0.063-0.706-0.063-1.14
				v-6.44h1.289v6.504c0,0.277,0.008,0.519,0.022,0.721c0.016,0.203,0.051,0.407,0.105,0.612c0.054,0.205,0.128,0.37,0.22,0.495
				s0.218,0.229,0.378,0.308c0.16,0.08,0.353,0.12,0.574,0.12s0.413-0.04,0.571-0.12c0.157-0.079,0.282-0.184,0.375-0.311
				c0.092-0.127,0.165-0.292,0.22-0.495s0.09-0.406,0.104-0.609c0.016-0.202,0.023-0.442,0.023-0.721V4.056h1.289v6.439
				c0,0.434-0.021,0.813-0.064,1.14s-0.122,0.635-0.236,0.926c-0.115,0.291-0.27,0.529-0.46,0.715
				C68.514,13.462,68.266,13.608,67.961,13.716z"/>
			<path fill="#005A56" d="M70.903,13.771V4.056h2.408c0.844,0,1.455,0.229,1.834,0.683c0.379,0.455,0.568,1.122,0.568,2.001
				c0,0.789-0.204,1.404-0.612,1.847c-0.408,0.441-1.003,0.662-1.784,0.662h-1.061v4.522H70.903z M72.256,8.275h0.615
				c0.594,0,1.002-0.104,1.225-0.315s0.334-0.615,0.334-1.213c0-0.246-0.006-0.448-0.018-0.606
				c-0.013-0.158-0.038-0.308-0.079-0.448c-0.041-0.14-0.096-0.249-0.161-0.324c-0.066-0.076-0.159-0.143-0.278-0.196
				s-0.258-0.092-0.416-0.111c-0.158-0.019-0.354-0.029-0.589-0.029h-0.633V8.275z"/>
		</g>
	</g>
</g>
</svg>
