<?xml version="1.0" encoding="utf-8"?>
<!-- Generator: Adobe Illustrator 16.0.0, SVG Export Plug-In . SVG Version: 6.00 Build 0)  -->
<!DOCTYPE svg PUBLIC "-//W3C//DTD SVG 1.1//EN" "http://www.w3.org/Graphics/SVG/1.1/DTD/svg11.dtd">
<svg version="1.1" id="Layer_1" xmlns="http://www.w3.org/2000/svg" xmlns:xlink="http://www.w3.org/1999/xlink" x="0px" y="0px"
	 width="116.313px" height="19.053px" viewBox="0 0 116.313 19.053" enable-background="new 0 0 116.313 19.053"
	 xml:space="preserve">
<g>
	<g id="About">
		<g>
			<polygon fill="#00B7AE" points="5.818,18.521 0.623,9.521 5.818,0.521 110.546,0.521 115.742,9.521 110.546,18.521 			"/>
			<path fill="#262631" d="M110.835,19.021H5.529l-5.482-9.5l5.482-9.5h105.307l5.483,9.5L110.835,19.021z M6.106,18.021h104.151
				l4.908-8.5l-4.908-8.5H6.106L1.2,9.521L6.106,18.021z"/>
		</g>
		<g enable-background="new    ">
			<path fill="#262631" d="M42.919,14.771l2.074-9.715H46.3l2.074,9.715h-1.289l-0.445-2.449h-1.975l-0.463,2.449H42.919z
				 M44.841,11.355h1.623L45.65,6.967L44.841,11.355z"/>
			<path fill="#262631" d="M49.359,14.771V5.056h2.222c0.883,0,1.537,0.197,1.963,0.592c0.426,0.396,0.639,1.008,0.639,1.84
				c0,1.238-0.465,1.923-1.395,2.052c0.573,0.141,0.992,0.411,1.257,0.812c0.264,0.401,0.396,0.948,0.396,1.645
				c0,0.875-0.205,1.557-0.614,2.045c-0.41,0.487-1.037,0.731-1.882,0.731L49.359,14.771L49.359,14.771z M50.712,9.111h0.797
				c0.559,0,0.946-0.124,1.163-0.372c0.217-0.247,0.325-0.665,0.325-1.251c0-0.19-0.015-0.357-0.041-0.501
				c-0.027-0.143-0.063-0.265-0.105-0.365c-0.042-0.102-0.107-0.188-0.196-0.255c-0.088-0.068-0.177-0.123-0.267-0.164
				s-0.212-0.072-0.366-0.095c-0.153-0.021-0.303-0.035-0.444-0.041c-0.143-0.006-0.325-0.009-0.549-0.009h-0.315L50.712,9.111
				L50.712,9.111z M50.712,13.799h0.914c0.586,0,0.985-0.138,1.201-0.413c0.215-0.275,0.321-0.739,0.321-1.392
				c0-0.621-0.128-1.085-0.384-1.393c-0.256-0.307-0.673-0.46-1.251-0.46h-0.803L50.712,13.799L50.712,13.799z"/>
			<path fill="#262631" d="M58.118,14.877c-0.484,0-0.899-0.072-1.245-0.217c-0.347-0.146-0.62-0.357-0.823-0.64
				s-0.353-0.608-0.445-0.983s-0.141-0.813-0.141-1.313v-3.68c0-1.013,0.206-1.778,0.618-2.3c0.412-0.522,1.091-0.782,2.036-0.782
				c0.94,0,1.618,0.263,2.032,0.788c0.414,0.524,0.621,1.29,0.621,2.294v3.686c0,1.013-0.208,1.789-0.624,2.332
				S59.056,14.877,58.118,14.877z M57.459,13.693c0.174,0.082,0.394,0.123,0.659,0.123c0.265,0,0.484-0.041,0.658-0.123
				c0.175-0.082,0.307-0.207,0.396-0.375s0.151-0.353,0.185-0.554c0.034-0.201,0.051-0.45,0.051-0.747V7.763
				c0-0.293-0.018-0.537-0.051-0.732c-0.032-0.194-0.095-0.375-0.185-0.538c-0.09-0.164-0.222-0.284-0.396-0.36
				c-0.174-0.076-0.394-0.114-0.658-0.114c-0.266,0-0.485,0.038-0.659,0.114s-0.307,0.196-0.396,0.36
				c-0.09,0.163-0.15,0.344-0.185,0.538c-0.034,0.195-0.05,0.439-0.05,0.732v4.254c0,0.297,0.017,0.546,0.05,0.747
				s0.095,0.386,0.185,0.554S57.285,13.611,57.459,13.693z"/>
			<path fill="#262631" d="M65.695,14.716c-0.305,0.106-0.664,0.161-1.077,0.161c-0.414,0-0.774-0.055-1.081-0.161
				c-0.308-0.107-0.557-0.254-0.747-0.439c-0.191-0.185-0.346-0.424-0.46-0.715c-0.115-0.291-0.194-0.6-0.237-0.926
				s-0.064-0.706-0.064-1.14v-6.44h1.289v6.504c0,0.277,0.009,0.519,0.023,0.721c0.015,0.203,0.051,0.407,0.104,0.612
				c0.055,0.205,0.128,0.37,0.221,0.495c0.092,0.125,0.218,0.229,0.378,0.308c0.16,0.08,0.352,0.12,0.574,0.12
				c0.222,0,0.412-0.04,0.57-0.12c0.158-0.079,0.283-0.184,0.375-0.311s0.165-0.292,0.221-0.495c0.055-0.203,0.09-0.406,0.104-0.609
				c0.015-0.202,0.023-0.442,0.023-0.721V5.056H67.2v6.439c0,0.434-0.021,0.813-0.064,1.14s-0.122,0.635-0.237,0.926
				c-0.114,0.291-0.269,0.529-0.46,0.715C66.248,14.462,65.999,14.608,65.695,14.716z"/>
			<path fill="#262631" d="M69.632,14.771V6.058h-1.775V5.056h4.84v1.002h-1.711v8.713H69.632z"/>
		</g>
	</g>
</g>
</svg>
