<?xml version="1.0" encoding="utf-8"?>
<!-- Generator: Adobe Illustrator 16.0.0, SVG Export Plug-In . SVG Version: 6.00 Build 0)  -->
<!DOCTYPE svg PUBLIC "-//W3C//DTD SVG 1.1//EN" "http://www.w3.org/Graphics/SVG/1.1/DTD/svg11.dtd">
<svg version="1.1" id="Layer_1" xmlns="http://www.w3.org/2000/svg" xmlns:xlink="http://www.w3.org/1999/xlink" x="0px" y="0px"
	 width="116.313px" height="19.053px" viewBox="0 0 116.313 19.053" enable-background="new 0 0 116.313 19.053"
	 xml:space="preserve">
<g id="Curriculum">
	<g>
		<polygon fill="#00B7AE" points="5.818,18.521 0.623,9.521 5.818,0.521 110.546,0.521 115.742,9.521 110.546,18.521 		"/>
		<path fill="#262631" d="M110.835,19.021H5.529l-5.482-9.5l5.482-9.5h105.307l5.483,9.5L110.835,19.021z M6.106,18.021h104.151
			l4.908-8.5l-4.908-8.5H6.106L1.2,9.521L6.106,18.021z"/>
	</g>
	<g enable-background="new    ">
		<path fill="#262631" d="M30.861,14.877c-0.401,0-0.756-0.056-1.061-0.164c-0.305-0.109-0.554-0.258-0.747-0.445
			c-0.193-0.187-0.352-0.421-0.475-0.7c-0.123-0.278-0.208-0.572-0.256-0.882c-0.047-0.309-0.069-0.654-0.069-1.037V8.215
			c0-0.41,0.023-0.775,0.073-1.096c0.049-0.321,0.134-0.619,0.255-0.897s0.278-0.506,0.475-0.686
			c0.196-0.181,0.444-0.32,0.747-0.423c0.303-0.102,0.655-0.151,1.058-0.151c0.875,0,1.502,0.235,1.882,0.709
			c0.379,0.473,0.567,1.169,0.567,2.087v0.772h-1.283V7.845c0-0.148-0.001-0.265-0.003-0.349s-0.006-0.188-0.012-0.313
			S31.995,6.961,31.98,6.89c-0.015-0.071-0.036-0.152-0.062-0.246c-0.026-0.094-0.059-0.167-0.098-0.22
			c-0.038-0.053-0.088-0.109-0.146-0.17c-0.058-0.062-0.125-0.105-0.199-0.134c-0.074-0.029-0.162-0.055-0.264-0.073
			c-0.103-0.02-0.215-0.029-0.34-0.029c-0.188,0-0.353,0.021-0.492,0.063c-0.141,0.041-0.256,0.104-0.346,0.192
			c-0.091,0.088-0.163,0.186-0.221,0.29c-0.057,0.105-0.099,0.241-0.126,0.407c-0.026,0.166-0.046,0.326-0.056,0.48
			c-0.01,0.153-0.015,0.345-0.015,0.57v3.844c0,0.73,0.092,1.238,0.274,1.523c0.184,0.285,0.51,0.428,0.979,0.428
			c0.18,0,0.335-0.02,0.466-0.059s0.238-0.104,0.322-0.193s0.15-0.184,0.201-0.28c0.052-0.098,0.089-0.229,0.111-0.396
			c0.023-0.167,0.038-0.319,0.044-0.46s0.009-0.324,0.009-0.551v-0.715h1.283v0.721c0,0.371-0.022,0.703-0.07,0.996
			c-0.047,0.293-0.127,0.566-0.239,0.823c-0.113,0.256-0.263,0.468-0.445,0.636s-0.418,0.3-0.703,0.396
			C31.565,14.829,31.236,14.877,30.861,14.877z"/>
		<path fill="#262631" d="M38.191,14.716c-0.305,0.106-0.664,0.161-1.078,0.161c-0.413,0-0.773-0.055-1.08-0.161
			c-0.308-0.107-0.557-0.254-0.747-0.439c-0.191-0.185-0.346-0.424-0.46-0.715c-0.115-0.291-0.194-0.6-0.237-0.926
			s-0.064-0.706-0.064-1.14v-6.44h1.289v6.504c0,0.277,0.008,0.519,0.023,0.721c0.015,0.203,0.051,0.407,0.104,0.612
			c0.055,0.205,0.128,0.37,0.221,0.495c0.092,0.125,0.218,0.229,0.378,0.308c0.16,0.08,0.352,0.12,0.573,0.12
			c0.223,0,0.413-0.04,0.571-0.12c0.158-0.079,0.283-0.184,0.375-0.311s0.165-0.292,0.22-0.495c0.056-0.203,0.091-0.406,0.105-0.609
			c0.015-0.202,0.023-0.442,0.023-0.721V5.056h1.288v6.439c0,0.434-0.021,0.813-0.063,1.14s-0.122,0.635-0.237,0.926
			s-0.269,0.529-0.46,0.715C38.744,14.462,38.495,14.608,38.191,14.716z"/>
		<path fill="#262631" d="M41.132,14.771V5.056h1.951c0.983,0,1.706,0.201,2.165,0.604c0.459,0.402,0.688,1.059,0.688,1.969
			c0,1.25-0.399,2.006-1.201,2.268l1.39,4.875h-1.313l-1.276-4.559h-1.05v4.559L41.132,14.771L41.132,14.771z M42.486,9.24h0.511
			c0.59,0,1.011-0.115,1.263-0.349c0.252-0.232,0.378-0.653,0.378-1.263c0-0.59-0.108-1.004-0.325-1.242s-0.626-0.357-1.228-0.357
			h-0.599V9.24z"/>
		<path fill="#262631" d="M47.361,14.771V5.056h1.951c0.984,0,1.706,0.201,2.165,0.604c0.459,0.402,0.688,1.059,0.688,1.969
			c0,1.25-0.4,2.006-1.201,2.268l1.389,4.875H51.04l-1.277-4.559h-1.049v4.559L47.361,14.771L47.361,14.771z M48.714,9.24h0.51
			c0.59,0,1.011-0.115,1.263-0.349c0.252-0.232,0.378-0.653,0.378-1.263c0-0.59-0.107-1.004-0.324-1.242
			c-0.218-0.238-0.626-0.357-1.229-0.357h-0.598V9.24z"/>
		<path fill="#262631" d="M53.654,14.771V5.056h1.33v9.715H53.654z"/>
		<path fill="#262631" d="M58.986,14.877c-0.401,0-0.756-0.056-1.061-0.164c-0.305-0.109-0.554-0.258-0.747-0.445
			c-0.193-0.187-0.352-0.421-0.475-0.7c-0.123-0.278-0.208-0.572-0.256-0.882c-0.047-0.309-0.069-0.654-0.069-1.037V8.215
			c0-0.41,0.023-0.775,0.073-1.096C56.5,6.798,56.585,6.5,56.706,6.223s0.278-0.506,0.475-0.686c0.196-0.181,0.444-0.32,0.747-0.423
			c0.303-0.102,0.655-0.151,1.058-0.151c0.875,0,1.502,0.235,1.882,0.709c0.379,0.473,0.567,1.168,0.567,2.086v0.772h-1.283V7.845
			c0-0.148-0.001-0.265-0.003-0.349s-0.006-0.188-0.012-0.313S60.12,6.961,60.105,6.89c-0.015-0.071-0.036-0.152-0.062-0.246
			c-0.026-0.094-0.059-0.167-0.098-0.22s-0.088-0.109-0.146-0.17c-0.058-0.062-0.125-0.105-0.199-0.135
			c-0.074-0.03-0.162-0.055-0.264-0.073c-0.103-0.02-0.215-0.029-0.34-0.029c-0.188,0-0.353,0.021-0.492,0.063
			c-0.141,0.041-0.256,0.104-0.346,0.192c-0.091,0.088-0.163,0.186-0.221,0.29c-0.057,0.105-0.099,0.241-0.126,0.407
			c-0.026,0.166-0.046,0.326-0.056,0.479c-0.01,0.154-0.015,0.346-0.015,0.571v3.844c0,0.73,0.092,1.238,0.274,1.523
			c0.184,0.285,0.51,0.428,0.979,0.428c0.18,0,0.335-0.02,0.466-0.059s0.238-0.104,0.322-0.193s0.15-0.184,0.201-0.281
			c0.052-0.097,0.089-0.229,0.111-0.396c0.023-0.167,0.038-0.319,0.044-0.46s0.009-0.324,0.009-0.551V11.16h1.283v0.721
			c0,0.371-0.022,0.703-0.07,0.996c-0.047,0.293-0.127,0.566-0.239,0.823c-0.113,0.256-0.263,0.468-0.445,0.636
			s-0.418,0.3-0.703,0.396C59.69,14.828,59.361,14.877,58.986,14.877z"/>
		<path fill="#262631" d="M66.316,14.716c-0.305,0.106-0.664,0.161-1.078,0.161c-0.413,0-0.773-0.055-1.081-0.161
			c-0.307-0.107-0.556-0.254-0.746-0.439c-0.191-0.185-0.346-0.424-0.46-0.715c-0.115-0.291-0.194-0.6-0.237-0.926
			s-0.064-0.706-0.064-1.14v-6.44h1.289v6.504c0,0.277,0.008,0.519,0.023,0.721c0.015,0.203,0.051,0.407,0.104,0.612
			c0.055,0.205,0.128,0.37,0.221,0.495c0.092,0.125,0.218,0.229,0.378,0.308c0.16,0.08,0.352,0.12,0.573,0.12
			c0.223,0,0.413-0.04,0.571-0.12c0.158-0.079,0.283-0.184,0.375-0.311s0.165-0.292,0.22-0.495c0.056-0.203,0.091-0.406,0.105-0.609
			c0.015-0.202,0.023-0.442,0.023-0.721V5.056h1.288v6.439c0,0.434-0.021,0.813-0.063,1.14s-0.122,0.635-0.237,0.926
			s-0.269,0.529-0.46,0.715C66.869,14.462,66.62,14.608,66.316,14.716z"/>
		<path fill="#262631" d="M69.257,14.771V5.056h1.354v8.742h2.479v0.973H69.257z"/>
		<path fill="#262631" d="M77.601,14.716c-0.305,0.106-0.664,0.161-1.078,0.161s-0.773-0.055-1.081-0.161
			c-0.307-0.107-0.556-0.254-0.747-0.439c-0.19-0.185-0.345-0.424-0.46-0.715c-0.114-0.291-0.193-0.6-0.236-0.926
			s-0.064-0.706-0.064-1.14v-6.44h1.289v6.504c0,0.277,0.008,0.519,0.023,0.721c0.015,0.203,0.051,0.407,0.104,0.612
			s0.128,0.37,0.22,0.495c0.093,0.125,0.219,0.229,0.379,0.308c0.159,0.08,0.352,0.12,0.573,0.12c0.223,0,0.413-0.04,0.571-0.12
			c0.158-0.079,0.283-0.184,0.375-0.311s0.165-0.292,0.22-0.495c0.056-0.203,0.09-0.406,0.105-0.609
			c0.015-0.202,0.022-0.442,0.022-0.721V5.056h1.289v6.439c0,0.434-0.021,0.813-0.063,1.14s-0.122,0.635-0.237,0.926
			s-0.269,0.529-0.46,0.715C78.154,14.462,77.906,14.608,77.601,14.716z"/>
		<path fill="#262631" d="M80.513,14.771l0.182-9.715h1.324l1.717,7.881l1.729-7.881h1.324l0.182,9.715h-1.096L85.77,7.71
			l-1.646,7.061h-0.763L81.727,7.71l-0.104,7.061H80.513z"/>
	</g>
</g>
</svg>
