<?xml version="1.0" encoding="utf-8"?>
<!-- Generator: Adobe Illustrator 16.0.0, SVG Export Plug-In . SVG Version: 6.00 Build 0)  -->
<!DOCTYPE svg PUBLIC "-//W3C//DTD SVG 1.1//EN" "http://www.w3.org/Graphics/SVG/1.1/DTD/svg11.dtd">
<svg version="1.1" id="Layer_1" xmlns="http://www.w3.org/2000/svg" xmlns:xlink="http://www.w3.org/1999/xlink" x="0px" y="0px"
	 width="116.313px" height="19.053px" viewBox="0 0 116.313 19.053" enable-background="new 0 0 116.313 19.053"
	 xml:space="preserve">
<g id="Home">
	<g>
		<polygon fill="#00B7AE" points="5.819,18.521 0.623,9.521 5.819,0.521 110.546,0.521 115.742,9.521 110.546,18.521 		"/>
		<path fill="#2D2E3F" d="M110.835,19.021H5.53l-5.483-9.5l5.483-9.5h105.306l5.483,9.5L110.835,19.021z M6.107,18.021h104.15
			l4.908-8.5l-4.908-8.5H6.107L1.2,9.521L6.107,18.021z"/>
	</g>
	<g enable-background="new    ">
		<path fill="#2D2E3F" d="M45.447,14.771V5.056H46.8v4.195h2.496V5.056h1.354v9.715h-1.354v-4.553H46.8v4.553H45.447z"/>
		<path fill="#2D2E3F" d="M54.646,14.877c-0.483,0-0.898-0.072-1.245-0.217c-0.346-0.146-0.62-0.357-0.822-0.64
			c-0.203-0.282-0.353-0.608-0.445-0.983s-0.141-0.813-0.141-1.313v-3.68c0-1.013,0.205-1.778,0.617-2.3
			c0.412-0.522,1.092-0.782,2.036-0.782c0.941,0,1.619,0.263,2.033,0.788C57.093,6.275,57.3,7.041,57.3,8.045v3.686
			c0,1.013-0.208,1.789-0.624,2.332S55.583,14.877,54.646,14.877z M53.987,13.693c0.175,0.082,0.395,0.123,0.659,0.123
			c0.266,0,0.485-0.041,0.659-0.123s0.306-0.207,0.396-0.375c0.09-0.168,0.15-0.353,0.185-0.554s0.05-0.45,0.05-0.747V7.763
			c0-0.293-0.017-0.537-0.05-0.732C55.853,6.836,55.79,6.656,55.7,6.492c-0.091-0.164-0.223-0.284-0.396-0.36
			s-0.394-0.114-0.659-0.114c-0.265,0-0.484,0.038-0.659,0.114c-0.174,0.076-0.306,0.196-0.396,0.36
			c-0.09,0.163-0.151,0.344-0.186,0.538c-0.033,0.195-0.05,0.439-0.05,0.732v4.254c0,0.297,0.018,0.546,0.05,0.747
			c0.033,0.201,0.096,0.386,0.186,0.554S53.813,13.611,53.987,13.693z"/>
		<path fill="#2D2E3F" d="M58.613,14.771l0.183-9.715h1.324l1.717,7.881l1.729-7.881h1.324l0.182,9.715h-1.096L63.87,7.71
			l-1.646,7.061H61.46L59.825,7.71l-0.105,7.061H58.613z"/>
		<path fill="#2D2E3F" d="M66.564,14.771V5.056h3.763v1.002h-2.408v3.211h1.957v0.967h-1.957v3.563h2.438v0.973L66.564,14.771
			L66.564,14.771z"/>
	</g>
</g>
</svg>
