<?xml version="1.0" encoding="utf-8"?>
<!-- Generator: Adobe Illustrator 16.0.0, SVG Export Plug-In . SVG Version: 6.00 Build 0)  -->
<!DOCTYPE svg PUBLIC "-//W3C//DTD SVG 1.1//EN" "http://www.w3.org/Graphics/SVG/1.1/DTD/svg11.dtd">
<svg version="1.1" id="Layer_1" xmlns="http://www.w3.org/2000/svg" xmlns:xlink="http://www.w3.org/1999/xlink" x="0px" y="0px"
	 width="116.313px" height="19.052px" viewBox="0 0 116.313 19.052" enable-background="new 0 0 116.313 19.052"
	 xml:space="preserve">
<g id="SignUp_7_">
	<g>
		<polygon fill="#005A56" points="5.818,19.021 0.623,10.021 5.818,1.021 110.546,1.021 115.742,10.021 110.546,19.021 		"/>
		<path fill="#00B7AE" d="M110.835,19.021H5.53l-5.484-9.5l5.484-9.5h105.305l5.484,9.5L110.835,19.021z M6.107,18.021h104.15
			l4.908-8.5l-4.908-8.5H6.107L1.2,9.521L6.107,18.021z"/>
	</g>
	<g>
		<path fill="#00B7AE" d="M37.347,13.771V4.056h3.75v0.973H38.7v3.229h1.857v0.967H38.7v4.547H37.347z"/>
		<path fill="#00B7AE" d="M42.005,5.808V4.46h1.289v1.348H42.005z M42.005,13.771V6.833h1.283v6.938H42.005z"/>
		<path fill="#00B7AE" d="M45.075,13.771V7.789h-0.838V6.833h0.838V6.476c0-0.281,0.01-0.52,0.029-0.715s0.061-0.385,0.123-0.568
			s0.147-0.33,0.255-0.439s0.252-0.196,0.434-0.261s0.401-0.097,0.659-0.097c0.211,0,0.488,0.021,0.832,0.064v0.961
			c-0.313-0.039-0.471-0.059-0.475-0.059c-0.234,0-0.39,0.073-0.466,0.22s-0.114,0.37-0.114,0.671v0.58h1.061v0.955h-1.061v5.982
			H45.075z"/>
		<path fill="#00B7AE" d="M49.956,13.871c-0.527,0-0.907-0.139-1.14-0.416s-0.353-0.691-0.36-1.242V7.689h-0.727V6.833h0.727V4.812
			h1.283v2.021h1.113v0.855h-1.113v4.436c0,0.277,0.044,0.473,0.132,0.586s0.255,0.17,0.501,0.17c0.184,0,0.342-0.01,0.475-0.029
			V13.8C50.472,13.847,50.175,13.871,49.956,13.871z"/>
		<path fill="#00B7AE" d="M51.837,13.771V4.056h1.283v3.498c0.57-0.543,1.15-0.814,1.74-0.814c0.195,0,0.363,0.041,0.504,0.123
			s0.248,0.194,0.322,0.337s0.127,0.292,0.158,0.448s0.047,0.326,0.047,0.51v5.613h-1.283V8.533c0-0.266-0.038-0.463-0.114-0.592
			s-0.22-0.193-0.431-0.193c-0.266,0-0.58,0.152-0.943,0.457v5.566H51.837z"/>
		<path fill="#00B7AE" d="M61.487,13.771v-3.428L59.39,4.056h1.26l1.482,4.682l1.465-4.682h1.277l-2.092,6.287v3.428H61.487z"/>
		<path fill="#00B7AE" d="M67.347,13.871c-0.406,0-0.744-0.058-1.014-0.173s-0.479-0.295-0.63-0.539s-0.256-0.529-0.316-0.855
			s-0.091-0.728-0.091-1.204V9.511c0-0.48,0.032-0.886,0.097-1.216s0.173-0.615,0.325-0.855s0.362-0.417,0.63-0.53
			s0.599-0.17,0.993-0.17c0.246,0,0.465,0.023,0.656,0.07s0.356,0.111,0.495,0.193s0.257,0.192,0.354,0.331s0.177,0.285,0.237,0.439
			s0.108,0.342,0.144,0.563s0.059,0.44,0.07,0.659s0.018,0.475,0.018,0.768l-0.006,0.563h-2.73v0.926c0,0.016,0,0.041,0,0.076
			c0,0.195,0.001,0.34,0.003,0.434s0.01,0.216,0.023,0.366s0.036,0.263,0.067,0.337s0.074,0.152,0.129,0.234s0.126,0.14,0.214,0.173
			s0.194,0.05,0.319,0.05c0.277,0,0.466-0.095,0.565-0.284s0.149-0.476,0.149-0.858v-0.422h1.254v0.27
			C69.304,13.123,68.651,13.871,67.347,13.871z M66.579,9.628h1.471V9.001c0-0.184-0.005-0.338-0.015-0.463
			s-0.029-0.246-0.059-0.363s-0.069-0.209-0.12-0.275s-0.12-0.119-0.208-0.158s-0.194-0.059-0.319-0.059
			c-0.305,0-0.506,0.109-0.604,0.328s-0.146,0.633-0.146,1.242V9.628z"/>
		<path fill="#00B7AE" d="M71.718,13.871c-0.395,0-0.726-0.163-0.993-0.489s-0.401-0.7-0.401-1.122c0-0.328,0.054-0.626,0.161-0.894
			s0.222-0.483,0.343-0.647s0.331-0.335,0.63-0.513s0.53-0.304,0.694-0.378s0.451-0.195,0.861-0.363
			c0.023-0.012,0.041-0.02,0.053-0.023V8.943c0-0.449-0.046-0.769-0.138-0.958s-0.278-0.284-0.56-0.284
			c-0.484,0-0.727,0.328-0.727,0.984v0.346L70.37,8.984c0-0.07,0.004-0.156,0.012-0.258c0.039-0.691,0.232-1.195,0.58-1.512
			s0.846-0.475,1.494-0.475c0.668,0,1.15,0.183,1.447,0.548s0.445,0.915,0.445,1.649v3.17c0,0.523,0.039,1.078,0.117,1.664h-1.172
			c-0.082-0.387-0.139-0.729-0.17-1.025c-0.098,0.313-0.265,0.578-0.501,0.797S72.085,13.871,71.718,13.871z M72.228,12.757
			c0.164,0,0.325-0.064,0.483-0.193s0.276-0.256,0.354-0.381V10.22c-0.449,0.254-0.746,0.441-0.891,0.563
			c-0.375,0.305-0.563,0.666-0.563,1.084c0,0.281,0.053,0.5,0.158,0.656S72.028,12.757,72.228,12.757z"/>
		<path fill="#00B7AE" d="M75.614,13.771V6.833h1.283v0.99c0.238-0.398,0.483-0.678,0.735-0.838s0.519-0.24,0.8-0.24
			c0.078,0,0.148,0.004,0.211,0.012v1.418c-0.238-0.09-0.473-0.135-0.703-0.135c-0.215,0-0.403,0.048-0.565,0.144
			s-0.321,0.269-0.478,0.519v5.068H75.614z"/>
	</g>
</g>
</svg>
