<?xml version="1.0" encoding="utf-8"?>
<!-- Generator: Adobe Illustrator 16.0.0, SVG Export Plug-In . SVG Version: 6.00 Build 0)  -->
<!DOCTYPE svg PUBLIC "-//W3C//DTD SVG 1.1//EN" "http://www.w3.org/Graphics/SVG/1.1/DTD/svg11.dtd">
<svg version="1.1" id="Layer_1" xmlns="http://www.w3.org/2000/svg" xmlns:xlink="http://www.w3.org/1999/xlink" x="0px" y="0px"
	 width="1280px" height="800px" viewBox="0 0 1280 800" enable-background="new 0 0 1280 800" xml:space="preserve">
<g id="JobOpportunities">
	<a>
	</a>
	<g id="JobOpportunities_1_" enable-background="new    ">
		<path fill="#00B7AE" d="M324.807,295.156v-1.13c0.357,0,0.637-0.021,0.837-0.064s0.363-0.131,0.49-0.263
			c0.127-0.131,0.211-0.301,0.252-0.51s0.061-0.499,0.061-0.871v-8.711h1.572v8.738c0,0.503-0.038,0.923-0.112,1.259
			c-0.075,0.336-0.204,0.624-0.388,0.864c-0.184,0.239-0.437,0.414-0.755,0.523c-0.32,0.108-0.723,0.163-1.208,0.163
			L324.807,295.156L324.807,295.156z"/>
		<path fill="#00B7AE" d="M332.668,295.013c-0.563,0-1.046-0.084-1.446-0.251c-0.401-0.168-0.72-0.416-0.956-0.742
			c-0.236-0.327-0.409-0.708-0.519-1.145c-0.108-0.436-0.162-0.942-0.162-1.523v-4.273c0-1.176,0.238-2.064,0.718-2.672
			c0.479-0.605,1.267-0.908,2.365-0.908c1.093,0,1.88,0.307,2.36,0.915c0.481,0.61,0.721,1.499,0.721,2.665v4.28
			c0,1.175-0.24,2.078-0.725,2.709C334.543,294.698,333.757,295.013,332.668,295.013z M331.903,293.639
			c0.202,0.095,0.457,0.143,0.767,0.143c0.308,0,0.563-0.048,0.766-0.143c0.202-0.097,0.354-0.24,0.459-0.437
			c0.104-0.195,0.176-0.41,0.215-0.644c0.038-0.233,0.059-0.522,0.059-0.867v-4.941c0-0.34-0.021-0.624-0.059-0.851
			c-0.039-0.228-0.11-0.437-0.215-0.626c-0.104-0.19-0.257-0.33-0.459-0.419c-0.202-0.088-0.458-0.133-0.766-0.133
			c-0.31,0-0.564,0.045-0.767,0.133c-0.202,0.089-0.354,0.229-0.459,0.419c-0.104,0.189-0.176,0.398-0.214,0.626
			c-0.038,0.227-0.058,0.511-0.058,0.851v4.941c0,0.345,0.02,0.634,0.058,0.867c0.038,0.232,0.11,0.447,0.214,0.644
			C331.548,293.399,331.699,293.543,331.903,293.639z"/>
		<path fill="#00B7AE" d="M337.309,294.891v-11.283h2.579c1.024,0,1.786,0.229,2.28,0.687c0.493,0.459,0.741,1.171,0.741,2.139
			c0,1.438-0.54,2.23-1.62,2.382c0.667,0.163,1.153,0.478,1.459,0.941c0.307,0.465,0.46,1.103,0.46,1.909
			c0,1.018-0.238,1.809-0.715,2.375c-0.477,0.567-1.204,0.852-2.185,0.852L337.309,294.891L337.309,294.891z M338.882,288.317h0.925
			c0.648,0,1.099-0.145,1.351-0.433c0.251-0.287,0.377-0.771,0.377-1.452c0-0.224-0.016-0.417-0.047-0.582
			c-0.032-0.166-0.073-0.309-0.123-0.427c-0.05-0.116-0.126-0.217-0.228-0.296c-0.103-0.079-0.206-0.143-0.311-0.189
			c-0.104-0.048-0.246-0.084-0.425-0.109c-0.18-0.023-0.352-0.04-0.518-0.047s-0.377-0.011-0.636-0.011h-0.367L338.882,288.317
			L338.882,288.317z M338.882,293.761h1.062c0.682,0,1.146-0.16,1.396-0.479c0.25-0.32,0.375-0.858,0.375-1.616
			c0-0.722-0.149-1.261-0.446-1.616s-0.782-0.533-1.453-0.533h-0.932L338.882,293.761L338.882,293.761z"/>
		<path fill="#00B7AE" d="M350.669,295.013c-0.563,0-1.046-0.084-1.446-0.251c-0.401-0.168-0.72-0.416-0.956-0.742
			c-0.236-0.327-0.409-0.708-0.519-1.145c-0.108-0.436-0.162-0.942-0.162-1.523v-4.273c0-1.176,0.238-2.064,0.718-2.672
			c0.479-0.605,1.267-0.908,2.365-0.908c1.093,0,1.88,0.307,2.36,0.915c0.481,0.61,0.721,1.499,0.721,2.665v4.28
			c0,1.175-0.24,2.078-0.725,2.709C352.544,294.698,351.758,295.013,350.669,295.013z M349.903,293.639
			c0.202,0.095,0.457,0.143,0.767,0.143c0.308,0,0.563-0.048,0.766-0.143c0.202-0.097,0.354-0.24,0.459-0.437
			c0.104-0.195,0.176-0.41,0.215-0.644c0.038-0.233,0.059-0.522,0.059-0.867v-4.941c0-0.34-0.021-0.624-0.059-0.851
			c-0.039-0.228-0.11-0.437-0.215-0.626c-0.104-0.19-0.257-0.33-0.459-0.419c-0.202-0.088-0.458-0.133-0.766-0.133
			c-0.31,0-0.564,0.045-0.767,0.133c-0.202,0.089-0.354,0.229-0.459,0.419c-0.104,0.189-0.176,0.398-0.214,0.626
			c-0.038,0.227-0.058,0.511-0.058,0.851v4.941c0,0.345,0.02,0.634,0.058,0.867c0.038,0.232,0.11,0.447,0.214,0.644
			C349.548,293.399,349.7,293.543,349.903,293.639z"/>
		<path fill="#00B7AE" d="M355.31,294.891v-11.283h2.797c0.98,0,1.69,0.264,2.13,0.792c0.44,0.529,0.66,1.304,0.66,2.324
			c0,0.917-0.237,1.632-0.711,2.145s-1.165,0.77-2.072,0.77h-1.23v5.254L355.31,294.891L355.31,294.891z M356.882,288.507h0.714
			c0.688,0,1.164-0.122,1.422-0.366c0.258-0.245,0.388-0.716,0.388-1.409c0-0.285-0.006-0.521-0.02-0.704
			c-0.015-0.184-0.044-0.357-0.092-0.521c-0.048-0.163-0.11-0.289-0.188-0.378c-0.077-0.088-0.185-0.164-0.323-0.228
			c-0.138-0.064-0.299-0.106-0.482-0.13c-0.185-0.022-0.412-0.034-0.685-0.034h-0.734V288.507z"/>
		<path fill="#00B7AE" d="M362,294.891v-11.283h2.797c0.979,0,1.689,0.264,2.13,0.792c0.439,0.529,0.66,1.304,0.66,2.324
			c0,0.917-0.237,1.632-0.711,2.145c-0.475,0.513-1.165,0.77-2.072,0.77h-1.231v5.254L362,294.891L362,294.891z M363.572,288.507
			h0.714c0.689,0,1.164-0.122,1.422-0.366c0.259-0.245,0.389-0.716,0.389-1.409c0-0.285-0.006-0.521-0.021-0.704
			c-0.014-0.184-0.044-0.357-0.092-0.521c-0.047-0.163-0.11-0.289-0.187-0.378c-0.077-0.088-0.186-0.164-0.323-0.228
			c-0.138-0.064-0.299-0.106-0.483-0.13c-0.184-0.022-0.412-0.034-0.684-0.034h-0.735V288.507z"/>
		<path fill="#00B7AE" d="M371.562,295.013c-0.563,0-1.045-0.084-1.446-0.251c-0.4-0.168-0.72-0.416-0.956-0.742
			c-0.235-0.327-0.408-0.708-0.518-1.145c-0.109-0.436-0.163-0.942-0.163-1.523v-4.273c0-1.176,0.239-2.064,0.718-2.672
			c0.479-0.605,1.268-0.908,2.365-0.908c1.093,0,1.88,0.307,2.361,0.915c0.48,0.61,0.721,1.499,0.721,2.665v4.28
			c0,1.175-0.241,2.078-0.725,2.709C373.437,294.698,372.651,295.013,371.562,295.013z M370.796,293.639
			c0.201,0.095,0.457,0.143,0.766,0.143c0.308,0,0.563-0.048,0.766-0.143c0.202-0.097,0.355-0.24,0.459-0.437
			c0.104-0.195,0.177-0.41,0.216-0.644c0.037-0.233,0.058-0.522,0.058-0.867v-4.941c0-0.34-0.021-0.624-0.058-0.851
			c-0.039-0.228-0.11-0.437-0.216-0.626c-0.104-0.19-0.257-0.33-0.459-0.419c-0.202-0.088-0.458-0.133-0.766-0.133
			c-0.309,0-0.564,0.045-0.766,0.133c-0.202,0.089-0.355,0.229-0.459,0.419c-0.104,0.189-0.177,0.398-0.215,0.626
			c-0.037,0.227-0.058,0.511-0.058,0.851v4.941c0,0.345,0.02,0.634,0.058,0.867c0.038,0.232,0.11,0.447,0.215,0.644
			C370.441,293.399,370.594,293.543,370.796,293.639z"/>
		<path fill="#00B7AE" d="M376.202,294.891v-11.283h2.267c1.144,0,1.98,0.232,2.515,0.7c0.533,0.468,0.8,1.229,0.8,2.287
			c0,1.451-0.465,2.329-1.395,2.634l1.613,5.662h-1.524l-1.484-5.295h-1.218v5.295H376.202z M377.775,288.466h0.592
			c0.686,0,1.175-0.135,1.468-0.403c0.292-0.271,0.438-0.759,0.438-1.467c0-0.687-0.126-1.166-0.378-1.442
			c-0.252-0.277-0.727-0.416-1.426-0.416h-0.694V288.466L377.775,288.466z"/>
		<path fill="#00B7AE" d="M384.594,294.891v-10.12h-2.063v-1.163h5.622v1.163h-1.987v10.12H384.594z"/>
		<path fill="#00B7AE" d="M393.176,294.826c-0.354,0.125-0.771,0.188-1.252,0.188c-0.481,0-0.899-0.063-1.255-0.188
			c-0.356-0.125-0.646-0.295-0.868-0.511c-0.224-0.215-0.4-0.492-0.534-0.83s-0.227-0.696-0.276-1.075s-0.075-0.82-0.075-1.324
			v-7.479h1.497v7.554c0,0.322,0.01,0.603,0.027,0.837c0.018,0.236,0.059,0.475,0.123,0.711c0.063,0.238,0.148,0.432,0.255,0.575
			c0.107,0.146,0.253,0.265,0.439,0.357c0.186,0.092,0.408,0.14,0.667,0.14s0.479-0.047,0.664-0.14
			c0.184-0.094,0.328-0.213,0.436-0.36s0.192-0.339,0.255-0.575c0.063-0.235,0.104-0.472,0.123-0.708
			c0.019-0.234,0.027-0.515,0.027-0.837v-7.554h1.497v7.479c0,0.504-0.025,0.945-0.075,1.324s-0.143,0.737-0.276,1.075
			s-0.312,0.615-0.534,0.83C393.818,294.531,393.53,294.701,393.176,294.826z"/>
		<path fill="#00B7AE" d="M396.593,294.891v-11.283h1.067l3.206,7.492v-7.492h1.313v11.283h-1.007l-3.253-7.711v7.711H396.593z"/>
		<path fill="#00B7AE" d="M404.024,294.891v-11.283h1.545v11.283H404.024z"/>
		<path fill="#00B7AE" d="M408.556,294.891v-10.12h-2.063v-1.163h5.622v1.163h-1.986v10.12H408.556z"/>
		<path fill="#00B7AE" d="M413.055,294.891v-11.283h1.545v11.283H413.055z"/>
		<path fill="#00B7AE" d="M416.431,294.891v-11.283h4.369v1.163h-2.797v3.729h2.272v1.123h-2.272v4.139h2.831v1.13H416.431z"/>
		<path fill="#00B7AE" d="M424.761,295.013c-0.948,0-1.671-0.292-2.168-0.878s-0.774-1.387-0.833-2.402l1.401-0.381
			c0.101,1.614,0.634,2.423,1.601,2.423c0.403,0,0.711-0.112,0.922-0.337c0.211-0.226,0.316-0.556,0.316-0.99
			c0-0.24-0.028-0.46-0.086-0.66c-0.057-0.199-0.149-0.39-0.278-0.571s-0.252-0.332-0.368-0.452s-0.28-0.279-0.493-0.479
			l-1.892-1.681c-0.381-0.346-0.659-0.709-0.834-1.093s-0.263-0.853-0.263-1.405c0-0.816,0.237-1.453,0.711-1.909
			c0.475-0.456,1.122-0.688,1.943-0.697c0.903-0.014,1.579,0.22,2.028,0.697c0.449,0.479,0.719,1.22,0.81,2.223l-1.327,0.367
			c-0.018-0.245-0.043-0.463-0.074-0.653c-0.032-0.189-0.084-0.382-0.156-0.574c-0.073-0.192-0.161-0.351-0.267-0.471
			c-0.104-0.12-0.242-0.215-0.415-0.284c-0.172-0.07-0.371-0.1-0.599-0.087c-0.831,0.061-1.246,0.474-1.246,1.239
			c0,0.331,0.058,0.607,0.17,0.83c0.114,0.223,0.305,0.456,0.572,0.701l1.906,1.681c0.494,0.445,0.888,0.921,1.181,1.431
			c0.292,0.508,0.439,1.084,0.439,1.729c0,0.825-0.25,1.479-0.749,1.963C426.215,294.775,425.564,295.013,424.761,295.013z"/>
	</g>
</g>
<g id="ContactUs_1_">
	<g id="ContactUs" enable-background="new    ">
		<path fill="#00B7AE" d="M717.486,142.197c-0.467,0-0.877-0.063-1.23-0.19c-0.354-0.127-0.645-0.299-0.868-0.517
			c-0.225-0.218-0.408-0.489-0.551-0.813c-0.144-0.324-0.241-0.666-0.297-1.024c-0.054-0.358-0.08-0.76-0.08-1.204v-3.988
			c0-0.477,0.026-0.899,0.084-1.271c0.057-0.372,0.155-0.72,0.297-1.042c0.141-0.321,0.323-0.587,0.551-0.796
			c0.227-0.209,0.516-0.372,0.867-0.49c0.351-0.118,0.762-0.177,1.229-0.177c1.018,0,1.745,0.273,2.187,0.822
			c0.438,0.55,0.659,1.357,0.659,2.424v0.897h-1.489v-0.796c0-0.173-0.002-0.308-0.004-0.405c-0.003-0.097-0.008-0.219-0.015-0.363
			c-0.007-0.146-0.02-0.26-0.037-0.341c-0.019-0.082-0.043-0.177-0.071-0.285c-0.029-0.108-0.066-0.193-0.111-0.256
			c-0.046-0.062-0.104-0.127-0.17-0.196c-0.068-0.07-0.146-0.123-0.232-0.157c-0.086-0.033-0.188-0.063-0.307-0.085
			c-0.117-0.022-0.249-0.034-0.396-0.034c-0.217,0-0.407,0.024-0.57,0.072c-0.163,0.047-0.297,0.122-0.401,0.225
			c-0.104,0.103-0.188,0.214-0.256,0.337c-0.065,0.122-0.113,0.279-0.146,0.474c-0.032,0.191-0.055,0.379-0.065,0.558
			c-0.011,0.18-0.017,0.4-0.017,0.664v4.464c0,0.849,0.105,1.438,0.318,1.771c0.214,0.332,0.593,0.497,1.137,0.497
			c0.209,0,0.391-0.022,0.541-0.068c0.152-0.045,0.277-0.12,0.375-0.226c0.099-0.104,0.177-0.213,0.234-0.325
			c0.058-0.113,0.104-0.268,0.129-0.46c0.027-0.192,0.045-0.37,0.052-0.534c0.008-0.163,0.012-0.376,0.012-0.641v-0.829h1.489v0.837
			c0,0.432-0.026,0.816-0.082,1.156c-0.055,0.341-0.146,0.659-0.278,0.956c-0.131,0.298-0.304,0.544-0.519,0.738
			c-0.213,0.195-0.483,0.349-0.815,0.46C718.305,142.141,717.922,142.197,717.486,142.197z"/>
		<path fill="#00B7AE" d="M724.715,142.197c-0.563,0-1.045-0.084-1.447-0.251c-0.4-0.168-0.72-0.416-0.955-0.742
			c-0.236-0.327-0.409-0.708-0.518-1.144c-0.109-0.437-0.164-0.943-0.164-1.524v-4.272c0-1.177,0.239-2.065,0.719-2.673
			c0.479-0.604,1.267-0.907,2.365-0.907c1.093,0,1.88,0.306,2.36,0.915s0.722,1.499,0.722,2.665v4.279
			c0,1.175-0.241,2.078-0.726,2.709C726.59,141.882,725.802,142.197,724.715,142.197z M723.948,140.823
			c0.201,0.095,0.457,0.143,0.767,0.143c0.308,0,0.563-0.048,0.766-0.143c0.201-0.096,0.354-0.24,0.459-0.436
			c0.104-0.195,0.176-0.41,0.215-0.645c0.037-0.232,0.058-0.521,0.058-0.867v-4.94c0-0.34-0.021-0.624-0.058-0.852
			c-0.039-0.227-0.111-0.436-0.215-0.626c-0.104-0.189-0.258-0.33-0.459-0.419c-0.203-0.088-0.458-0.133-0.766-0.133
			c-0.31,0-0.564,0.045-0.767,0.133c-0.203,0.089-0.354,0.229-0.46,0.419c-0.104,0.19-0.176,0.399-0.214,0.626
			c-0.039,0.228-0.059,0.512-0.059,0.852v4.94c0,0.346,0.02,0.635,0.059,0.867c0.038,0.233,0.109,0.448,0.214,0.645
			C723.594,140.583,723.745,140.727,723.948,140.823z"/>
		<path fill="#00B7AE" d="M729.355,142.074v-11.283h1.068l3.206,7.492v-7.492h1.313v11.283h-1.008l-3.252-7.711v7.711H729.355z"/>
		<path fill="#00B7AE" d="M737.868,142.074v-10.12h-2.063v-1.163h5.622v1.163h-1.987v10.12H737.868z"/>
		<path fill="#00B7AE" d="M741.627,142.074l2.407-11.283h1.519l2.41,11.283h-1.498l-0.519-2.845h-2.293l-0.537,2.845H741.627z
			 M743.858,138.107h1.886l-0.945-5.099L743.858,138.107z"/>
		<path fill="#00B7AE" d="M751.923,142.197c-0.469,0-0.878-0.063-1.231-0.19c-0.353-0.127-0.644-0.299-0.868-0.517
			c-0.224-0.218-0.408-0.489-0.552-0.813c-0.143-0.324-0.24-0.666-0.295-1.024s-0.082-0.76-0.082-1.204v-3.988
			c0-0.477,0.028-0.899,0.085-1.271s0.155-0.72,0.296-1.042c0.142-0.321,0.324-0.587,0.551-0.796
			c0.229-0.209,0.518-0.372,0.868-0.49c0.352-0.118,0.761-0.177,1.229-0.177c1.017,0,1.745,0.273,2.185,0.822
			c0.44,0.55,0.66,1.357,0.66,2.424v0.897h-1.49v-0.796c0-0.173-0.002-0.308-0.004-0.405c-0.002-0.097-0.006-0.219-0.014-0.363
			c-0.006-0.146-0.021-0.26-0.037-0.341c-0.019-0.082-0.042-0.177-0.071-0.285s-0.066-0.193-0.111-0.256
			c-0.045-0.062-0.103-0.127-0.17-0.196c-0.068-0.07-0.146-0.123-0.231-0.157c-0.087-0.033-0.188-0.063-0.307-0.085
			s-0.249-0.034-0.396-0.034c-0.218,0-0.408,0.024-0.571,0.072c-0.164,0.047-0.297,0.122-0.401,0.225s-0.189,0.214-0.255,0.337
			c-0.065,0.122-0.114,0.279-0.146,0.474c-0.033,0.191-0.055,0.379-0.064,0.558c-0.012,0.18-0.018,0.4-0.018,0.664v4.464
			c0,0.849,0.106,1.438,0.319,1.771c0.214,0.332,0.593,0.497,1.137,0.497c0.208,0,0.39-0.022,0.541-0.068
			c0.151-0.045,0.276-0.12,0.374-0.226c0.098-0.104,0.176-0.213,0.235-0.325c0.059-0.113,0.103-0.268,0.129-0.46
			s0.044-0.37,0.052-0.534c0.006-0.163,0.01-0.376,0.01-0.641v-0.829h1.49v0.837c0,0.432-0.027,0.816-0.082,1.156
			c-0.055,0.341-0.146,0.659-0.279,0.956c-0.131,0.298-0.303,0.544-0.517,0.738c-0.214,0.195-0.485,0.349-0.816,0.46
			C752.741,142.141,752.358,142.197,751.923,142.197z"/>
		<path fill="#00B7AE" d="M757.435,142.074v-10.12h-2.063v-1.163h5.622v1.163h-1.986v10.12H757.435z"/>
		<path fill="#00B7AE" d="M769.202,142.01c-0.354,0.125-0.771,0.187-1.253,0.187c-0.481,0-0.898-0.062-1.255-0.187
			s-0.646-0.296-0.868-0.512c-0.223-0.215-0.399-0.492-0.533-0.83c-0.136-0.338-0.228-0.695-0.275-1.074
			c-0.051-0.38-0.075-0.82-0.075-1.324v-7.479h1.497v7.555c0,0.321,0.01,0.602,0.027,0.837s0.059,0.474,0.123,0.711
			c0.063,0.237,0.147,0.431,0.254,0.574c0.106,0.146,0.254,0.266,0.438,0.357c0.186,0.092,0.408,0.14,0.667,0.14
			c0.26,0,0.479-0.047,0.663-0.14c0.186-0.093,0.33-0.213,0.437-0.36c0.106-0.146,0.191-0.339,0.256-0.574
			c0.063-0.236,0.104-0.473,0.123-0.708c0.018-0.235,0.026-0.516,0.026-0.837v-7.555h1.496v7.479c0,0.504-0.023,0.944-0.073,1.324
			c-0.052,0.379-0.144,0.736-0.275,1.074c-0.135,0.338-0.313,0.615-0.535,0.83C769.844,141.715,769.556,141.885,769.202,142.01z"/>
		<path fill="#00B7AE" d="M775.273,142.197c-0.949,0-1.672-0.292-2.168-0.878c-0.497-0.585-0.775-1.386-0.834-2.402l1.402-0.381
			c0.1,1.615,0.633,2.423,1.6,2.423c0.403,0,0.711-0.111,0.922-0.337c0.211-0.225,0.316-0.555,0.316-0.99
			c0-0.239-0.029-0.46-0.086-0.659c-0.058-0.199-0.149-0.391-0.278-0.571c-0.13-0.182-0.252-0.332-0.368-0.453
			c-0.115-0.12-0.279-0.279-0.492-0.479l-1.893-1.682c-0.381-0.345-0.659-0.709-0.834-1.093c-0.174-0.383-0.262-0.853-0.262-1.405
			c0-0.815,0.235-1.453,0.711-1.909c0.475-0.456,1.122-0.688,1.942-0.696c0.902-0.015,1.578,0.219,2.027,0.696
			c0.449,0.479,0.72,1.221,0.811,2.224l-1.327,0.367c-0.019-0.245-0.044-0.464-0.074-0.653c-0.031-0.19-0.084-0.382-0.156-0.575
			c-0.072-0.191-0.161-0.35-0.267-0.47c-0.104-0.12-0.241-0.215-0.414-0.285c-0.174-0.07-0.372-0.099-0.6-0.086
			c-0.83,0.06-1.246,0.473-1.246,1.239c0,0.331,0.058,0.606,0.17,0.83c0.114,0.223,0.306,0.456,0.572,0.7l1.906,1.682
			c0.494,0.444,0.888,0.921,1.18,1.43c0.293,0.508,0.439,1.084,0.439,1.729c0,0.824-0.25,1.479-0.748,1.963
			C776.726,141.955,776.075,142.197,775.273,142.197z"/>
	</g>
</g>
<g id="AcademicPolicies">
	<g id="AcademicPolicies_1_" enable-background="new    ">
		<path fill="#00B7AE" d="M849.2,294.891l2.408-11.283h1.519l2.409,11.283h-1.498l-0.518-2.846h-2.293l-0.537,2.846H849.2z
			 M851.432,290.923h1.886l-0.946-5.098L851.432,290.923z"/>
		<path fill="#00B7AE" d="M859.496,295.013c-0.468,0-0.878-0.063-1.23-0.19c-0.354-0.127-0.645-0.299-0.868-0.517
			c-0.224-0.219-0.408-0.489-0.552-0.813s-0.24-0.666-0.295-1.023c-0.056-0.358-0.082-0.761-0.082-1.204v-3.988
			c0-0.478,0.027-0.9,0.085-1.272c0.057-0.372,0.155-0.72,0.296-1.042c0.141-0.32,0.324-0.587,0.551-0.796
			c0.229-0.209,0.518-0.372,0.868-0.489c0.351-0.118,0.761-0.178,1.229-0.178c1.017,0,1.744,0.274,2.185,0.823
			s0.66,1.357,0.66,2.423v0.898h-1.49v-0.796c0-0.173-0.002-0.309-0.004-0.405s-0.006-0.219-0.014-0.364
			c-0.007-0.145-0.021-0.259-0.037-0.34c-0.019-0.082-0.042-0.177-0.071-0.286c-0.03-0.107-0.067-0.192-0.112-0.255
			c-0.045-0.062-0.102-0.127-0.17-0.197c-0.067-0.069-0.146-0.123-0.23-0.156c-0.087-0.033-0.188-0.063-0.308-0.085
			c-0.117-0.022-0.249-0.034-0.395-0.034c-0.218,0-0.408,0.023-0.571,0.071c-0.164,0.048-0.297,0.122-0.401,0.226
			c-0.104,0.102-0.189,0.214-0.256,0.337c-0.064,0.122-0.113,0.279-0.146,0.473c-0.033,0.192-0.055,0.379-0.065,0.559
			s-0.017,0.399-0.017,0.664v4.464c0,0.849,0.106,1.438,0.319,1.77c0.214,0.332,0.593,0.497,1.137,0.497
			c0.208,0,0.39-0.021,0.541-0.067c0.15-0.046,0.275-0.12,0.374-0.226c0.098-0.104,0.176-0.213,0.235-0.326
			c0.059-0.112,0.103-0.267,0.129-0.46c0.026-0.191,0.044-0.37,0.052-0.534c0.006-0.162,0.01-0.376,0.01-0.64v-0.83h1.49v0.837
			c0,0.433-0.027,0.817-0.082,1.157s-0.146,0.659-0.279,0.956c-0.131,0.298-0.303,0.544-0.517,0.738s-0.485,0.349-0.816,0.46
			C860.316,294.957,859.932,295.013,859.496,295.013z"/>
		<path fill="#00B7AE" d="M863.226,294.891l2.41-11.283h1.518l2.408,11.283h-1.497l-0.517-2.846h-2.294l-0.538,2.846H863.226z
			 M865.459,290.923h1.885l-0.945-5.098L865.459,290.923z"/>
		<path fill="#00B7AE" d="M870.705,294.891v-11.283h2.45c1.222,0,2.081,0.275,2.582,0.83c0.502,0.554,0.752,1.425,0.752,2.612v4.151
			c0,1.238-0.248,2.163-0.744,2.773c-0.498,0.609-1.321,0.915-2.475,0.915L870.705,294.891L870.705,294.891z M872.278,293.761h0.884
			c0.241,0,0.453-0.023,0.638-0.071c0.184-0.048,0.338-0.104,0.459-0.17c0.123-0.066,0.227-0.172,0.311-0.316
			c0.084-0.146,0.146-0.279,0.19-0.401c0.043-0.122,0.075-0.305,0.099-0.545c0.022-0.239,0.036-0.444,0.041-0.615
			c0.004-0.17,0.007-0.416,0.007-0.738v-3.668c0-0.272-0.005-0.501-0.014-0.688c-0.009-0.186-0.027-0.372-0.055-0.558
			c-0.027-0.188-0.067-0.338-0.122-0.456c-0.056-0.118-0.125-0.23-0.211-0.337c-0.086-0.107-0.193-0.188-0.32-0.245
			s-0.277-0.101-0.449-0.133c-0.172-0.031-0.374-0.048-0.604-0.048h-0.852L872.278,293.761L872.278,293.761z"/>
		<path fill="#00B7AE" d="M878.049,294.891v-11.283h4.369v1.163h-2.798v3.729h2.273v1.123h-2.273v4.139h2.832v1.13H878.049z"/>
		<path fill="#00B7AE" d="M883.691,294.891l0.211-11.283h1.537l1.994,9.153l2.008-9.153h1.539l0.211,11.283h-1.272l-0.123-8.201
			l-1.912,8.201h-0.886l-1.897-8.201l-0.123,8.201H883.691L883.691,294.891z"/>
		<path fill="#00B7AE" d="M893,294.891v-11.283h1.546v11.283H893z"/>
		<path fill="#00B7AE" d="M899.193,295.013c-0.467,0-0.877-0.063-1.23-0.19c-0.354-0.127-0.645-0.299-0.868-0.517
			c-0.225-0.219-0.408-0.489-0.551-0.813c-0.144-0.324-0.241-0.666-0.297-1.023c-0.054-0.358-0.081-0.761-0.081-1.204v-3.988
			c0-0.478,0.027-0.9,0.084-1.272c0.058-0.372,0.156-0.72,0.298-1.042c0.141-0.32,0.323-0.587,0.551-0.796
			c0.227-0.209,0.516-0.372,0.867-0.489c0.351-0.118,0.762-0.178,1.229-0.178c1.018,0,1.745,0.274,2.187,0.823
			c0.438,0.549,0.659,1.357,0.659,2.423v0.898h-1.489v-0.796c0-0.173-0.002-0.309-0.005-0.405c-0.002-0.097-0.007-0.219-0.014-0.364
			c-0.007-0.145-0.02-0.259-0.037-0.34c-0.019-0.082-0.043-0.177-0.071-0.286c-0.029-0.107-0.066-0.192-0.111-0.255
			c-0.046-0.062-0.104-0.127-0.17-0.197c-0.068-0.069-0.146-0.123-0.232-0.156s-0.188-0.063-0.307-0.085
			c-0.117-0.022-0.249-0.034-0.396-0.034c-0.217,0-0.407,0.023-0.57,0.071s-0.297,0.122-0.401,0.226
			c-0.104,0.102-0.188,0.214-0.256,0.337c-0.065,0.122-0.113,0.279-0.146,0.473c-0.031,0.192-0.054,0.379-0.064,0.559
			s-0.018,0.399-0.018,0.664v4.464c0,0.849,0.106,1.438,0.319,1.77c0.214,0.332,0.593,0.497,1.137,0.497
			c0.209,0,0.391-0.021,0.541-0.067c0.152-0.046,0.277-0.12,0.375-0.226c0.099-0.104,0.177-0.213,0.234-0.326
			c0.058-0.112,0.104-0.267,0.129-0.46c0.027-0.191,0.045-0.37,0.052-0.534c0.008-0.162,0.012-0.376,0.012-0.64v-0.83h1.489v0.837
			c0,0.433-0.026,0.817-0.082,1.157c-0.055,0.34-0.146,0.659-0.278,0.956c-0.131,0.298-0.305,0.544-0.519,0.738
			c-0.213,0.194-0.483,0.349-0.815,0.46C900.012,294.957,899.629,295.013,899.193,295.013z"/>
		<path fill="#00B7AE" d="M906.734,294.891v-11.283h2.797c0.98,0,1.69,0.264,2.131,0.792c0.439,0.529,0.66,1.304,0.66,2.324
			c0,0.917-0.237,1.632-0.711,2.145c-0.475,0.513-1.165,0.77-2.072,0.77h-1.231v5.254L906.734,294.891L906.734,294.891z
			 M908.306,288.507h0.715c0.689,0,1.164-0.122,1.422-0.366c0.26-0.245,0.39-0.716,0.39-1.409c0-0.285-0.008-0.521-0.021-0.704
			c-0.014-0.184-0.044-0.357-0.093-0.521c-0.047-0.163-0.109-0.289-0.188-0.378c-0.077-0.088-0.185-0.164-0.323-0.228
			c-0.138-0.064-0.299-0.106-0.481-0.13c-0.185-0.022-0.412-0.034-0.685-0.034h-0.735V288.507z"/>
		<path fill="#00B7AE" d="M916.297,295.013c-0.563,0-1.045-0.084-1.446-0.251c-0.401-0.168-0.72-0.416-0.956-0.742
			c-0.236-0.327-0.408-0.708-0.518-1.145c-0.11-0.436-0.163-0.942-0.163-1.523v-4.273c0-1.176,0.238-2.064,0.718-2.672
			c0.479-0.605,1.268-0.908,2.365-0.908c1.094,0,1.881,0.307,2.36,0.915c0.48,0.61,0.722,1.499,0.722,2.665v4.28
			c0,1.175-0.24,2.078-0.726,2.709C918.172,294.698,917.385,295.013,916.297,295.013z M915.531,293.639
			c0.201,0.095,0.457,0.143,0.767,0.143c0.309,0,0.563-0.048,0.766-0.143c0.201-0.097,0.355-0.24,0.459-0.437
			c0.104-0.195,0.176-0.41,0.215-0.644c0.038-0.233,0.059-0.522,0.059-0.867v-4.941c0-0.34-0.021-0.624-0.059-0.851
			c-0.039-0.228-0.109-0.437-0.215-0.626c-0.104-0.19-0.258-0.33-0.459-0.419c-0.202-0.088-0.457-0.133-0.766-0.133
			c-0.31,0-0.564,0.045-0.767,0.133c-0.202,0.089-0.354,0.229-0.459,0.419c-0.104,0.189-0.176,0.398-0.215,0.626
			c-0.039,0.227-0.059,0.511-0.059,0.851v4.941c0,0.345,0.02,0.634,0.059,0.867c0.039,0.232,0.109,0.447,0.215,0.644
			C915.176,293.399,915.328,293.543,915.531,293.639z"/>
		<path fill="#00B7AE" d="M920.937,294.891v-11.283h1.572v10.153h2.879v1.13H920.937z"/>
		<path fill="#00B7AE" d="M926.545,294.891v-11.283h1.545v11.283H926.545z"/>
		<path fill="#00B7AE" d="M932.738,295.013c-0.467,0-0.877-0.063-1.23-0.19c-0.354-0.127-0.645-0.299-0.868-0.517
			c-0.225-0.219-0.408-0.489-0.551-0.813c-0.144-0.324-0.241-0.666-0.297-1.023c-0.054-0.358-0.08-0.761-0.08-1.204v-3.988
			c0-0.478,0.026-0.9,0.084-1.272c0.057-0.372,0.155-0.72,0.297-1.042c0.141-0.32,0.323-0.587,0.551-0.796
			c0.227-0.209,0.516-0.372,0.867-0.489c0.351-0.118,0.762-0.178,1.229-0.178c1.018,0,1.745,0.274,2.187,0.823
			c0.438,0.549,0.659,1.357,0.659,2.423v0.898h-1.489v-0.796c0-0.173-0.002-0.309-0.004-0.405c-0.003-0.097-0.008-0.219-0.015-0.364
			c-0.007-0.145-0.02-0.259-0.037-0.34c-0.019-0.082-0.043-0.177-0.071-0.286c-0.029-0.107-0.066-0.192-0.111-0.255
			c-0.046-0.062-0.104-0.127-0.17-0.197c-0.068-0.069-0.146-0.123-0.232-0.156s-0.188-0.063-0.307-0.085
			c-0.117-0.022-0.249-0.034-0.396-0.034c-0.217,0-0.407,0.023-0.57,0.071s-0.297,0.122-0.401,0.226
			c-0.104,0.102-0.188,0.214-0.256,0.337c-0.065,0.122-0.113,0.279-0.146,0.473c-0.032,0.192-0.055,0.379-0.065,0.559
			s-0.017,0.399-0.017,0.664v4.464c0,0.849,0.105,1.438,0.318,1.77c0.214,0.332,0.593,0.497,1.137,0.497
			c0.209,0,0.391-0.021,0.541-0.067c0.152-0.046,0.277-0.12,0.375-0.226c0.099-0.104,0.177-0.213,0.234-0.326
			c0.058-0.112,0.104-0.267,0.129-0.46c0.027-0.191,0.045-0.37,0.052-0.534c0.008-0.162,0.012-0.376,0.012-0.64v-0.83h1.489v0.837
			c0,0.433-0.026,0.817-0.082,1.157c-0.055,0.34-0.146,0.659-0.278,0.956c-0.131,0.298-0.304,0.544-0.519,0.738
			c-0.213,0.194-0.483,0.349-0.815,0.46C933.557,294.957,933.174,295.013,932.738,295.013z"/>
		<path fill="#00B7AE" d="M937.169,294.891v-11.283h1.545v11.283H937.169z"/>
		<path fill="#00B7AE" d="M940.545,294.891v-11.283h4.368v1.163h-2.797v3.729h2.273v1.123h-2.273v4.139h2.831v1.13H940.545z"/>
		<path fill="#00B7AE" d="M948.875,295.013c-0.948,0-1.672-0.292-2.169-0.878c-0.495-0.586-0.773-1.387-0.834-2.402l1.402-0.381
			c0.1,1.614,0.633,2.423,1.6,2.423c0.404,0,0.712-0.112,0.923-0.337c0.211-0.226,0.315-0.556,0.315-0.99
			c0-0.24-0.028-0.46-0.085-0.66c-0.057-0.199-0.148-0.39-0.278-0.571s-0.252-0.332-0.367-0.452c-0.116-0.12-0.28-0.279-0.493-0.479
			l-1.894-1.681c-0.381-0.346-0.657-0.709-0.834-1.093c-0.174-0.384-0.262-0.853-0.262-1.405c0-0.816,0.237-1.453,0.711-1.909
			c0.475-0.456,1.123-0.688,1.943-0.697c0.902-0.014,1.579,0.22,2.027,0.697c0.449,0.479,0.721,1.22,0.811,2.223l-1.326,0.367
			c-0.019-0.245-0.044-0.463-0.076-0.653c-0.031-0.189-0.084-0.382-0.156-0.574c-0.071-0.192-0.159-0.351-0.266-0.471
			c-0.104-0.12-0.242-0.215-0.414-0.284c-0.173-0.07-0.373-0.1-0.6-0.087c-0.83,0.061-1.245,0.474-1.245,1.239
			c0,0.331,0.057,0.607,0.17,0.83c0.114,0.223,0.304,0.456,0.571,0.701l1.905,1.681c0.494,0.445,0.89,0.921,1.182,1.431
			c0.292,0.508,0.438,1.084,0.438,1.729c0,0.825-0.249,1.479-0.748,1.963C950.327,294.775,949.677,295.013,948.875,295.013z"/>
	</g>
</g>
<g id="Curriculum">
	<g id="Curriculum_1_" enable-background="new    ">
		<path fill="#00B7AE" d="M347.094,511.957c-0.467,0-0.878-0.063-1.232-0.189c-0.354-0.127-0.643-0.299-0.868-0.518
			c-0.225-0.218-0.407-0.488-0.551-0.813c-0.143-0.324-0.241-0.666-0.296-1.024c-0.054-0.357-0.082-0.76-0.082-1.203v-3.988
			c0-0.478,0.028-0.9,0.085-1.272s0.155-0.72,0.296-1.042c0.142-0.32,0.325-0.587,0.551-0.796c0.228-0.209,0.517-0.372,0.868-0.49
			c0.353-0.117,0.761-0.177,1.229-0.177c1.016,0,1.745,0.274,2.185,0.823c0.44,0.549,0.66,1.357,0.66,2.423v0.898h-1.49v-0.796
			c0-0.174-0.001-0.309-0.003-0.405c-0.002-0.099-0.007-0.219-0.014-0.364c-0.007-0.145-0.021-0.259-0.038-0.34
			c-0.018-0.082-0.042-0.177-0.071-0.286c-0.029-0.108-0.066-0.193-0.111-0.255c-0.046-0.063-0.103-0.127-0.171-0.197
			c-0.067-0.069-0.146-0.123-0.23-0.157c-0.086-0.032-0.188-0.062-0.307-0.085c-0.118-0.021-0.25-0.033-0.396-0.033
			c-0.218,0-0.408,0.023-0.572,0.071c-0.163,0.047-0.297,0.122-0.4,0.226c-0.104,0.102-0.189,0.214-0.255,0.337
			c-0.066,0.122-0.114,0.278-0.146,0.473c-0.032,0.192-0.054,0.379-0.064,0.559c-0.012,0.18-0.018,0.399-0.018,0.663v4.465
			c0,0.849,0.107,1.438,0.32,1.77s0.592,0.497,1.137,0.497c0.208,0,0.389-0.022,0.541-0.068c0.152-0.045,0.277-0.119,0.375-0.225
			c0.097-0.104,0.176-0.213,0.235-0.326c0.059-0.113,0.102-0.267,0.129-0.46c0.026-0.191,0.044-0.37,0.051-0.534
			c0.007-0.163,0.01-0.376,0.01-0.64v-0.83h1.49v0.837c0,0.433-0.027,0.817-0.082,1.157s-0.146,0.659-0.279,0.956
			c-0.131,0.298-0.304,0.544-0.517,0.738s-0.485,0.349-0.816,0.46C347.912,511.902,347.53,511.957,347.094,511.957z"/>
		<path fill="#00B7AE" d="M355.608,511.771c-0.354,0.125-0.771,0.188-1.252,0.188s-0.899-0.063-1.255-0.188
			c-0.356-0.125-0.646-0.295-0.868-0.511c-0.223-0.215-0.4-0.492-0.534-0.83s-0.226-0.696-0.275-1.075
			c-0.051-0.379-0.075-0.82-0.075-1.324v-7.479h1.497v7.554c0,0.322,0.009,0.602,0.026,0.837c0.019,0.236,0.06,0.475,0.123,0.711
			c0.063,0.238,0.148,0.432,0.255,0.575c0.107,0.146,0.254,0.265,0.439,0.357c0.186,0.092,0.409,0.14,0.667,0.14
			c0.259,0,0.48-0.047,0.664-0.14c0.184-0.094,0.329-0.214,0.436-0.36c0.107-0.147,0.192-0.339,0.256-0.575
			c0.063-0.236,0.104-0.472,0.122-0.708c0.019-0.234,0.027-0.515,0.027-0.837v-7.554h1.497v7.479c0,0.504-0.025,0.945-0.075,1.324
			s-0.142,0.737-0.275,1.075c-0.135,0.338-0.313,0.615-0.534,0.83C356.25,511.476,355.962,511.646,355.608,511.771z"/>
		<path fill="#00B7AE" d="M359.025,511.836v-11.283h2.266c1.145,0,1.981,0.232,2.516,0.7c0.533,0.468,0.8,1.229,0.8,2.286
			c0,1.452-0.465,2.33-1.395,2.635l1.612,5.662H363.3l-1.484-5.296h-1.218v5.296H359.025z M360.597,505.41h0.592
			c0.685,0,1.174-0.135,1.467-0.403c0.292-0.271,0.439-0.76,0.439-1.468c0-0.686-0.126-1.166-0.378-1.441
			c-0.252-0.277-0.728-0.416-1.426-0.416h-0.694V505.41L360.597,505.41z"/>
		<path fill="#00B7AE" d="M366.259,511.836v-11.283h2.266c1.145,0,1.981,0.232,2.515,0.7s0.801,1.229,0.801,2.286
			c0,1.452-0.465,2.33-1.396,2.635l1.613,5.662h-1.524l-1.483-5.296h-1.218v5.296H366.259z M367.83,505.41h0.593
			c0.685,0,1.174-0.135,1.467-0.403c0.292-0.271,0.438-0.76,0.438-1.468c0-0.686-0.126-1.166-0.378-1.441
			c-0.252-0.277-0.727-0.416-1.426-0.416h-0.694V505.41L367.83,505.41z"/>
		<path fill="#00B7AE" d="M373.568,511.836v-11.283h1.545v11.283H373.568z"/>
		<path fill="#00B7AE" d="M379.761,511.957c-0.467,0-0.878-0.063-1.232-0.189c-0.354-0.127-0.643-0.299-0.868-0.518
			c-0.225-0.218-0.407-0.488-0.551-0.813c-0.143-0.324-0.241-0.666-0.296-1.024c-0.054-0.357-0.082-0.76-0.082-1.203v-3.988
			c0-0.478,0.028-0.9,0.085-1.272s0.155-0.72,0.296-1.042c0.142-0.32,0.325-0.587,0.551-0.796c0.228-0.209,0.517-0.372,0.868-0.49
			c0.353-0.117,0.762-0.177,1.229-0.177c1.016,0,1.745,0.274,2.185,0.823c0.44,0.549,0.66,1.357,0.66,2.423v0.898h-1.49v-0.796
			c0-0.174-0.001-0.309-0.003-0.405c-0.002-0.099-0.007-0.219-0.014-0.364c-0.007-0.145-0.021-0.259-0.038-0.34
			c-0.018-0.082-0.042-0.177-0.071-0.286c-0.029-0.108-0.066-0.193-0.111-0.255c-0.046-0.063-0.103-0.127-0.171-0.197
			c-0.067-0.069-0.146-0.123-0.23-0.157c-0.086-0.032-0.188-0.062-0.307-0.085c-0.118-0.021-0.25-0.033-0.396-0.033
			c-0.218,0-0.408,0.023-0.572,0.071c-0.163,0.047-0.297,0.122-0.4,0.226c-0.104,0.102-0.189,0.214-0.255,0.337
			c-0.066,0.122-0.114,0.278-0.146,0.473c-0.032,0.192-0.054,0.379-0.064,0.559c-0.012,0.18-0.018,0.399-0.018,0.663v4.465
			c0,0.849,0.107,1.438,0.32,1.77s0.592,0.497,1.137,0.497c0.208,0,0.389-0.022,0.541-0.068c0.152-0.045,0.277-0.119,0.375-0.225
			c0.097-0.104,0.176-0.213,0.235-0.326c0.059-0.113,0.102-0.267,0.129-0.46c0.026-0.191,0.044-0.37,0.051-0.534
			c0.007-0.163,0.01-0.376,0.01-0.64v-0.83h1.49v0.837c0,0.433-0.027,0.817-0.082,1.157s-0.146,0.659-0.279,0.956
			c-0.131,0.298-0.304,0.544-0.517,0.738s-0.485,0.349-0.816,0.46C380.579,511.902,380.197,511.957,379.761,511.957z"/>
		<path fill="#00B7AE" d="M388.275,511.771c-0.354,0.125-0.771,0.188-1.252,0.188s-0.899-0.063-1.255-0.188
			c-0.356-0.125-0.646-0.295-0.868-0.511c-0.223-0.215-0.4-0.492-0.534-0.83s-0.226-0.696-0.275-1.075
			c-0.051-0.379-0.075-0.82-0.075-1.324v-7.479h1.497v7.554c0,0.322,0.009,0.602,0.026,0.837c0.019,0.236,0.06,0.475,0.123,0.711
			c0.063,0.238,0.148,0.432,0.255,0.575c0.107,0.146,0.254,0.265,0.439,0.357c0.186,0.092,0.409,0.14,0.667,0.14
			c0.259,0,0.48-0.047,0.664-0.14c0.184-0.094,0.329-0.214,0.436-0.36c0.107-0.147,0.192-0.339,0.256-0.575
			c0.063-0.236,0.104-0.472,0.122-0.708c0.019-0.234,0.027-0.515,0.027-0.837v-7.554h1.497v7.479c0,0.504-0.025,0.945-0.075,1.324
			s-0.142,0.737-0.275,1.075c-0.135,0.338-0.313,0.615-0.534,0.83C388.916,511.476,388.629,511.646,388.275,511.771z"/>
		<path fill="#00B7AE" d="M391.692,511.836v-11.283h1.572v10.152h2.878v1.131H391.692L391.692,511.836z"/>
		<path fill="#00B7AE" d="M401.383,511.771c-0.354,0.125-0.771,0.188-1.252,0.188c-0.481,0-0.899-0.063-1.256-0.188
			c-0.355-0.125-0.646-0.295-0.867-0.511c-0.224-0.215-0.4-0.492-0.534-0.83s-0.227-0.696-0.276-1.075s-0.075-0.82-0.075-1.324
			v-7.479h1.497v7.554c0,0.322,0.01,0.602,0.027,0.837c0.018,0.236,0.059,0.475,0.123,0.711c0.063,0.238,0.148,0.432,0.255,0.575
			c0.107,0.146,0.253,0.265,0.439,0.357c0.186,0.092,0.408,0.14,0.667,0.14s0.479-0.047,0.664-0.14
			c0.184-0.094,0.328-0.214,0.436-0.36c0.107-0.147,0.192-0.339,0.255-0.575c0.063-0.236,0.104-0.472,0.123-0.708
			c0.019-0.234,0.027-0.515,0.027-0.837v-7.554h1.497v7.479c0,0.504-0.025,0.945-0.075,1.324s-0.143,0.737-0.276,1.075
			s-0.312,0.615-0.534,0.83C402.025,511.476,401.737,511.646,401.383,511.771z"/>
		<path fill="#00B7AE" d="M404.765,511.836l0.211-11.283h1.538l1.994,9.152l2.008-9.152h1.538l0.211,11.283h-1.273l-0.123-8.201
			l-1.912,8.201h-0.885l-1.898-8.201l-0.123,8.201H404.765z"/>
	</g>
</g>
<g id="Home">
	<g id="Home_1_" enable-background="new    ">
		<path fill="#00B7AE" d="M888.094,511.836v-11.283h1.572v4.872h2.898v-4.872h1.572v11.283h-1.572v-5.288h-2.898v5.288H888.094z"/>
		<path fill="#00B7AE" d="M898.779,511.957c-0.563,0-1.045-0.084-1.446-0.251c-0.4-0.168-0.72-0.416-0.955-0.741
			c-0.236-0.327-0.408-0.708-0.519-1.145c-0.11-0.436-0.163-0.942-0.163-1.523v-4.273c0-1.176,0.239-2.065,0.718-2.672
			c0.479-0.605,1.269-0.908,2.365-0.908c1.094,0,1.881,0.306,2.361,0.915c0.479,0.61,0.721,1.499,0.721,2.665v4.28
			c0,1.175-0.24,2.078-0.725,2.709C900.654,511.643,899.867,511.957,898.779,511.957z M898.013,510.584
			c0.201,0.095,0.457,0.143,0.766,0.143c0.31,0,0.563-0.048,0.767-0.143c0.2-0.097,0.354-0.24,0.459-0.437
			c0.104-0.195,0.176-0.41,0.215-0.644c0.038-0.233,0.058-0.522,0.058-0.867v-4.941c0-0.34-0.02-0.624-0.058-0.851
			c-0.039-0.228-0.11-0.437-0.215-0.626c-0.104-0.19-0.259-0.33-0.459-0.419c-0.202-0.089-0.457-0.134-0.767-0.134
			c-0.309,0-0.563,0.046-0.766,0.134c-0.202,0.089-0.355,0.229-0.459,0.419c-0.105,0.189-0.176,0.398-0.215,0.626
			c-0.039,0.227-0.06,0.511-0.06,0.851v4.941c0,0.345,0.021,0.634,0.06,0.867c0.039,0.232,0.108,0.447,0.215,0.644
			C897.657,510.344,897.811,510.488,898.013,510.584z"/>
		<path fill="#00B7AE" d="M903.386,511.836l0.211-11.283h1.537l1.994,9.152l2.008-9.152h1.539l0.211,11.283h-1.273l-0.123-8.201
			l-1.912,8.201h-0.885l-1.897-8.201l-0.123,8.201H903.386z"/>
		<path fill="#00B7AE" d="M912.62,511.836v-11.283h4.369v1.163h-2.797v3.729h2.273v1.123h-2.273v4.138h2.832v1.131H912.62z"/>
	</g>
</g>
<g id="Login">
	<g id="Login_1_" enable-background="new    ">
		<path fill="#00B7AE" d="M516.146,667.019v-11.283h1.572v10.153h2.878v1.13H516.146z"/>
		<path fill="#00B7AE" d="M524.455,667.141c-0.563,0-1.045-0.084-1.445-0.251c-0.401-0.168-0.721-0.416-0.956-0.742
			c-0.236-0.327-0.409-0.708-0.519-1.144c-0.108-0.437-0.163-0.943-0.163-1.524v-4.273c0-1.176,0.239-2.064,0.719-2.672
			c0.479-0.604,1.267-0.907,2.364-0.907c1.094,0,1.881,0.306,2.361,0.915c0.481,0.609,0.721,1.498,0.721,2.664v4.28
			c0,1.175-0.24,2.078-0.725,2.709C526.33,666.826,525.545,667.141,524.455,667.141z M523.69,665.767
			c0.202,0.095,0.457,0.143,0.766,0.143s0.563-0.048,0.767-0.143c0.202-0.096,0.354-0.24,0.459-0.436
			c0.104-0.195,0.176-0.41,0.215-0.645c0.038-0.232,0.058-0.521,0.058-0.867v-4.94c0-0.341-0.02-0.624-0.058-0.852
			c-0.039-0.227-0.11-0.436-0.215-0.626c-0.104-0.189-0.257-0.33-0.459-0.419c-0.202-0.088-0.458-0.133-0.767-0.133
			s-0.563,0.045-0.766,0.133c-0.202,0.089-0.354,0.229-0.459,0.419c-0.104,0.19-0.176,0.399-0.214,0.626
			c-0.038,0.228-0.058,0.511-0.058,0.852v4.94c0,0.346,0.02,0.634,0.058,0.867s0.11,0.448,0.214,0.645
			C523.335,665.527,523.488,665.672,523.69,665.767z"/>
		<path fill="#00B7AE" d="M531.784,667.155c-1.024,0-1.765-0.323-2.218-0.97c-0.454-0.646-0.681-1.604-0.681-2.868v-3.776
			c0-0.518,0.027-0.972,0.085-1.361c0.057-0.391,0.153-0.75,0.292-1.082c0.139-0.331,0.32-0.602,0.548-0.811
			c0.227-0.209,0.515-0.37,0.864-0.485c0.35-0.116,0.76-0.174,1.231-0.174c1.043,0,1.794,0.266,2.253,0.796
			c0.458,0.531,0.688,1.366,0.688,2.505v0.415h-1.478v-0.354c0-0.316-0.009-0.58-0.026-0.786c-0.019-0.207-0.057-0.401-0.112-0.589
			c-0.057-0.186-0.138-0.33-0.245-0.433c-0.105-0.102-0.246-0.183-0.418-0.241c-0.172-0.058-0.386-0.089-0.64-0.089
			c-0.195,0-0.368,0.021-0.518,0.065c-0.149,0.043-0.276,0.1-0.381,0.17c-0.104,0.069-0.19,0.168-0.262,0.293
			c-0.071,0.124-0.126,0.247-0.167,0.366c-0.041,0.12-0.073,0.274-0.095,0.464c-0.023,0.188-0.036,0.358-0.041,0.514
			c-0.005,0.154-0.008,0.347-0.008,0.578v4.179c0,0.867,0.104,1.488,0.313,1.865c0.208,0.376,0.607,0.563,1.198,0.563
			c0.589,0,0.994-0.203,1.211-0.611s0.327-1.064,0.327-1.967v-0.79h-1.43v-1.115h2.858v5.594h-1l-0.15-1.3
			C533.446,666.677,532.779,667.155,531.784,667.155z"/>
		<path fill="#00B7AE" d="M536.631,667.019v-11.283h1.545v11.283H536.631z"/>
		<path fill="#00B7AE" d="M540.007,667.019v-11.283h1.067l3.206,7.492v-7.492h1.313v11.283h-1.007l-3.253-7.711v7.711H540.007z"/>
	</g>
</g>
<g id="SignUp">
	<g id="SignUp_1_" enable-background="new    ">
		<path fill="#00B7AE" d="M728.64,674.115c-0.949,0-1.672-0.292-2.168-0.878c-0.497-0.585-0.775-1.386-0.834-2.401l1.401-0.382
			c0.101,1.615,0.634,2.424,1.601,2.424c0.403,0,0.711-0.112,0.922-0.337c0.211-0.226,0.315-0.556,0.315-0.99
			c0-0.24-0.028-0.46-0.086-0.66c-0.057-0.199-0.148-0.39-0.277-0.571c-0.13-0.182-0.252-0.332-0.368-0.453
			c-0.115-0.12-0.279-0.278-0.492-0.479l-1.893-1.681c-0.381-0.346-0.659-0.709-0.834-1.094c-0.175-0.383-0.263-0.852-0.263-1.404
			c0-0.816,0.236-1.453,0.711-1.909c0.476-0.456,1.122-0.688,1.943-0.697c0.902-0.014,1.578,0.219,2.027,0.697
			c0.448,0.479,0.72,1.22,0.811,2.223l-1.327,0.367c-0.019-0.245-0.044-0.463-0.075-0.653c-0.03-0.189-0.084-0.382-0.155-0.575
			c-0.072-0.191-0.161-0.35-0.267-0.47c-0.104-0.12-0.242-0.215-0.415-0.285c-0.173-0.069-0.372-0.099-0.599-0.086
			c-0.83,0.061-1.246,0.474-1.246,1.239c0,0.331,0.057,0.607,0.17,0.83c0.114,0.223,0.305,0.456,0.572,0.701l1.906,1.681
			c0.494,0.445,0.888,0.921,1.18,1.43c0.293,0.509,0.439,1.084,0.439,1.729c0,0.825-0.25,1.479-0.748,1.963
			C730.094,673.875,729.443,674.115,728.64,674.115z"/>
		<path fill="#00B7AE" d="M732.655,673.993v-11.282h1.545v11.282H732.655L732.655,673.993z"/>
		<path fill="#00B7AE" d="M738.719,674.13c-1.025,0-1.766-0.323-2.219-0.971c-0.453-0.646-0.681-1.603-0.681-2.867v-3.777
			c0-0.517,0.027-0.971,0.084-1.361c0.058-0.39,0.154-0.75,0.293-1.082c0.14-0.331,0.321-0.601,0.548-0.81
			c0.229-0.209,0.516-0.371,0.864-0.486c0.351-0.116,0.76-0.174,1.232-0.174c1.043,0,1.794,0.266,2.252,0.796
			c0.459,0.531,0.688,1.366,0.688,2.505v0.415h-1.477v-0.354c0-0.317-0.01-0.58-0.027-0.786c-0.018-0.207-0.056-0.402-0.112-0.589
			s-0.138-0.33-0.244-0.434c-0.106-0.102-0.246-0.183-0.418-0.241c-0.174-0.059-0.388-0.089-0.642-0.089
			c-0.194,0-0.367,0.022-0.517,0.065c-0.15,0.043-0.276,0.1-0.382,0.17c-0.104,0.07-0.191,0.168-0.263,0.293
			c-0.069,0.124-0.125,0.247-0.166,0.367s-0.072,0.273-0.096,0.463c-0.023,0.188-0.036,0.359-0.041,0.514
			c-0.004,0.154-0.007,0.348-0.007,0.578v4.18c0,0.866,0.104,1.487,0.313,1.864c0.209,0.376,0.607,0.564,1.197,0.564
			s0.994-0.204,1.212-0.612s0.327-1.063,0.327-1.967v-0.79h-1.43V668.4h2.857v5.594h-1.001l-0.148-1.3
			C740.379,673.651,739.713,674.13,738.719,674.13z"/>
		<path fill="#00B7AE" d="M743.49,673.993v-11.282h1.068l3.205,7.491v-7.491h1.313v11.282h-1.007l-3.254-7.711v7.711H743.49
			L743.49,673.993z"/>
		<path fill="#00B7AE" d="M758.189,673.929c-0.354,0.125-0.771,0.187-1.252,0.187s-0.899-0.062-1.256-0.187
			c-0.355-0.125-0.646-0.295-0.867-0.511c-0.223-0.216-0.4-0.492-0.534-0.83c-0.134-0.339-0.226-0.696-0.275-1.075
			s-0.074-0.82-0.074-1.324v-7.479h1.497v7.554c0,0.322,0.009,0.602,0.026,0.837c0.02,0.236,0.061,0.474,0.122,0.711
			c0.064,0.238,0.148,0.431,0.257,0.575c0.105,0.146,0.252,0.265,0.438,0.356c0.186,0.093,0.409,0.141,0.667,0.141
			c0.259,0,0.479-0.047,0.664-0.141c0.184-0.093,0.328-0.213,0.436-0.359c0.106-0.147,0.191-0.339,0.255-0.575
			c0.064-0.236,0.104-0.472,0.122-0.708c0.02-0.235,0.027-0.515,0.027-0.837v-7.554h1.498v7.479c0,0.504-0.025,0.945-0.075,1.324
			s-0.142,0.736-0.275,1.075c-0.134,0.338-0.313,0.614-0.533,0.83C758.831,673.635,758.544,673.804,758.189,673.929z"/>
		<path fill="#00B7AE" d="M761.605,673.993v-11.282h2.797c0.98,0,1.69,0.264,2.131,0.792c0.439,0.528,0.66,1.304,0.66,2.323
			c0,0.917-0.237,1.633-0.711,2.146c-0.475,0.513-1.165,0.769-2.072,0.769h-1.231v5.254L761.605,673.993L761.605,673.993z
			 M763.177,667.61h0.715c0.688,0,1.164-0.122,1.422-0.367c0.26-0.245,0.389-0.715,0.389-1.409c0-0.284-0.007-0.521-0.021-0.703
			c-0.014-0.184-0.044-0.357-0.093-0.521c-0.048-0.163-0.109-0.289-0.188-0.378c-0.077-0.088-0.185-0.164-0.323-0.228
			c-0.138-0.064-0.299-0.106-0.481-0.131c-0.186-0.021-0.412-0.033-0.686-0.033h-0.734V667.61z"/>
	</g>
</g>
<g id="About">
	<g id="About_1_" enable-background="new    ">
		<path fill="#00B7AE" d="M513.969,142.074l2.409-11.283h1.518l2.409,11.283h-1.498l-0.518-2.845h-2.293l-0.538,2.845H513.969z
			 M516.2,138.107h1.886l-0.946-5.099L516.2,138.107z"/>
		<path fill="#00B7AE" d="M521.448,142.074v-11.283h2.579c1.025,0,1.786,0.229,2.28,0.688c0.494,0.459,0.742,1.171,0.742,2.138
			c0,1.438-0.54,2.231-1.62,2.382c0.667,0.163,1.153,0.479,1.459,0.942s0.459,1.102,0.459,1.909c0,1.017-0.238,1.808-0.714,2.375
			c-0.478,0.566-1.205,0.851-2.186,0.851L521.448,142.074L521.448,142.074z M523.021,135.5h0.925c0.649,0,1.1-0.144,1.352-0.432
			c0.251-0.288,0.377-0.772,0.377-1.453c0-0.223-0.017-0.417-0.047-0.582c-0.032-0.166-0.073-0.308-0.123-0.426
			c-0.051-0.117-0.126-0.217-0.229-0.296c-0.102-0.079-0.206-0.144-0.31-0.19c-0.104-0.048-0.246-0.084-0.425-0.108
			c-0.181-0.024-0.353-0.04-0.519-0.048c-0.166-0.007-0.377-0.011-0.636-0.011h-0.367L523.021,135.5L523.021,135.5z
			 M523.021,140.945h1.062c0.682,0,1.146-0.16,1.396-0.479c0.25-0.319,0.375-0.857,0.375-1.615c0-0.723-0.149-1.262-0.446-1.616
			c-0.297-0.356-0.781-0.534-1.453-0.534h-0.932L523.021,140.945L523.021,140.945z"/>
		<path fill="#00B7AE" d="M531.622,142.197c-0.563,0-1.045-0.084-1.445-0.251c-0.401-0.168-0.72-0.416-0.956-0.742
			c-0.236-0.327-0.409-0.708-0.519-1.144c-0.108-0.437-0.163-0.943-0.163-1.524v-4.272c0-1.177,0.239-2.065,0.719-2.673
			c0.479-0.604,1.267-0.907,2.364-0.907c1.094,0,1.881,0.306,2.361,0.915c0.481,0.609,0.721,1.499,0.721,2.665v4.279
			c0,1.175-0.24,2.078-0.725,2.709C533.497,141.882,532.712,142.197,531.622,142.197z M530.858,140.823
			c0.202,0.095,0.457,0.143,0.766,0.143s0.563-0.048,0.767-0.143c0.202-0.096,0.354-0.24,0.459-0.436
			c0.104-0.195,0.176-0.41,0.215-0.645c0.038-0.232,0.058-0.521,0.058-0.867v-4.94c0-0.34-0.02-0.624-0.058-0.852
			c-0.039-0.227-0.11-0.436-0.215-0.626c-0.104-0.189-0.257-0.33-0.459-0.419c-0.202-0.088-0.458-0.133-0.767-0.133
			s-0.563,0.045-0.766,0.133c-0.202,0.089-0.354,0.229-0.459,0.419c-0.104,0.19-0.176,0.399-0.214,0.626
			c-0.038,0.228-0.058,0.512-0.058,0.852v4.94c0,0.346,0.02,0.635,0.058,0.867c0.038,0.233,0.11,0.448,0.214,0.645
			C530.503,140.583,530.656,140.727,530.858,140.823z"/>
		<path fill="#00B7AE" d="M540.423,142.01c-0.354,0.125-0.771,0.187-1.252,0.187c-0.481,0-0.899-0.062-1.256-0.187
			c-0.355-0.125-0.646-0.296-0.867-0.512c-0.224-0.215-0.4-0.492-0.534-0.83s-0.227-0.695-0.276-1.074
			c-0.05-0.38-0.075-0.82-0.075-1.324v-7.479h1.497v7.555c0,0.321,0.009,0.602,0.027,0.837c0.018,0.235,0.059,0.474,0.123,0.711
			c0.063,0.237,0.147,0.431,0.255,0.574c0.107,0.146,0.253,0.266,0.439,0.357c0.186,0.092,0.408,0.14,0.667,0.14
			s0.479-0.047,0.663-0.14c0.185-0.093,0.329-0.213,0.437-0.36c0.106-0.146,0.192-0.339,0.255-0.574
			c0.063-0.236,0.104-0.473,0.123-0.708c0.018-0.235,0.027-0.516,0.027-0.837v-7.555h1.497v7.479c0,0.504-0.025,0.944-0.075,1.324
			c-0.05,0.379-0.143,0.736-0.276,1.074s-0.312,0.615-0.534,0.83C541.065,141.715,540.777,141.885,540.423,142.01z"/>
		<path fill="#00B7AE" d="M544.995,142.074v-10.12h-2.062v-1.163h5.622v1.163h-1.987v10.12H544.995z"/>
	</g>
</g>
</svg>
